<svg width="16" height="16" viewBox="0 0 16 16" fill="none" xmlns="http://www.w3.org/2000/svg">
<path d="M8 13.3333L11.5556 9.77778L10.3111 8.53334L8.88889 9.95556V6.22222H7.11111V9.95556L5.68889 8.53334L4.44444 9.77778L8 13.3333ZM1.77778 4.44445V14.2222H14.2222V4.44445H1.77778ZM1.77778 16C1.28889 16 0.870223 15.8258 0.521779 15.4773C0.173335 15.1289 -0.000591083 14.7105 1.50915e-06 14.2222V3.13334C1.50915e-06 2.92593 0.0334829 2.72593 0.100446 2.53334C0.167409 2.34074 0.267261 2.16297 0.400001 2L1.51111 0.644449C1.67407 0.437041 1.87763 0.277634 2.12178 0.166227C2.36593 0.0548195 2.62163 -0.000587889 2.88889 4.70311e-06H13.1111C13.3778 4.70311e-06 13.6335 0.0557083 13.8782 0.167116C14.123 0.278523 14.3265 0.437634 14.4889 0.644449L15.6 2C15.7333 2.16297 15.8335 2.34074 15.9004 2.53334C15.9674 2.72593 16.0006 2.92593 16 3.13334V14.2222C16 14.7111 15.8258 15.1298 15.4773 15.4782C15.1289 15.8267 14.7105 16.0006 14.2222 16H1.77778ZM2.13333 2.66667H13.8667L13.1111 1.77778H2.88889L2.13333 2.66667Z" fill="#9D9D9D"/>
</svg>
