<svg width="19" height="19" viewBox="0 0 19 19" fill="none" xmlns="http://www.w3.org/2000/svg">
<path d="M17.8219 11.4994L16.0005 9.67796C15.8866 9.56414 15.7322 9.5002 15.5712 9.5002C15.4102 9.5002 15.2558 9.56414 15.142 9.67796L9.49976 15.3202V18.0001H12.1797L17.8219 12.3579C17.9358 12.2441 17.9997 12.0897 17.9997 11.9287C17.9997 11.7677 17.9358 11.6133 17.8219 11.4994ZM11.677 16.7858H10.7141V15.8229L13.7498 12.7872L14.7127 13.7501L11.677 16.7858ZM15.5712 12.8916L14.6083 11.9287L15.5712 10.9657L16.5342 11.9287L15.5712 12.8916ZM4.64258 9.50007H10.7141V10.7144H4.64258V9.50007ZM4.64258 5.85718H11.9283V7.07148H4.64258V5.85718Z" fill="#9D9D9D" stroke="#9D9D9D" stroke-width="0.5"/>
<path d="M15.5715 2.21429C15.5712 1.89234 15.4432 1.58367 15.2155 1.35601C14.9879 1.12836 14.6792 1.00032 14.3573 1H2.2143C1.89235 1.00032 1.58367 1.12836 1.35602 1.35601C1.12836 1.58367 1.00033 1.89234 1 2.21429V10.1072C0.998651 11.3181 1.32709 12.5064 1.95006 13.5448C2.57302 14.5831 3.467 15.4321 4.53603 16.0008L7.67863 17.6765V16.3001L5.10796 14.9292C4.23328 14.4639 3.50179 13.7692 2.992 12.9197C2.48221 12.0702 2.21336 11.0979 2.2143 10.1072V2.21429H14.3573V7.67862H15.5715V2.21429Z" fill="#9D9D9D" stroke="#9D9D9D" stroke-width="0.5"/>
</svg>
