<svg width="18" height="13" viewBox="0 0 18 13" fill="none" xmlns="http://www.w3.org/2000/svg">
<path d="M6.36224 1.18145C6.49705 1.29766 6.57278 1.45526 6.57278 1.61959C6.57278 1.78392 6.49705 1.94152 6.36224 2.05774L2.73577 5.18302L6.36224 8.30829C6.49323 8.42517 6.56571 8.58172 6.56407 8.74421C6.56243 8.9067 6.4868 9.06213 6.35348 9.17704C6.22015 9.29194 6.03979 9.35711 5.85124 9.35853C5.66269 9.35994 5.48104 9.29747 5.34542 9.18459L1.21055 5.62116C1.07573 5.50495 1 5.34735 1 5.18302C1 5.01869 1.07573 4.86109 1.21055 4.74487L5.34542 1.18145C5.48027 1.06527 5.66314 1 5.85383 1C6.04451 1 6.22738 1.06527 6.36224 1.18145ZM9.95778 1.18145C10.0926 1.29766 10.1683 1.45526 10.1683 1.61959C10.1683 1.78392 10.0926 1.94152 9.95778 2.05774L7.05042 4.56329H9.08981C13.4584 4.56329 17 7.61544 17 11.3803C17 11.5446 16.9242 11.7023 16.7894 11.8185C16.6545 11.9347 16.4716 12 16.2809 12C16.0902 12 15.9073 11.9347 15.7724 11.8185C15.6375 11.7023 15.5618 11.5446 15.5618 11.3803C15.5618 9.90102 14.8799 8.48235 13.6662 7.43636C12.4525 6.39037 10.8063 5.80274 9.08981 5.80274H7.05042L9.95778 8.30829C10.0888 8.42517 10.1612 8.58172 10.1596 8.74421C10.158 8.9067 10.0823 9.06213 9.94902 9.17704C9.81569 9.29194 9.63533 9.35711 9.44678 9.35853C9.25823 9.35994 9.07658 9.29747 8.94096 9.18459L4.80609 5.62116C4.67127 5.50495 4.59554 5.34735 4.59554 5.18302C4.59554 5.01869 4.67127 4.86109 4.80609 4.74487L8.94096 1.18145C9.07581 1.06527 9.25868 1 9.44937 1C9.64005 1 9.82292 1.06527 9.95778 1.18145Z" fill="#9D9D9D" stroke="#9D9D9D" stroke-width="0.25"/>
</svg>
