<svg width="20" height="20" viewBox="0 0 20 20" fill="none" xmlns="http://www.w3.org/2000/svg">
<path d="M7.5 9C6.80754 9 6.13065 8.76525 5.55496 8.32547C4.97928 7.88568 4.53068 7.26061 4.26593 6.52936C4.00117 5.79812 3.93216 4.99355 4.06763 4.21746C4.2031 3.44138 4.53696 2.72866 5.02696 2.16948C5.51696 1.61031 6.14109 1.22981 6.82036 1.07614C7.49963 0.922469 8.20353 1.00253 8.84298 1.30618C9.48243 1.60984 10.0287 2.12345 10.4127 2.78203C10.7966 3.4406 11.001 4.21454 11 5.00592C10.9973 6.06528 10.6275 7.08027 9.97153 7.82879C9.3156 8.57732 8.42694 8.99844 7.5 9ZM7.5 2.18935C7.01257 2.18935 6.53608 2.35454 6.1308 2.66403C5.72551 2.97352 5.40963 3.4134 5.2231 3.92806C5.03657 4.44272 4.98776 5.00904 5.08286 5.5554C5.17795 6.10176 5.41267 6.60363 5.75733 6.99753C6.102 7.39144 6.54113 7.65969 7.0192 7.76837C7.49726 7.87704 7.99279 7.82127 8.44312 7.60809C8.89345 7.39491 9.27835 7.0339 9.54915 6.57072C9.81995 6.10754 9.96449 5.56298 9.96449 5.00592C9.96449 4.25892 9.70484 3.54251 9.24266 3.0143C8.78048 2.4861 8.15362 2.18935 7.5 2.18935Z" fill="#9D9D9D" stroke="#9D9D9D" stroke-width="0.25"/>
<path d="M8.84762 17.8233C8.72868 17.7025 8.63693 17.557 8.57868 17.3969C8.52043 17.2367 8.49707 17.0656 8.5102 16.8954H2.08844V13.703C2.86008 12.8674 3.79603 12.2055 4.8357 11.7603C5.87536 11.315 6.99557 11.0963 8.12381 11.1182H8.51565C8.49067 10.9331 8.50811 10.7445 8.56664 10.5673C8.62516 10.3901 8.72317 10.229 8.85306 10.0965L8.91837 10.0357C8.66258 10.0357 8.37415 10.0026 8.12381 10.0026C6.79614 9.97057 5.47805 10.2384 4.26486 10.7867C3.05166 11.335 1.97367 12.15 1.10884 13.1728C1.03819 13.2684 1 13.3847 1 13.5042V16.8954C1 17.1883 1.11467 17.4693 1.3188 17.6765C1.52292 17.8836 1.79976 18 2.08844 18H9L8.84762 17.8233Z" fill="#9D9D9D" stroke="#9D9D9D" stroke-width="0.25"/>
<path d="M18.9098 13.2535L17.805 12.9161C17.7261 12.6456 17.6187 12.3842 17.4847 12.1363L18.037 11.1076C18.055 11.0664 18.0593 11.0206 18.0494 10.9768C18.0395 10.933 18.0158 10.8935 17.9818 10.8642L17.1808 10.0622C17.1505 10.0294 17.1101 10.0077 17.066 10.0007C17.0219 9.99368 16.9768 10.0017 16.9378 10.0235L15.9214 10.5766C15.6711 10.4357 15.4063 10.3226 15.1315 10.2392L14.7945 9.13306C14.7802 9.09234 14.7531 9.05738 14.7172 9.03344C14.6814 9.0095 14.6387 8.99788 14.5957 9.00032H13.4633C13.4198 8.99982 13.3773 9.01361 13.3424 9.03958C13.3075 9.06556 13.282 9.10228 13.27 9.14412L12.933 10.2503C12.6563 10.3309 12.3895 10.4422 12.1376 10.5821L11.1322 10.029C11.0941 10.0077 11.0498 9.99986 11.0067 10.0069C10.9636 10.0139 10.9241 10.0354 10.8947 10.0678L10.0772 10.8642C10.0469 10.8962 10.0273 10.9369 10.0214 10.9805C10.0154 11.0242 10.0234 11.0686 10.044 11.1076L10.5964 12.1142C10.4503 12.3635 10.3335 12.6289 10.2484 12.9051L9.14363 13.2369C9.10184 13.249 9.06517 13.2745 9.03923 13.3095C9.01329 13.3444 8.99951 13.3869 9.00001 13.4305V14.5643C9.00328 14.6043 9.01885 14.6422 9.04457 14.6729C9.0703 14.7036 9.10491 14.7256 9.14363 14.7358L10.2484 15.0731C10.33 15.3444 10.4412 15.606 10.5798 15.853L10.0275 16.9094C10.0064 16.9472 9.9982 16.9909 10.0042 17.0338C10.0102 17.0768 10.03 17.1166 10.0606 17.1472L10.8616 17.9491C10.8928 17.9804 10.9332 18.001 10.9768 18.0079C11.0205 18.0149 11.0652 18.0078 11.1046 17.9879L12.1376 17.4348C12.3834 17.5672 12.6426 17.6728 12.9109 17.75L13.2423 18.8562C13.2559 18.8971 13.2818 18.9329 13.3164 18.9586C13.3509 18.9844 13.3926 18.9988 13.4357 19H14.5681C14.6113 18.9996 14.6534 18.9855 14.6881 18.9596C14.7229 18.9338 14.7485 18.8976 14.7614 18.8562L15.0983 17.7224C15.3631 17.6451 15.6186 17.5394 15.8606 17.4071L16.9046 17.9602C16.943 17.9806 16.987 17.9879 17.0299 17.9809C17.0728 17.9739 17.1122 17.953 17.1422 17.9215L17.9818 17.1693C18.0044 17.1368 18.0165 17.0982 18.0165 17.0587C18.0165 17.0191 18.0044 16.9805 17.9818 16.9481L17.4294 15.9083C17.5635 15.6643 17.6709 15.4066 17.7498 15.1395L18.8546 14.8021C18.8964 14.79 18.933 14.7645 18.959 14.7296C18.9849 14.6946 18.9987 14.6521 18.9982 14.6085V13.4471C19.0033 13.4097 18.9976 13.3717 18.982 13.3375C18.9664 13.3032 18.9413 13.2741 18.9098 13.2535ZM14.0322 15.8419C13.6669 15.843 13.3094 15.7355 13.0052 15.5329C12.7009 15.3303 12.4636 15.0419 12.3233 14.7041C12.1829 14.3663 12.1459 13.9945 12.2169 13.6356C12.288 13.2768 12.4638 12.9471 12.7221 12.6884C12.9805 12.4297 13.3097 12.2537 13.6681 12.1826C14.0265 12.1115 14.398 12.1485 14.7353 12.289C15.0727 12.4295 15.3607 12.6672 15.5631 12.9718C15.7654 13.2764 15.8728 13.6343 15.8717 14.0002C15.8702 14.4882 15.676 14.9558 15.3313 15.3009C14.9867 15.6459 14.5196 15.8405 14.0322 15.8419Z" fill="#9D9D9D" stroke="#9D9D9D" stroke-width="0.25"/>
</svg>
