<svg width="16" height="16" viewBox="0 0 16 16" fill="none" xmlns="http://www.w3.org/2000/svg">
<path d="M6.4 1.6C5.55131 1.6 4.73737 1.93714 4.13726 2.53726C3.53714 3.13737 3.2 3.95131 3.2 4.8C3.2 5.64869 3.53714 6.46263 4.13726 7.06274C4.73737 7.66286 5.55131 8 6.4 8C7.24869 8 8.06263 7.66286 8.66274 7.06274C9.26286 6.46263 9.6 5.64869 9.6 4.8C9.6 3.95131 9.26286 3.13737 8.66274 2.53726C8.06263 1.93714 7.24869 1.6 6.4 1.6ZM1.6 4.8C1.6 3.52696 2.10571 2.30606 3.00589 1.40589C3.90606 0.505713 5.12696 0 6.4 0C7.67304 0 8.89394 0.505713 9.79411 1.40589C10.6943 2.30606 11.2 3.52696 11.2 4.8C11.2 6.07304 10.6943 7.29394 9.79411 8.19411C8.89394 9.09429 7.67304 9.6 6.4 9.6C5.12696 9.6 3.90606 9.09429 3.00589 8.19411C2.10571 7.29394 1.6 6.07304 1.6 4.8ZM11.8624 1.4056C11.9367 1.33122 12.0249 1.27221 12.122 1.23195C12.2192 1.19169 12.3233 1.17097 12.4284 1.17097C12.5335 1.17097 12.6376 1.19169 12.7348 1.23195C12.8319 1.27221 12.9201 1.33122 12.9944 1.4056C13.4402 1.85133 13.7938 2.38052 14.0351 2.96293C14.2764 3.54535 14.4006 4.16959 14.4006 4.8C14.4006 5.43041 14.2764 6.05465 14.0351 6.63707C13.7938 7.21948 13.4402 7.74867 12.9944 8.1944C12.9201 8.26873 12.8318 8.32769 12.7347 8.36792C12.6376 8.40814 12.5335 8.42885 12.4284 8.42885C12.3233 8.42885 12.2192 8.40814 12.1221 8.36792C12.025 8.32769 11.9367 8.26873 11.8624 8.1944C11.7881 8.12007 11.7291 8.03183 11.6889 7.93472C11.6487 7.8376 11.628 7.73352 11.628 7.6284C11.628 7.52328 11.6487 7.4192 11.6889 7.32208C11.7291 7.22497 11.7881 7.13673 11.8624 7.0624C12.4623 6.46231 12.7993 5.64853 12.7993 4.8C12.7993 3.95147 12.4623 3.13769 11.8624 2.5376C11.788 2.4633 11.729 2.37507 11.6888 2.27795C11.6485 2.18083 11.6278 2.07673 11.6278 1.9716C11.6278 1.86647 11.6485 1.76237 11.6888 1.66525C11.729 1.56813 11.788 1.4799 11.8624 1.4056ZM12.424 11.8056C12.4756 11.6 12.6067 11.4232 12.7885 11.3142C12.9703 11.2051 13.1879 11.1727 13.3936 11.224C14.456 11.4896 15.1288 12.168 15.5152 12.9424C15.8896 13.6904 16 14.5264 16 15.2C16 15.4122 15.9157 15.6157 15.7657 15.7657C15.6157 15.9157 15.4122 16 15.2 16C14.9878 16 14.7843 15.9157 14.6343 15.7657C14.4843 15.6157 14.4 15.4122 14.4 15.2C14.4 14.6744 14.3104 14.1096 14.0848 13.6576C13.8712 13.2312 13.5432 12.9104 13.0056 12.776C12.8 12.7244 12.6232 12.5933 12.5142 12.4115C12.4051 12.2297 12.3727 12.0113 12.424 11.8056ZM3.6 12.8C2.592 12.8 1.6 13.7704 1.6 15.2C1.6 15.4122 1.51571 15.6157 1.36569 15.7657C1.21566 15.9157 1.01217 16 0.8 16C0.587827 16 0.384344 15.9157 0.234315 15.7657C0.0842854 15.6157 0 15.4122 0 15.2C0 13.0944 1.5144 11.2 3.6 11.2H9.2C11.2856 11.2 12.8 13.0944 12.8 15.2C12.8 15.4122 12.7157 15.6157 12.5657 15.7657C12.4157 15.9157 12.2122 16 12 16C11.7878 16 11.5843 15.9157 11.4343 15.7657C11.2843 15.6157 11.2 15.4122 11.2 15.2C11.2 13.7704 10.208 12.8 9.2 12.8H3.6Z" fill="#9D9D9D"/>
</svg>
