<svg width="14" height="20" viewBox="0 0 14 20" fill="none" xmlns="http://www.w3.org/2000/svg">
<path d="M10.0746 0L14 3.92537V18.4301C13.9993 18.6007 13.9311 18.7641 13.8104 18.8846C13.6896 19.0051 13.5261 19.0729 13.3555 19.0733H0.644505C0.473682 19.0729 0.309957 19.0049 0.189167 18.8841C0.0683766 18.7633 0.000358497 18.5996 0 18.4288V0.644505C0.000358497 0.473681 0.0683766 0.309958 0.189167 0.189167C0.309957 0.0683767 0.473682 0.000358497 0.644505 0H10.0746ZM1.50475 1.50339V17.5685H12.498V4.96336H9.7924C9.58606 4.96265 9.38838 4.88036 9.24247 4.73446C9.09657 4.58856 9.01428 4.39087 9.01357 4.18453V1.50339H1.50475ZM6.35278 6.22252C6.57586 6.47716 6.69925 6.80394 6.70014 7.14247C6.6995 7.38257 6.63572 7.61828 6.51522 7.82595C6.39471 8.03362 6.22171 8.20595 6.01357 8.32565C5.81031 8.45477 5.58701 8.54923 5.35278 8.60516V8.88874C5.35278 9.03124 5.29617 9.16791 5.19541 9.26868C5.09464 9.36944 4.95797 9.42605 4.81547 9.42605C4.67296 9.42605 4.5363 9.36944 4.43553 9.26868C4.33476 9.16791 4.27815 9.03124 4.27815 8.88874V8.61194C4.1342 8.57986 3.99343 8.53491 3.85753 8.47761C3.62619 8.38227 3.42136 8.23237 3.26052 8.04071C3.21047 7.98805 3.17161 7.92579 3.14631 7.85769C3.12101 7.78959 3.10978 7.71706 3.1133 7.6445C3.11682 7.57194 3.13502 7.50084 3.16679 7.43551C3.19857 7.37018 3.24327 7.31197 3.29818 7.26441C3.35309 7.21684 3.41708 7.1809 3.48627 7.15877C3.55547 7.13664 3.62843 7.12876 3.70076 7.13563C3.77308 7.14249 3.84326 7.16396 3.90706 7.19871C3.97085 7.23347 4.02693 7.28081 4.07191 7.33786C4.1215 7.39906 4.18469 7.44784 4.25644 7.48033C4.33941 7.51677 4.42576 7.54495 4.51425 7.56445C4.60744 7.58216 4.70173 7.5935 4.79647 7.59837C5.01896 7.59799 5.23729 7.53802 5.42876 7.42469C5.62551 7.29715 5.62551 7.19267 5.62551 7.14247C5.62457 7.06404 5.59571 6.98851 5.5441 6.92944C5.48488 6.86242 5.41468 6.80598 5.3365 6.76255C5.25495 6.72039 5.1683 6.68892 5.0787 6.66893C4.99391 6.65129 4.9075 6.64265 4.8209 6.64315C4.67137 6.6438 4.52206 6.632 4.37449 6.60787C4.17367 6.57488 3.97887 6.51223 3.79647 6.42198C3.58346 6.31483 3.39567 6.16358 3.24559 5.97829C3.03669 5.72626 2.92076 5.4101 2.91723 5.08277C2.92212 4.83459 2.99086 4.59186 3.11682 4.37797C3.24278 4.16408 3.42171 3.98625 3.63636 3.8616C3.83445 3.73871 4.05121 3.64889 4.27815 3.59566V3.32564C4.27815 3.18314 4.33476 3.04647 4.43553 2.94571C4.5363 2.84494 4.67296 2.78833 4.81547 2.78833C4.95797 2.78833 5.09464 2.84494 5.19541 2.94571C5.29617 3.04647 5.35278 3.18314 5.35278 3.32564V3.61058C5.49999 3.6482 5.6435 3.69906 5.78155 3.76255C5.97619 3.85019 6.15357 3.97196 6.30529 4.12212C6.35527 4.17201 6.39494 4.23126 6.42202 4.29648C6.4491 4.3617 6.46308 4.43161 6.46314 4.50223C6.4632 4.57285 6.44935 4.6428 6.42239 4.70806C6.39542 4.77333 6.35586 4.83265 6.30597 4.88263C6.25608 4.93261 6.19683 4.97228 6.13161 4.99936C6.06639 5.02644 5.99647 5.04042 5.92585 5.04048C5.85523 5.04054 5.78529 5.02669 5.72002 4.99973C5.65475 4.97276 5.59544 4.9332 5.54545 4.88331C5.4863 4.82484 5.41743 4.77709 5.34193 4.7422C5.2562 4.70208 5.16665 4.67071 5.07463 4.64857L5.04613 4.64315C4.9749 4.6247 4.9023 4.612 4.82904 4.60516C4.61129 4.60413 4.39722 4.66127 4.20896 4.77069C4.14842 4.79962 4.09653 4.84391 4.05844 4.89914C4.02035 4.95437 3.99739 5.01862 3.99186 5.08548C3.99651 5.16535 4.02699 5.24154 4.0787 5.30258C4.13285 5.36917 4.20033 5.4237 4.2768 5.46269C4.36349 5.5047 4.45581 5.53395 4.55088 5.54953C4.64057 5.56434 4.73135 5.57161 4.82225 5.57123C4.98504 5.57078 5.14741 5.58761 5.30665 5.62144C5.49113 5.66163 5.66951 5.72596 5.83718 5.81275C6.03214 5.91802 6.20675 6.05589 6.35278 6.22252ZM10.9539 10.8847H3.05292V12.3881H10.9525L10.9539 10.8847ZM10.9539 14.2754H3.05292V15.7788H10.9525L10.9539 14.2754ZM10.9539 7.49525H7.67978V8.99729H10.9525L10.9539 7.49525Z" fill="#9D9D9D"/>
</svg>
