<svg width="20" height="22" viewBox="0 0 20 22" fill="none" xmlns="http://www.w3.org/2000/svg">
<path fill-rule="evenodd" clip-rule="evenodd" d="M11.1111 20.9C11.1111 21.5083 11.6078 22 12.2222 22H15.5556C16.7344 22 17.8644 21.5369 18.6978 20.7119C19.5311 19.8869 20 18.7671 20 17.6C20 16.9686 20 16.5 20 16.5C20 15.8928 19.5022 15.4 18.8889 15.4H12.2222C11.6078 15.4 11.1111 15.8928 11.1111 16.5V20.9ZM7.77778 22C8.39111 22 8.88889 21.5083 8.88889 20.9V9.9C8.88889 9.2928 8.39111 8.8 7.77778 8.8H1.11111C0.496667 8.8 0 9.2928 0 9.9V17.6C0 18.7671 0.467775 19.8869 1.30111 20.7119C2.13444 21.5369 3.26556 22 4.44444 22H7.77778ZM17.7778 17.6H13.3333V19.8H15.5556C16.1444 19.8 16.71 19.569 17.1267 19.1565C17.5433 18.744 17.7778 18.1841 17.7778 17.6ZM6.66667 19.8V11H2.22222V17.6C2.22222 18.1841 2.45555 18.744 2.87333 19.1565C3.29 19.569 3.85444 19.8 4.44444 19.8H6.66667ZM12.2222 0C11.6078 0 11.1111 0.4928 11.1111 1.1V12.1C11.1111 12.7083 11.6078 13.2 12.2222 13.2H18.8889C19.5022 13.2 20 12.7083 20 12.1V4.4C20 3.234 19.5311 2.1142 18.6978 1.2892C17.8644 0.464197 16.7344 0 15.5556 0H12.2222ZM13.3333 2.2V11H17.7778V4.4C17.7778 3.817 17.5433 3.2571 17.1267 2.8446C16.71 2.4321 16.1444 2.2 15.5556 2.2H13.3333ZM8.88889 1.1C8.88889 0.4928 8.39111 0 7.77778 0H4.44444C3.26556 0 2.13444 0.464197 1.30111 1.2892C0.467775 2.1142 0 3.234 0 4.4V5.5C0 6.1083 0.496667 6.6 1.11111 6.6H7.77778C8.39111 6.6 8.88889 6.1083 8.88889 5.5V1.1ZM6.66667 2.2H4.44444C3.85444 2.2 3.29 2.4321 2.87333 2.8446C2.45555 3.2571 2.22222 3.817 2.22222 4.4H6.66667V2.2Z" fill="#9D9D9D"/>
</svg>
