<svg width="16" height="16" viewBox="0 0 16 16" fill="none" xmlns="http://www.w3.org/2000/svg">
<path d="M9.51123 5.00592H2.50297C2.37021 5.00592 2.24288 4.95318 2.149 4.8593C2.05512 4.76542 2.00238 4.63809 2.00238 4.50533V2.50297C2.00238 2.37021 2.05512 2.24288 2.149 2.149C2.24288 2.05512 2.37021 2.00238 2.50297 2.00238H9.51123C9.64399 2.00238 9.77132 2.05512 9.8652 2.149C9.95908 2.24288 10.0118 2.37021 10.0118 2.50297V4.50533C10.0118 4.63809 9.95908 4.76542 9.8652 4.8593C9.77132 4.95318 9.64399 5.00592 9.51123 5.00592ZM3.00356 4.00474H9.01064V2.97352H3.00356V4.00474Z" fill="#9D9D9D"/>
<path d="M9.51123 6.04712H2.50297C2.37021 6.04712 2.24288 6.09986 2.149 6.19374C2.05512 6.28762 2.00238 6.41494 2.00238 6.54771V8.51002C2.00238 8.64279 2.05512 8.77011 2.149 8.86399C2.24288 8.95787 2.37021 9.01061 2.50297 9.01061H8.18967L10.0118 7.15843V6.54771C10.0118 6.41494 9.95908 6.28762 9.8652 6.19374C9.77132 6.09986 9.64399 6.04712 9.51123 6.04712ZM9.01064 8.00943H3.00356V7.00825H9.01064V8.00943Z" fill="#9D9D9D"/>
<path d="M4.53535 14.7724V14.7424L4.69553 14.0466H1.00118V1.00118H11.013V6.13223L12.0142 5.18611V0.50059C12.0142 0.367825 11.9614 0.240498 11.8675 0.146619C11.7737 0.0527406 11.6463 0 11.5136 0H0.50059C0.367825 0 0.240498 0.0527406 0.146619 0.146619C0.0527406 0.240498 0 0.367825 0 0.50059V14.5171C0 14.6499 0.0527406 14.7772 0.146619 14.8711C0.240498 14.965 0.367825 15.0177 0.50059 15.0177H4.50531C4.50943 14.9353 4.51947 14.8533 4.53535 14.7724Z" fill="#9D9D9D"/>
<path d="M2.00238 12.4847C2.00238 12.6175 2.05512 12.7448 2.149 12.8387C2.24288 12.9325 2.37021 12.9853 2.50297 12.9853H4.92583L5.076 12.3345L5.14108 12.0592V12.0342H3.00356V11.013H6.1773L7.17848 10.0118H2.50297C2.37021 10.0118 2.24288 10.0645 2.149 10.1584C2.05512 10.2523 2.00238 10.3796 2.00238 10.5124V12.4847Z" fill="#9D9D9D"/>
<path d="M15.7636 7.34369L14.0766 5.6567C14.0017 5.58163 13.9128 5.52206 13.8148 5.48142C13.7169 5.44078 13.6119 5.41986 13.5059 5.41986C13.3999 5.41986 13.2949 5.44078 13.197 5.48142C13.099 5.52206 13.0101 5.58163 12.9352 5.6567L6.07215 12.5598L5.50648 14.9677C5.4853 15.0715 5.48483 15.1786 5.50508 15.2826C5.52533 15.3867 5.56592 15.4858 5.62451 15.5741C5.6831 15.6625 5.75855 15.7384 5.84653 15.7975C5.93451 15.8567 6.03329 15.8979 6.13722 15.9188C6.18882 15.924 6.24081 15.924 6.29241 15.9188C6.35374 15.9288 6.41629 15.9288 6.47762 15.9188L8.90549 15.3832L15.7636 8.51006C15.8385 8.43562 15.8979 8.3471 15.9385 8.24959C15.9791 8.15208 16 8.04751 16 7.94189C16 7.83628 15.9791 7.73171 15.9385 7.6342C15.8979 7.53669 15.8385 7.44816 15.7636 7.37372V7.34369ZM8.39488 14.4721L6.56272 14.8776L7.00825 13.0604L12.1543 7.8593L13.566 9.27096L8.39488 14.4721ZM14.1316 8.70529L12.72 7.29363L13.5159 6.5077L14.9376 7.92938L14.1316 8.70529Z" fill="#9D9D9D"/>
</svg>
