<svg width="16" height="14" viewBox="0 0 16 14" fill="none" xmlns="http://www.w3.org/2000/svg">
<path d="M4.3628 0.422674C4.32796 0.387714 4.28656 0.359975 4.24098 0.341048C4.1954 0.322121 4.14653 0.312378 4.09718 0.312378C4.04782 0.312378 3.99895 0.322121 3.95337 0.341048C3.90779 0.359975 3.86639 0.387714 3.83155 0.422674L1.84155 2.40111L1.13217 1.70986C1.09733 1.6749 1.05594 1.64716 1.01035 1.62824C0.964772 1.60931 0.915902 1.59957 0.866547 1.59957C0.817191 1.59957 0.768321 1.60931 0.72274 1.62824C0.677158 1.64716 0.63576 1.6749 0.600921 1.70986L0.110296 2.20111C0.0753358 2.23595 0.0475969 2.27735 0.0286699 2.32293C0.00974287 2.36851 0 2.41738 0 2.46674C0 2.51609 0.00974287 2.56496 0.0286699 2.61055C0.0475969 2.65613 0.0753358 2.69753 0.110296 2.73236L1.59748 4.21362C1.67172 4.28418 1.77022 4.32353 1.87264 4.32353C1.97506 4.32353 2.07357 4.28418 2.1478 4.21362L2.63499 3.72549L4.89124 1.46955C4.96154 1.3992 5.00126 1.30396 5.00179 1.2045C5.00231 1.10505 4.9636 1.00939 4.89405 0.938299L4.3628 0.422674ZM4.3628 5.39737C4.32796 5.36241 4.28656 5.33467 4.24098 5.31574C4.1954 5.29681 4.14653 5.28707 4.09718 5.28707C4.04782 5.28707 3.99895 5.29681 3.95337 5.31574C3.90779 5.33467 3.86639 5.36241 3.83155 5.39737L1.84155 7.38862L1.13217 6.69799C1.09733 6.66303 1.05594 6.63529 1.01035 6.61637C0.964772 6.59744 0.915902 6.5877 0.866547 6.5877C0.817191 6.5877 0.768321 6.59744 0.72274 6.61637C0.677158 6.63529 0.63576 6.66303 0.600921 6.69799L0.110296 7.18831C0.0753358 7.22315 0.0475969 7.26454 0.0286699 7.31012C0.00974287 7.35571 0 7.40458 0 7.45393C0 7.50329 0.00974287 7.55216 0.0286699 7.59774C0.0475969 7.64332 0.0753358 7.68472 0.110296 7.71956L1.59373 9.20393C1.66792 9.27448 1.76637 9.31381 1.86874 9.31381C1.9711 9.31381 2.06956 9.27448 2.14374 9.20393L2.63436 8.71362L4.89061 6.45674C4.96064 6.38688 5.00023 6.29218 5.00076 6.19326C5.00129 6.09434 4.96271 5.99922 4.89343 5.92862L4.3628 5.39737ZM1.99999 10.8133C1.17217 10.8133 0.481546 11.4852 0.481546 12.3133C0.481546 13.1414 1.1728 13.8133 1.99999 13.8133C2.39781 13.8133 2.77934 13.6553 3.06065 13.374C3.34195 13.0927 3.49999 12.7111 3.49999 12.3133C3.49999 11.9155 3.34195 11.534 3.06065 11.2526C2.77934 10.9713 2.39781 10.8133 1.99999 10.8133ZM15.5 11.3133H6.49999C6.36738 11.3133 6.2402 11.366 6.14644 11.4598C6.05267 11.5535 5.99999 11.6807 5.99999 11.8133V12.8133C5.99999 12.9459 6.05267 13.0731 6.14644 13.1669C6.2402 13.2606 6.36738 13.3133 6.49999 13.3133H15.5C15.6326 13.3133 15.7598 13.2606 15.8536 13.1669C15.9473 13.0731 16 12.9459 16 12.8133V11.8133C16 11.6807 15.9473 11.5535 15.8536 11.4598C15.7598 11.366 15.6326 11.3133 15.5 11.3133ZM15.5 1.3133H6.49999C6.36738 1.3133 6.2402 1.36598 6.14644 1.45975C6.05267 1.55351 5.99999 1.68069 5.99999 1.8133V2.8133C5.99999 2.94591 6.05267 3.07309 6.14644 3.16686C6.2402 3.26062 6.36738 3.3133 6.49999 3.3133H15.5C15.6326 3.3133 15.7598 3.26062 15.8536 3.16686C15.9473 3.07309 16 2.94591 16 2.8133V1.8133C16 1.68069 15.9473 1.55351 15.8536 1.45975C15.7598 1.36598 15.6326 1.3133 15.5 1.3133ZM15.5 6.31331H6.49999C6.36738 6.31331 6.2402 6.36598 6.14644 6.45975C6.05267 6.55352 5.99999 6.6807 5.99999 6.81331V7.81331C5.99999 7.94592 6.05267 8.07309 6.14644 8.16686C6.2402 8.26063 6.36738 8.31331 6.49999 8.31331H15.5C15.6326 8.31331 15.7598 8.26063 15.8536 8.16686C15.9473 8.07309 16 7.94592 16 7.81331V6.81331C16 6.6807 15.9473 6.55352 15.8536 6.45975C15.7598 6.36598 15.6326 6.31331 15.5 6.31331Z" fill="#9D9D9D"/>
</svg>
