<svg width="25" height="25" viewBox="0 0 25 25" fill="none" xmlns="http://www.w3.org/2000/svg">
<path d="M15.6251 18.75C17.351 18.75 18.7501 17.3509 18.7501 15.625C18.7501 13.8991 17.351 12.5 15.6251 12.5C13.8992 12.5 12.5001 13.8991 12.5001 15.625C12.5001 17.3509 13.8992 18.75 15.6251 18.75Z" stroke="#9D9D9D" stroke-width="1.5" stroke-linecap="round" stroke-linejoin="round"/>
<path d="M13.5417 18.2292V22.9167L15.625 21.3542L17.7084 22.9167V18.2292" stroke="#9D9D9D" stroke-width="1.5" stroke-linecap="round" stroke-linejoin="round"/>
<path d="M10.4167 19.7917H5.20833C4.6558 19.7917 4.12589 19.5722 3.73519 19.1815C3.34449 18.7908 3.125 18.2609 3.125 17.7083V7.29167C3.125 6.14583 4.0625 5.20833 5.20833 5.20833H19.7917C20.3442 5.20833 20.8741 5.42783 21.2648 5.81853C21.6555 6.20923 21.875 6.73913 21.875 7.29167V17.7083C21.8746 18.0737 21.7782 18.4325 21.5954 18.7488C21.4125 19.0651 21.1497 19.3277 20.8333 19.5104" stroke="#9D9D9D" stroke-width="1.5" stroke-linecap="round" stroke-linejoin="round"/>
<path d="M6.25 9.375H18.75" stroke="#9D9D9D" stroke-width="1.5" stroke-linecap="round" stroke-linejoin="round"/>
<path d="M6.25 12.5H9.375" stroke="#9D9D9D" stroke-width="1.5" stroke-linecap="round" stroke-linejoin="round"/>
<path d="M6.25 15.625H8.33333" stroke="#9D9D9D" stroke-width="1.5" stroke-linecap="round" stroke-linejoin="round"/>
</svg>
