<svg width="21" height="21" viewBox="0 0 21 21" fill="none" xmlns="http://www.w3.org/2000/svg">
<path d="M6.27778 2.05556H3.63889C2.76444 2.05556 2.05556 2.76444 2.05556 3.63889V17.3611C2.05556 18.2356 2.76444 18.9444 3.63889 18.9444H6.27778V2.05556ZM7.33333 2.05556V18.9444H17.3611C18.2356 18.9444 18.9444 18.2356 18.9444 17.3611V3.63889C18.9444 2.76444 18.2356 2.05556 17.3611 2.05556H7.33333ZM1 3.63889C1 2.18147 2.18147 1 3.63889 1H17.3611C18.8185 1 20 2.18147 20 3.63889V17.3611C20 18.8185 18.8185 20 17.3611 20H3.63889C2.18147 20 1 18.8185 1 17.3611V3.63889ZM9.97222 6.27778C9.68074 6.27778 9.44444 6.04148 9.44444 5.75C9.44444 5.45852 9.68074 5.22222 9.97222 5.22222H16.3056C16.597 5.22222 16.8333 5.45852 16.8333 5.75C16.8333 6.04148 16.597 6.27778 16.3056 6.27778H9.97222ZM9.97222 8.38889C9.68074 8.38889 9.44444 8.15259 9.44444 7.86111C9.44444 7.56963 9.68074 7.33333 9.97222 7.33333H16.3056C16.597 7.33333 16.8333 7.56963 16.8333 7.86111C16.8333 8.15259 16.597 8.38889 16.3056 8.38889H9.97222ZM9.97222 10.5C9.68074 10.5 9.44444 10.2637 9.44444 9.97222C9.44444 9.68074 9.68074 9.44444 9.97222 9.44444H14.1944C14.4859 9.44444 14.7222 9.68074 14.7222 9.97222C14.7222 10.2637 14.4859 10.5 14.1944 10.5H9.97222ZM9.97222 13.6667C9.68074 13.6667 9.44444 13.4304 9.44444 13.1389C9.44444 12.8474 9.68074 12.6111 9.97222 12.6111H16.3056C16.597 12.6111 16.8333 12.8474 16.8333 13.1389C16.8333 13.4304 16.597 13.6667 16.3056 13.6667H9.97222ZM9.97222 15.7778C9.68074 15.7778 9.44444 15.5415 9.44444 15.25C9.44444 14.9585 9.68074 14.7222 9.97222 14.7222H14.1944C14.4859 14.7222 14.7222 14.9585 14.7222 15.25C14.7222 15.5415 14.4859 15.7778 14.1944 15.7778H9.97222Z" fill="#9D9D9D" stroke="#9D9D9D" stroke-width="0.25"/>
</svg>
