<svg width="24" height="21" viewBox="0 0 24 21" fill="none" xmlns="http://www.w3.org/2000/svg">
<path d="M20.2034 10.2378H22.8944C23.1347 10.2378 23.3534 10.3363 23.5123 10.4948C23.6721 10.6544 23.7713 10.8737 23.7713 11.114V18.4954C23.7713 18.7357 23.672 18.9549 23.5122 19.1145C23.3533 19.273 23.1345 19.3715 22.8944 19.3715H20.2034C19.9632 19.3715 19.7444 19.2731 19.5855 19.1145C19.4257 18.955 19.3264 18.7358 19.3264 18.4954V11.114C19.3264 10.8735 19.4256 10.6543 19.5854 10.4948C19.7443 10.3362 19.9631 10.2378 20.2034 10.2378ZM22.8605 11.1487H20.2373V18.4607H22.8605V11.1487Z" fill="#9D9D9D" stroke="#9D9D9D" stroke-width="0.25"/>
<path d="M5.20029 9.02043C4.95566 8.96443 4.7119 9.11736 4.6559 9.36199C4.59991 9.60664 4.75282 9.8504 4.99747 9.9064C5.43732 10.0086 6.52835 11.0841 7.15926 11.706C7.28731 11.8322 7.39798 11.9413 7.47898 12.0185C7.66073 12.1914 7.94828 12.1842 8.12119 12.0025C8.29412 11.8207 8.28695 11.5332 8.10518 11.3602C8.01963 11.2787 7.91602 11.1766 7.79615 11.0584C7.09833 10.3706 5.89165 9.18107 5.20029 9.02043Z" fill="#9D9D9D" stroke="#9D9D9D" stroke-width="0.25"/>
<path d="M3.5299 9.73141C3.3216 9.5919 3.03962 9.64767 2.90012 9.85595C2.76062 10.0642 2.81639 10.3462 3.02467 10.4857C3.12927 10.5556 3.20514 10.6028 3.28243 10.6509C3.48166 10.7748 3.69092 10.905 3.88005 11.0742C4.20232 11.3627 4.52602 11.6868 4.84127 12.0024C5.19524 12.3568 5.53885 12.7009 5.88609 12.9993C6.07668 13.1624 6.36344 13.1401 6.52652 12.9495C6.6896 12.7589 6.6673 12.4721 6.4767 12.309C6.1551 12.0326 5.82516 11.7022 5.48527 11.362C5.16754 11.0438 4.84126 10.7171 4.48493 10.3982C4.22748 10.1679 3.98943 10.0198 3.76277 9.8788C3.6728 9.82284 3.58464 9.76798 3.5299 9.73141Z" fill="#9D9D9D" stroke="#9D9D9D" stroke-width="0.25"/>
<path d="M18.4809 12.4033C17.7137 12.0115 16.7305 11.8501 15.7818 11.945C14.9052 12.0326 14.0696 12.3386 13.4806 12.8833V12.8851L13.4465 12.9166L13.4466 12.9167C13.2039 13.1443 13.0661 13.2734 12.477 13.2764V13.2765C11.6897 13.3252 10.9926 13.2746 10.3671 13.2291C9.06519 13.1345 8.12117 13.066 7.55537 14.166L6.74771 13.7497C7.58838 12.1153 8.78325 12.2021 10.4311 12.3218C11.0311 12.3654 11.6997 12.414 12.4236 12.3691H12.4503C12.6622 12.3694 12.7267 12.3402 12.7887 12.287C12.7973 12.2789 12.8197 12.2581 12.8651 12.2162L12.866 12.2172C13.6093 11.5302 14.6336 11.1471 15.6928 11.0412C16.8067 10.9299 17.9724 11.1251 18.8936 11.5957L18.4809 12.4033ZM12.8257 12.2549C12.8545 12.228 12.8427 12.2384 12.8245 12.2549H12.8257ZM13.9148 17.2262C13.0072 17.35 11.4068 17.5274 9.90237 17.4331C8.29628 17.3325 6.78698 16.915 6.20823 15.7976L6.20749 15.798L6.18412 15.753C6.08391 15.5604 6.01403 15.4261 5.94773 15.1476C5.88668 14.8907 5.44875 14.4481 4.88192 13.9661C3.96132 13.1832 2.74303 12.3614 2.09245 11.9442C2.09053 11.9467 2.08828 11.9492 2.08566 11.9519C2.02239 12.0162 1.96656 12.1091 1.93488 12.2188L1.93441 12.2186C1.91949 12.271 1.91089 12.3309 1.91089 12.3974C1.91089 13.4614 2.76342 14.4998 3.52796 15.4311C3.6581 15.5896 3.7859 15.7453 3.92407 15.9197C3.99317 16.007 4.00635 16.0243 4.01929 16.0412C4.06578 16.102 4.10982 16.1596 4.15717 16.2151L4.15704 16.2152C7.71845 20.3399 10.5944 19.4193 14.2462 18.2502C15.5639 17.8283 16.9772 17.3759 18.5512 17.0956L18.7078 17.9922C17.181 18.264 15.8059 18.7043 14.5238 19.1148C10.551 20.3866 7.42249 21.3882 3.46866 16.8076L3.46687 16.8058C3.39929 16.7265 3.34956 16.6614 3.29701 16.5927C3.25343 16.5357 3.21659 16.4871 3.21245 16.4819C3.10123 16.3415 2.96548 16.1761 2.82703 16.0075C1.96319 14.9553 1 13.7821 1 12.3974C1 12.2518 1.02306 12.1069 1.06316 11.9679V11.9662C1.13845 11.7054 1.2776 11.4782 1.43806 11.315C1.63449 11.1153 1.87721 10.9968 2.11104 10.9968C2.1732 10.9968 2.23841 11.0063 2.30619 11.0259L2.42181 11.0774C3.0357 11.4642 4.43289 12.3912 5.46899 13.2723C6.16859 13.8672 6.72164 14.4662 6.83366 14.9377C6.8739 15.1067 6.92232 15.1997 6.99176 15.3332L7.01514 15.3782V15.38C7.41067 16.145 8.63278 16.4427 9.95926 16.5258C11.388 16.6153 12.9224 16.4449 13.7939 16.326L13.9148 17.2262H13.9148Z" fill="#9D9D9D" stroke="#9D9D9D" stroke-width="0.25"/>
<path d="M11.1898 6.56728V4.86164C10.6573 4.70874 10.2668 4.47938 10.0179 4.17077C9.77048 3.86219 9.64536 3.48825 9.64536 3.04898C9.64536 2.60414 9.78577 2.23021 10.0666 1.92718C10.3487 1.62414 10.7227 1.45037 11.1898 1.40313V1H11.7791V1.40313C12.2115 1.45594 12.5548 1.6019 12.8106 1.84517C13.065 2.08844 13.2276 2.41372 13.2985 2.821L12.2685 2.95586C12.2059 2.63474 12.0433 2.41788 11.7791 2.30389V3.89553C12.4311 4.07208 12.8759 4.30144 13.1109 4.58223C13.3472 4.86304 13.4653 5.22308 13.4653 5.66372C13.4653 6.15443 13.3166 6.56868 13.0205 6.90507C12.723 7.24287 12.3088 7.44861 11.7791 7.52506V8.28683H11.1898V7.54453C10.7199 7.48752 10.3376 7.31236 10.0443 7.01905C9.75101 6.72715 9.56474 6.3129 9.48273 5.77771L10.5462 5.66372C10.5892 5.88058 10.6712 6.06825 10.7908 6.22533C10.9089 6.38239 11.0424 6.4964 11.1898 6.56728ZM11.1898 2.29139C11.0285 2.3456 10.902 2.43872 10.8061 2.56799C10.7116 2.69869 10.6643 2.84323 10.6643 3.00033C10.6643 3.14351 10.7074 3.27834 10.7936 3.40066C10.8811 3.52439 11.0132 3.62447 11.1898 3.70092V2.29139ZM11.7791 6.62428C11.9835 6.58676 12.1489 6.49222 12.2768 6.34209C12.4047 6.19058 12.4686 6.01404 12.4686 5.80968C12.4686 5.62758 12.4144 5.4719 12.3074 5.33984C12.2003 5.20778 12.0238 5.10631 11.7791 5.0368V6.62428Z" fill="#9D9D9D" stroke="#9D9D9D" stroke-width="0.25"/>
</svg>
