<svg width="20" height="19" viewBox="0 0 20 19" fill="none" xmlns="http://www.w3.org/2000/svg">
<path d="M16.238 8.31427H15.019V9.53331H16.238C16.7228 9.53385 17.1876 9.72667 17.5304 10.0695C17.8732 10.4123 18.0661 10.8771 18.0666 11.3619V13.8H19.2856V11.3619C19.2847 10.5539 18.9633 9.77926 18.392 9.20793C17.8206 8.63659 17.046 8.31521 16.238 8.31427Z" fill="#9D9D9D" stroke="#9D9D9D" stroke-width="0.25"/>
<path d="M15.019 2.21904C15.3806 2.21904 15.7342 2.32629 16.0349 2.52721C16.3356 2.72814 16.57 3.01372 16.7084 3.34785C16.8468 3.68198 16.883 4.04964 16.8124 4.40435C16.7419 4.75905 16.5677 5.08487 16.312 5.3406C16.0562 5.59633 15.7304 5.77049 15.3757 5.84104C15.021 5.9116 14.6534 5.87539 14.3192 5.73699C13.9851 5.59859 13.6995 5.36421 13.4986 5.06351C13.2977 4.7628 13.1904 4.40927 13.1904 4.04761C13.1904 3.56264 13.3831 3.09754 13.726 2.75462C14.0689 2.4117 14.534 2.21904 15.019 2.21904ZM15.019 1C14.4162 1 13.827 1.17874 13.3258 1.51361C12.8246 1.84849 12.434 2.32446 12.2034 2.88134C11.9727 3.43822 11.9123 4.05099 12.0299 4.64217C12.1475 5.23335 12.4378 5.77638 12.864 6.2026C13.2902 6.62881 13.8332 6.91907 14.4244 7.03666C15.0156 7.15425 15.6284 7.0939 16.1853 6.86323C16.7421 6.63257 17.2181 6.24195 17.553 5.74077C17.8879 5.23959 18.0666 4.65037 18.0666 4.04761C18.0666 3.23933 17.7455 2.46416 17.174 1.89262C16.6024 1.32109 15.8273 1 15.019 1Z" fill="#9D9D9D" stroke="#9D9D9D" stroke-width="0.25"/>
<path d="M14.4095 18.0667H13.1904V16.8477C13.1899 16.3629 12.9971 15.8981 12.6543 15.5553C12.3115 15.2124 11.8467 15.0196 11.3619 15.0191H8.92377C8.43897 15.0196 7.97417 15.2124 7.63137 15.5553C7.28856 15.8981 7.09574 16.3629 7.0952 16.8477V18.0667H5.87616V16.8477C5.87711 16.0397 6.1985 15.2651 6.76983 14.6937C7.34117 14.1224 8.11579 13.801 8.92377 13.8H11.3619C12.1698 13.801 12.9445 14.1224 13.5158 14.6937C14.0871 15.2651 14.4085 16.0397 14.4095 16.8477V18.0667Z" fill="#9D9D9D" stroke="#9D9D9D" stroke-width="0.25"/>
<path d="M10.1428 7.70488C10.5045 7.70488 10.858 7.81213 11.1587 8.01305C11.4594 8.21398 11.6938 8.49956 11.8322 8.83369C11.9706 9.16781 12.0068 9.53548 11.9363 9.89019C11.8657 10.2449 11.6915 10.5707 11.4358 10.8264C11.1801 11.0822 10.8543 11.2563 10.4996 11.3269C10.1449 11.3974 9.77719 11.3612 9.44306 11.2228C9.10894 11.0844 8.82336 10.8501 8.62243 10.5493C8.4215 10.2486 8.31426 9.89511 8.31426 9.53345C8.31426 9.04848 8.50691 8.58338 8.84983 8.24046C9.19276 7.89754 9.65786 7.70488 10.1428 7.70488ZM10.1428 6.48584C9.54007 6.48584 8.95084 6.66458 8.44967 6.99946C7.94849 7.33433 7.55787 7.8103 7.3272 8.36718C7.09654 8.92406 7.03618 9.53683 7.15378 10.128C7.27137 10.7192 7.56162 11.2622 7.98784 11.6884C8.41406 12.1147 8.95709 12.4049 9.54827 12.5225C10.1394 12.6401 10.7522 12.5797 11.3091 12.3491C11.866 12.1184 12.3419 11.7278 12.6768 11.2266C13.0117 10.7254 13.1904 10.1362 13.1904 9.53345C13.1904 8.72517 12.8694 7.95 12.2978 7.37846C11.7263 6.80693 10.9511 6.48584 10.1428 6.48584Z" fill="#9D9D9D" stroke="#9D9D9D" stroke-width="0.25"/>
<path d="M5.26665 8.31427H4.04761C3.23963 8.31522 2.46501 8.63661 1.89368 9.20795C1.32234 9.77928 1.00095 10.5539 1 11.3619V13.8H2.21904V11.3619C2.21958 10.8771 2.4124 10.4123 2.75521 10.0695C3.09801 9.72667 3.56281 9.53385 4.04761 9.53331H5.26665V8.31427Z" fill="#9D9D9D" stroke="#9D9D9D" stroke-width="0.25"/>
<path d="M5.26673 2.21904C5.62838 2.21904 5.98192 2.32629 6.28263 2.52721C6.58333 2.72814 6.8177 3.01372 6.9561 3.34785C7.0945 3.68198 7.13071 4.04964 7.06016 4.40435C6.9896 4.75905 6.81545 5.08487 6.55972 5.3406C6.30399 5.59633 5.97817 5.77049 5.62346 5.84104C5.26876 5.9116 4.90109 5.87539 4.56697 5.73699C4.23284 5.59859 3.94726 5.36421 3.74633 5.06351C3.54541 4.7628 3.43816 4.40927 3.43816 4.04761C3.43816 3.56264 3.63081 3.09754 3.97374 2.75462C4.31666 2.4117 4.78176 2.21904 5.26673 2.21904ZM5.26673 1C4.66397 1 4.07474 1.17874 3.57357 1.51361C3.07239 1.84849 2.68177 2.32446 2.4511 2.88134C2.22044 3.43822 2.16008 4.05099 2.27768 4.64217C2.39527 5.23335 2.68553 5.77638 3.11174 6.2026C3.53796 6.62881 4.08099 6.91907 4.67217 7.03666C5.26335 7.15425 5.87612 7.0939 6.433 6.86323C6.98988 6.63257 7.46585 6.24195 7.80072 5.74077C8.1356 5.23959 8.31434 4.65037 8.31434 4.04761C8.31434 3.23933 7.99325 2.46416 7.42171 1.89262C6.85018 1.32109 6.075 1 5.26673 1Z" fill="#9D9D9D" stroke="#9D9D9D" stroke-width="0.25"/>
</svg>
