<svg width="19" height="20" viewBox="0 0 19 20" fill="none" xmlns="http://www.w3.org/2000/svg">
<path d="M6.5346 8.90658C8.71795 8.90658 10.4879 7.13663 10.4879 4.95329C10.4879 2.76995 8.71795 1 6.5346 1C4.35126 1 2.58132 2.76995 2.58132 4.95329C2.58132 7.13663 4.35126 8.90658 6.5346 8.90658ZM6.5346 8.90658C8.1258 8.90658 9.51686 9.50701 10.5064 10.5065M6.5346 8.90658C3.37197 8.90658 1 11.2786 1 14.4412V18.3945H6.5346M18.3945 12.0692L16.0225 9.69724L11.2786 14.4412M14.0459 11.6739L16.4178 14.0459M8.11592 15.6272C8.11592 16.7183 9.00146 17.6038 10.0926 17.6038C11.1845 17.6038 12.0692 16.7183 12.0692 15.6272C12.0692 14.5353 11.1845 13.6505 10.0926 13.6505C9.00146 13.6505 8.11592 14.5353 8.11592 15.6272Z" stroke="#9D9D9D" stroke-width="1.5"/>
</svg>
