<svg width="17" height="17" viewBox="0 0 17 17" fill="none" xmlns="http://www.w3.org/2000/svg">
<path d="M15.625 16H1.375C1.15 16 1 15.85 1 15.625C1 15.4 1.15 15.25 1.375 15.25H15.625C15.85 15.25 16 15.4 16 15.625C16 15.85 15.85 16 15.625 16Z" fill="#9D9D9D" stroke="#9D9D9D" stroke-width="0.25"/>
<path d="M3.84998 16H1.97498C1.74998 16 1.59998 15.85 1.59998 15.625V12.55C1.59998 12.325 1.74998 12.175 1.97498 12.175H3.84998C4.07498 12.175 4.22498 12.325 4.22498 12.55V15.625C4.22498 15.85 4.07498 16 3.84998 16ZM2.34998 15.25H3.47498V12.925H2.34998V15.25Z" fill="#9D9D9D" stroke="#9D9D9D" stroke-width="0.25"/>
<path d="M7.59998 16H5.72498C5.49998 16 5.34998 15.85 5.34998 15.625V9.40002C5.34998 9.17502 5.49998 9.02502 5.72498 9.02502H7.59998C7.82498 9.02502 7.97498 9.17502 7.97498 9.40002V15.625C7.97498 15.85 7.74998 16 7.59998 16ZM6.09998 15.25H7.22498V9.77502H6.09998V15.25Z" fill="#9D9D9D" stroke="#9D9D9D" stroke-width="0.25"/>
<path d="M11.275 16H9.40002C9.17502 16 9.02502 15.85 9.02502 15.625V10.675C9.02502 10.45 9.17502 10.3 9.40002 10.3H11.275C11.5 10.3 11.65 10.45 11.65 10.675V15.625C11.65 15.85 11.5 16 11.275 16ZM9.77502 15.25H10.9V11.05H9.77502V15.25Z" fill="#9D9D9D" stroke="#9D9D9D" stroke-width="0.25"/>
<path d="M15.025 16H13.15C12.925 16 12.775 15.85 12.775 15.625V6.32501C12.775 6.10001 12.925 5.95001 13.15 5.95001H15.025C15.25 5.95001 15.4 6.10001 15.4 6.32501V15.625C15.4 15.85 15.25 16 15.025 16ZM13.525 15.25H14.65V6.70001H13.525V15.25Z" fill="#9D9D9D" stroke="#9D9D9D" stroke-width="0.25"/>
<path d="M2.94998 9.17498C2.42498 9.17498 1.97498 8.72498 1.97498 8.19998C1.97498 7.67498 2.42498 7.22498 2.94998 7.22498C3.47498 7.22498 3.92498 7.67498 3.92498 8.19998C3.92498 8.72498 3.47498 9.17498 2.94998 9.17498ZM2.94998 7.97498C2.79998 7.97498 2.72498 8.04998 2.72498 8.19998C2.72498 8.34998 2.79998 8.42498 2.94998 8.42498C3.09998 8.42498 3.17498 8.34998 3.17498 8.19998C3.17498 8.04998 3.02498 7.97498 2.94998 7.97498Z" fill="#9D9D9D" stroke="#9D9D9D" stroke-width="0.25"/>
<path d="M6.62502 6.10002C6.10002 6.10002 5.65002 5.65002 5.65002 5.12502C5.65002 4.60002 6.10002 4.15002 6.62502 4.15002C7.15002 4.15002 7.60002 4.60002 7.60002 5.12502C7.60002 5.65002 7.22502 6.10002 6.62502 6.10002ZM6.62502 4.82502C6.47502 4.82502 6.40002 4.90002 6.40002 5.05002C6.40002 5.20002 6.47502 5.27502 6.62502 5.27502C6.77502 5.27502 6.85002 5.20002 6.85002 5.05002C6.85002 4.90002 6.77502 4.82502 6.62502 4.82502Z" fill="#9D9D9D" stroke="#9D9D9D" stroke-width="0.25"/>
<path d="M10.375 7.29998C9.85002 7.29998 9.40002 6.84998 9.40002 6.32498C9.40002 5.79998 9.85002 5.34998 10.375 5.34998C10.9 5.34998 11.35 5.79998 11.35 6.32498C11.35 6.84998 10.9 7.29998 10.375 7.29998ZM10.375 6.09998C10.225 6.09998 10.15 6.17498 10.15 6.32498C10.15 6.47498 10.225 6.54998 10.375 6.54998C10.525 6.54998 10.6 6.47498 10.6 6.32498C10.6 6.17498 10.525 6.09998 10.375 6.09998Z" fill="#9D9D9D" stroke="#9D9D9D" stroke-width="0.25"/>
<path d="M14.05 3.025C13.525 3.025 13.075 2.575 13.075 2.05C13.075 1.525 13.525 1 14.05 1C14.575 1 15.025 1.45 15.025 1.975C15.025 2.5 14.65 3.025 14.05 3.025ZM14.05 1.75C13.9 1.75 13.825 1.825 13.825 1.975C13.825 2.125 13.9 2.2 14.05 2.2C14.2 2.2 14.275 2.125 14.275 1.975C14.275 1.825 14.2 1.75 14.05 1.75Z" fill="#9D9D9D" stroke="#9D9D9D" stroke-width="0.25"/>
<path d="M3.40002 8.2C3.32502 8.2 3.17502 8.125 3.10002 8.05C2.95002 7.9 2.95002 7.675 3.17502 7.525L5.87502 5.2C6.02502 5.05 6.25002 5.05 6.40002 5.275C6.55002 5.425 6.55002 5.65 6.32502 5.8L3.62502 8.125C3.62502 8.2 3.47502 8.2 3.40002 8.2Z" fill="#9D9D9D" stroke="#9D9D9D" stroke-width="0.25"/>
<path d="M9.77498 6.55001C9.69998 6.55001 9.69998 6.55001 9.62498 6.55001L6.99998 5.65001C6.84998 5.57501 6.77498 5.35001 6.84998 5.12501C6.92498 4.90001 7.14998 4.82501 7.29998 4.90001L9.92498 5.80001C10.15 5.87501 10.225 6.10001 10.15 6.25001C10.075 6.40001 9.92498 6.55001 9.77498 6.55001Z" fill="#9D9D9D" stroke="#9D9D9D" stroke-width="0.25"/>
<path d="M10.825 6.17501C10.75 6.17501 10.675 6.17501 10.6 6.10001C10.45 5.95001 10.45 5.72501 10.525 5.57501L13.375 2.20001C13.525 2.05001 13.75 2.05001 13.9 2.12501C14.05 2.27501 14.05 2.50001 13.975 2.65001L11.125 6.02501C10.975 6.17501 10.9 6.17501 10.825 6.17501Z" fill="#9D9D9D" stroke="#9D9D9D" stroke-width="0.25"/>
</svg>
