<svg width="20" height="21" viewBox="0 0 20 21" fill="none" xmlns="http://www.w3.org/2000/svg">
<path d="M18.0899 0.802686H1.44079C1.06303 0.798842 0.699178 0.945011 0.429065 1.20912C0.158952 1.47323 0.00464435 1.83371 0 2.21146V18.9278C0.00548426 19.305 0.160162 19.6647 0.430183 19.9281C0.700204 20.1915 1.06358 20.3372 1.44079 20.3334H18.0899C18.4677 20.3364 18.8313 20.1897 19.1013 19.9254C19.3712 19.6612 19.5256 19.3008 19.5307 18.923V2.20666C19.524 1.83002 19.3688 1.47126 19.099 1.20836C18.8293 0.94546 18.4666 0.799673 18.0899 0.802686Z" fill="#1877F2"/>
<path d="M18.73 9.84757C18.73 4.85221 14.6805 0.802612 9.68509 0.802612C4.68973 0.802612 0.640137 4.85214 0.640137 9.84757C0.640137 14.3621 3.94776 18.1041 8.27182 18.7826V12.4621H5.97525V9.84757H8.27182V7.85485C8.27182 5.58796 9.6222 4.3358 11.6882 4.3358C12.6778 4.3358 13.7129 4.51246 13.7129 4.51246V6.73837H12.5724C11.4487 6.73837 11.0984 7.4356 11.0984 8.15093V9.84757H13.6069L13.2059 12.4621H11.0984V18.7826C15.4224 18.1041 18.73 14.3622 18.73 9.84757Z" fill="#1877F2"/>
<path d="M13.2063 12.4621L13.6073 9.84756H11.0987V8.15092C11.0987 7.43552 11.4491 6.73835 12.5728 6.73835H13.7133V4.51244C13.7133 4.51244 12.6782 4.33578 11.6885 4.33578C9.62254 4.33578 8.27216 5.58795 8.27216 7.85484V9.84756H5.97559V12.4621H8.27216V18.7826C8.73968 18.8559 9.2122 18.8926 9.68543 18.8925C10.1587 18.8927 10.6312 18.8559 11.0987 18.7826V12.4621H13.2063Z" fill="white"/>
</svg>
