<svg width="16" height="20" viewBox="0 0 16 20" fill="none" xmlns="http://www.w3.org/2000/svg">
<path fill-rule="evenodd" clip-rule="evenodd" d="M9.586 0C10.0556 0.000114731 10.5101 0.165434 10.87 0.467L11 0.586L15.414 5C15.746 5.33202 15.9506 5.77028 15.992 6.238L16 6.414V18C16.0002 18.5046 15.8096 18.9906 15.4665 19.3605C15.1234 19.7305 14.6532 19.9572 14.15 19.995L14 20H2C1.49542 20.0002 1.00943 19.8096 0.639452 19.4665C0.269471 19.1234 0.0428434 18.6532 0.00500021 18.15L1.00268e-07 18V2C-0.000159579 1.49542 0.190406 1.00943 0.533497 0.639452C0.876588 0.269471 1.34684 0.0428433 1.85 0.00500011L2 0H9.586ZM8 2H2V18H14V8H9.5C9.12712 7.99998 8.76761 7.86108 8.49158 7.61038C8.21555 7.35968 8.0428 7.01516 8.007 6.644L8 6.5V2ZM8.988 9.848C9.22765 11.371 10.0241 12.7507 11.223 13.72C12.11 14.437 11.299 15.841 10.235 15.432C8.79642 14.8784 7.20358 14.8784 5.765 15.432C4.7 15.842 3.889 14.437 4.776 13.72C5.97498 12.7508 6.77144 11.371 7.011 9.848C7.189 8.721 8.811 8.722 8.988 9.848ZM7.998 12.152L7.31 13.348H8.69L7.998 12.152ZM10 2.414V6H13.586L10 2.414Z" fill="#1F393F"/>
</svg>
