<svg width="16" height="16" viewBox="0 0 16 16" fill="none" xmlns="http://www.w3.org/2000/svg">
<path d="M7.69931 0C3.4474 0 0 3.44864 0 7.69931C0 11.9525 3.4474 15.3986 7.69931 15.3986C11.9512 15.3986 15.3986 11.9525 15.3986 7.69931C15.3986 3.44864 11.9512 0 7.69931 0ZM7.69931 3.41502C8.41944 3.41502 9.00323 3.9988 9.00323 4.71893C9.00323 5.43907 8.41944 6.02285 7.69931 6.02285C6.97918 6.02285 6.39539 5.43907 6.39539 4.71893C6.39539 3.9988 6.97918 3.41502 7.69931 3.41502ZM9.43786 11.3006C9.43786 11.5063 9.27106 11.6731 9.06532 11.6731H6.3333C6.12756 11.6731 5.96076 11.5063 5.96076 11.3006V10.5555C5.96076 10.3498 6.12756 10.183 6.3333 10.183H6.70585V8.19604H6.3333C6.12756 8.19604 5.96076 8.02923 5.96076 7.82349V7.0784C5.96076 6.87266 6.12756 6.70585 6.3333 6.70585H8.32022C8.52596 6.70585 8.69277 6.87266 8.69277 7.0784V10.183H9.06532C9.27106 10.183 9.43786 10.3498 9.43786 10.5555V11.3006Z" fill="#00C08B"/>
</svg>
