<svg width="20" height="21" viewBox="0 0 20 21" fill="none" xmlns="http://www.w3.org/2000/svg">
<path d="M14.7081 0.802612H4.50247C2.01582 0.802612 0 2.81844 0 5.30508V15.5107C0 17.9973 2.01582 20.0131 4.50247 20.0131H14.7081C17.1947 20.0131 19.2105 17.9973 19.2105 15.5107V5.30508C19.2105 2.81844 17.1947 0.802612 14.7081 0.802612Z" fill="url(#paint0_radial_374_841)"/>
<path d="M14.7081 0.802612H4.50247C2.01582 0.802612 0 2.81844 0 5.30508V15.5107C0 17.9973 2.01582 20.0131 4.50247 20.0131H14.7081C17.1947 20.0131 19.2105 17.9973 19.2105 15.5107V5.30508C19.2105 2.81844 17.1947 0.802612 14.7081 0.802612Z" fill="url(#paint1_radial_374_841)"/>
<path d="M9.60586 2.90378C7.5679 2.90378 7.31208 2.91271 6.51169 2.9491C5.7128 2.98572 5.16748 3.11217 4.69037 3.29774C4.19675 3.4894 3.77809 3.74581 3.36101 4.16304C2.94356 4.5802 2.68715 4.99885 2.49489 5.49225C2.30879 5.96951 2.18219 6.51506 2.14625 7.31357C2.11045 8.11403 2.10107 8.36992 2.10107 10.408C2.10107 12.446 2.11008 12.701 2.1464 13.5014C2.18317 14.3003 2.30961 14.8456 2.49504 15.3227C2.68685 15.8163 2.94326 16.235 3.36049 16.6521C3.77749 17.0695 4.19615 17.3265 4.68939 17.5182C5.16688 17.7038 5.71228 17.8302 6.51102 17.8668C7.31148 17.9032 7.56707 17.9122 9.60496 17.9122C11.6432 17.9122 11.8981 17.9032 12.6985 17.8668C13.4974 17.8302 14.0433 17.7038 14.5208 17.5182C15.0142 17.3265 15.4323 17.0695 15.8492 16.6521C16.2667 16.235 16.523 15.8163 16.7153 15.3229C16.8998 14.8456 17.0265 14.3001 17.064 13.5015C17.0999 12.7011 17.1093 12.446 17.1093 10.408C17.1093 8.36992 17.0999 8.11418 17.064 7.31372C17.0265 6.51483 16.8998 5.96958 16.7153 5.49247C16.523 4.99885 16.2667 4.5802 15.8492 4.16304C15.4318 3.74566 15.0144 3.48925 14.5204 3.29782C14.042 3.11217 13.4964 2.98565 12.6975 2.9491C11.897 2.91271 11.6422 2.90378 9.60354 2.90378H9.60586ZM8.93267 4.25609C9.1325 4.25579 9.35545 4.25609 9.60586 4.25609C11.6095 4.25609 11.847 4.2633 12.6382 4.29924C13.3698 4.33271 13.767 4.45495 14.0315 4.55768C14.3817 4.69366 14.6314 4.85627 14.8939 5.11899C15.1565 5.38164 15.319 5.63175 15.4554 5.98196C15.5581 6.24611 15.6805 6.64323 15.7138 7.37488C15.7498 8.16596 15.7576 8.40354 15.7576 10.4062C15.7576 12.4089 15.7498 12.6466 15.7138 13.4376C15.6804 14.1693 15.5581 14.5664 15.4554 14.8306C15.3194 15.1808 15.1565 15.4302 14.8939 15.6927C14.6312 15.9553 14.3819 16.1178 14.0315 16.2539C13.7673 16.3571 13.3698 16.479 12.6382 16.5125C11.8471 16.5484 11.6095 16.5562 9.60586 16.5562C7.60211 16.5562 7.36461 16.5484 6.5736 16.5125C5.84195 16.4787 5.44483 16.3565 5.18009 16.2537C4.82994 16.1177 4.57976 15.9552 4.31711 15.6925C4.05447 15.4299 3.89193 15.1804 3.75558 14.83C3.65285 14.5658 3.53046 14.1687 3.49714 13.437C3.46119 12.6459 3.45399 12.4083 3.45399 10.4044C3.45399 8.40047 3.46119 8.16409 3.49714 7.373C3.53061 6.64135 3.65285 6.24423 3.75558 5.97971C3.89163 5.6295 4.05447 5.37938 4.31719 5.11674C4.57983 4.8541 4.82994 4.69148 5.18016 4.55521C5.44468 4.45203 5.84195 4.33008 6.5736 4.29647C7.26585 4.26517 7.53413 4.25579 8.93267 4.25422V4.25609ZM13.6116 5.50208C13.1144 5.50208 12.7111 5.90505 12.7111 6.40227C12.7111 6.89942 13.1144 7.30276 13.6116 7.30276C14.1087 7.30276 14.5121 6.89942 14.5121 6.40227C14.5121 5.90512 14.1087 5.50178 13.6116 5.50178V5.50208ZM9.60586 6.55423C7.4777 6.55423 5.7522 8.27972 5.7522 10.408C5.7522 12.5362 7.4777 14.2609 9.60586 14.2609C11.7341 14.2609 13.459 12.5362 13.459 10.408C13.459 8.2798 11.734 6.55423 9.60571 6.55423H9.60586ZM9.60586 7.90654C10.9873 7.90654 12.1073 9.02638 12.1073 10.408C12.1073 11.7894 10.9873 12.9094 9.60586 12.9094C8.22436 12.9094 7.10452 11.7894 7.10452 10.408C7.10452 9.02638 8.22436 7.90654 9.60586 7.90654Z" fill="white"/>
<defs>
<radialGradient id="paint0_radial_374_841" cx="0" cy="0" r="1" gradientUnits="userSpaceOnUse" gradientTransform="translate(5.1028 21.4927) rotate(-90) scale(19.0391 17.7078)">
<stop stop-color="#FFDD55"/>
<stop offset="0.1" stop-color="#FFDD55"/>
<stop offset="0.5" stop-color="#FF543E"/>
<stop offset="1" stop-color="#C837AB"/>
</radialGradient>
<radialGradient id="paint1_radial_374_841" cx="0" cy="0" r="1" gradientUnits="userSpaceOnUse" gradientTransform="translate(-3.21784 2.18645) rotate(78.681) scale(8.51056 35.0808)">
<stop stop-color="#3771C8"/>
<stop offset="0.128" stop-color="#3771C8"/>
<stop offset="1" stop-color="#6600FF" stop-opacity="0"/>
</radialGradient>
</defs>
</svg>
