<svg width="20" height="21" viewBox="0 0 20 21" fill="none" xmlns="http://www.w3.org/2000/svg">
<path d="M18.0899 0.802686H1.44079C1.06303 0.798842 0.699178 0.945011 0.429065 1.20912C0.158952 1.47323 0.00464435 1.83371 0 2.21146V18.9278C0.00548426 19.305 0.160162 19.6647 0.430183 19.9281C0.700204 20.1915 1.06358 20.3372 1.44079 20.3334H18.0899C18.4677 20.3364 18.8313 20.1897 19.1013 19.9254C19.3712 19.6612 19.5256 19.3008 19.5307 18.923V2.20666C19.524 1.83002 19.3688 1.47126 19.099 1.20836C18.8293 0.94546 18.4666 0.799673 18.0899 0.802686Z" fill="#0076B2"/>
<path d="M2.89117 8.12347H5.79036V17.4518H2.89117V8.12347ZM4.34157 3.48093C4.67409 3.48093 4.99914 3.57955 5.2756 3.76432C5.55206 3.9491 5.76751 4.21172 5.89469 4.51896C6.02187 4.8262 6.05506 5.16426 5.99007 5.49037C5.92508 5.81648 5.76483 6.11599 5.52959 6.351C5.29435 6.58602 4.99469 6.74599 4.66852 6.81067C4.34234 6.87534 4.00432 6.84183 3.6972 6.71436C3.39008 6.58689 3.12766 6.37119 2.94315 6.09455C2.75864 5.81792 2.66033 5.49277 2.66065 5.16025C2.66107 4.71472 2.83835 4.28758 3.15354 3.97269C3.46873 3.6578 3.89604 3.48093 4.34157 3.48093ZM7.60896 8.12347H10.3881V9.40417H10.4265C10.8139 8.67097 11.7584 7.89775 13.1688 7.89775C16.1048 7.89134 16.6491 9.8236 16.6491 12.329V17.4518H13.7499V12.9133C13.7499 11.8327 13.7307 10.4415 12.2435 10.4415C10.7563 10.4415 10.5033 11.6198 10.5033 12.8429V17.4518H7.60896V8.12347Z" fill="white"/>
</svg>
