<svg width="19" height="21" viewBox="0 0 19 21" fill="none" xmlns="http://www.w3.org/2000/svg">
<path d="M19 0V21H1.35714V18.3955H0V17.083H1.35714V14.4478H0V13.1353H1.35714V7.88525H0V6.57275H1.35714V3.94775H0V2.63525H1.35714V0H19ZM17.6429 1.3125H2.71429V19.6875H17.6429V1.3125ZM16.2857 5.25H9.5V3.9375H16.2857V5.25ZM16.2857 7.875H9.5V6.5625H16.2857V7.875ZM6.10714 17.0215C5.83147 17.0215 5.57347 16.9736 5.33315 16.8779C5.09282 16.7822 4.88077 16.6455 4.69699 16.4678C4.51321 16.29 4.37184 16.085 4.27288 15.8525C4.17392 15.6201 4.12091 15.3672 4.11384 15.0938C4.11384 14.8271 4.16332 14.5776 4.26228 14.3452C4.36124 14.1128 4.5026 13.9111 4.68638 13.7402C4.87016 13.5693 5.08222 13.4292 5.32254 13.3198C5.56287 13.2104 5.8244 13.1592 6.10714 13.166C6.38281 13.166 6.64081 13.2173 6.88114 13.3198C7.12147 13.4224 7.32998 13.5591 7.5067 13.73C7.68341 13.9009 7.82831 14.106 7.94141 14.3452C8.0545 14.5845 8.10751 14.834 8.10045 15.0938C8.10045 15.3604 8.04743 15.6099 7.94141 15.8423C7.83538 16.0747 7.69401 16.2798 7.5173 16.4575C7.34059 16.6353 7.12853 16.772 6.88114 16.8677C6.63374 16.9634 6.37574 17.0146 6.10714 17.0215ZM6.10714 14.3965C5.90216 14.3965 5.73251 14.4614 5.59821 14.5913C5.46391 14.7212 5.39323 14.8887 5.38616 15.0938C5.38616 15.292 5.45331 15.4561 5.58761 15.5859C5.72191 15.7158 5.89509 15.7842 6.10714 15.791C6.31213 15.791 6.48177 15.7261 6.61607 15.5962C6.75037 15.4663 6.82106 15.2988 6.82812 15.0938C6.82812 14.8955 6.76097 14.7314 6.62667 14.6016C6.49237 14.4717 6.3192 14.4033 6.10714 14.3965ZM6.10714 7.83398C5.83147 7.83398 5.57347 7.78613 5.33315 7.69043C5.09282 7.59473 4.88077 7.45801 4.69699 7.28027C4.51321 7.10254 4.37184 6.89746 4.27288 6.66504C4.17392 6.43262 4.12091 6.17969 4.11384 5.90625C4.11384 5.63965 4.16332 5.39014 4.26228 5.15771C4.36124 4.92529 4.5026 4.72363 4.68638 4.55273C4.87016 4.38184 5.08222 4.2417 5.32254 4.13232C5.56287 4.02295 5.8244 3.97168 6.10714 3.97852C6.38281 3.97852 6.64081 4.02979 6.88114 4.13232C7.12147 4.23486 7.32998 4.37158 7.5067 4.54248C7.68341 4.71338 7.82831 4.91846 7.94141 5.15771C8.0545 5.39697 8.10751 5.64648 8.10045 5.90625C8.10045 6.17285 8.04743 6.42236 7.94141 6.65479C7.83538 6.88721 7.69401 7.09229 7.5173 7.27002C7.34059 7.44775 7.12853 7.58447 6.88114 7.68018C6.63374 7.77588 6.37574 7.82715 6.10714 7.83398ZM6.10714 5.20898C5.90216 5.20898 5.73251 5.27393 5.59821 5.40381C5.46391 5.53369 5.39323 5.70117 5.38616 5.90625C5.38616 6.10449 5.45331 6.26855 5.58761 6.39844C5.72191 6.52832 5.89509 6.59668 6.10714 6.60352C6.31213 6.60352 6.48177 6.53857 6.61607 6.40869C6.75037 6.27881 6.82106 6.11133 6.82812 5.90625C6.82812 5.70801 6.76097 5.54395 6.62667 5.41406C6.49237 5.28418 6.3192 5.21582 6.10714 5.20898ZM16.2857 14.4375H9.5V13.125H16.2857V14.4375ZM16.2857 17.0625H9.5V15.75H16.2857V17.0625Z" fill="#1F393F"/>
</svg>
