<svg width="19" height="15" viewBox="0 0 19 15" fill="none" xmlns="http://www.w3.org/2000/svg">
<path d="M11.7135 15H11.514C11.1119 14.9606 10.733 14.7957 10.4323 14.5292C10.1317 14.2627 9.92488 13.9085 9.842 13.518L7.296 1.86877L4.674 7.87162C4.59984 8.0394 4.47757 8.18208 4.32226 8.28208C4.16696 8.38208 3.98541 8.43502 3.8 8.43439H0.95C0.698044 8.43439 0.456408 8.33557 0.278249 8.15967C0.100089 7.98377 0 7.7452 0 7.49644C0 7.24768 0.100089 7.00911 0.278249 6.83322C0.456408 6.65732 0.698044 6.5585 0.95 6.5585H3.173L5.5575 1.1278C5.71802 0.76337 5.9916 0.458686 6.33882 0.257676C6.68603 0.0566656 7.08893 -0.0302852 7.48943 0.00936041C7.88992 0.049006 8.26732 0.2132 8.5672 0.478267C8.86708 0.743335 9.07396 1.09558 9.158 1.48422L11.704 13.1241L14.326 7.14002C14.3973 6.96874 14.5183 6.82211 14.6738 6.71862C14.8294 6.61514 15.0124 6.55942 15.2 6.5585H18.05C18.302 6.5585 18.5436 6.65732 18.7218 6.83322C18.8999 7.00911 19 7.24768 19 7.49644C19 7.7452 18.8999 7.98377 18.7218 8.15967C18.5436 8.33557 18.302 8.43439 18.05 8.43439H15.827L13.4425 13.8651C13.2969 14.1995 13.0559 14.4848 12.7489 14.6863C12.4419 14.8879 12.0821 14.9968 11.7135 15Z" fill="#1F393F"/>
</svg>
