<svg width="19" height="14" viewBox="0 0 19 14" fill="none" xmlns="http://www.w3.org/2000/svg">
<path d="M4.08333 10.5002H9.91667C10.0714 10.5002 10.2197 10.4387 10.3291 10.3293C10.4385 10.2199 10.5 10.0715 10.5 9.91683C10.5 9.76212 10.4385 9.61375 10.3291 9.50435C10.2197 9.39495 10.0714 9.3335 9.91667 9.3335H4.08333C3.92862 9.3335 3.78025 9.39495 3.67085 9.50435C3.56146 9.61375 3.5 9.76212 3.5 9.91683C3.5 10.0715 3.56146 10.2199 3.67085 10.3293C3.78025 10.4387 3.92862 10.5002 4.08333 10.5002Z" fill="#1F393F"/>
<path d="M4.08333 5.25016H14.5833C14.738 5.25016 14.8864 5.1887 14.9958 5.07931C15.1052 4.96991 15.1667 4.82154 15.1667 4.66683C15.1667 4.51212 15.1052 4.36375 14.9958 4.25435C14.8864 4.14495 14.738 4.0835 14.5833 4.0835H4.08333C3.92862 4.0835 3.78025 4.14495 3.67085 4.25435C3.56146 4.36375 3.5 4.51212 3.5 4.66683C3.5 4.82154 3.56146 4.96991 3.67085 5.07931C3.78025 5.1887 3.92862 5.25016 4.08333 5.25016Z" fill="#1F393F"/>
<path d="M4.08333 7.58317H14.5833C14.738 7.58317 14.8864 7.52171 14.9958 7.41232C15.1052 7.30292 15.1667 7.15455 15.1667 6.99984C15.1667 6.84513 15.1052 6.69675 14.9958 6.58736C14.8864 6.47796 14.738 6.4165 14.5833 6.4165H4.08333C3.92862 6.4165 3.78025 6.47796 3.67085 6.58736C3.56146 6.69675 3.5 6.84513 3.5 6.99984C3.5 7.15455 3.56146 7.30292 3.67085 7.41232C3.78025 7.52171 3.92862 7.58317 4.08333 7.58317Z" fill="#1F393F"/>
<path d="M17.5 0H1.16667C0.857247 0 0.560501 0.122916 0.341709 0.341709C0.122916 0.560501 0 0.857247 0 1.16667V12.8333C0 13.1428 0.122916 13.4395 0.341709 13.6583C0.560501 13.8771 0.857247 14 1.16667 14H17.5C17.8094 14 18.1062 13.8771 18.325 13.6583C18.5438 13.4395 18.6667 13.1428 18.6667 12.8333V1.16667C18.6667 0.857247 18.5438 0.560501 18.325 0.341709C18.1062 0.122916 17.8094 0 17.5 0ZM17.5 12.8333H1.16667V1.16667H17.5V12.8333Z" fill="#1F393F"/>
</svg>
