<svg width="22" height="25" viewBox="0 0 22 25" fill="none" xmlns="http://www.w3.org/2000/svg">
<path d="M18.6978 9.88893V14.3334M12.9245 19.8889L14.8489 18.7778L16.7734 17.6667M9.07558 19.8889L7.15058 18.7778L5.22614 17.6667M3.30225 9.88893V14.3334M5.22614 6.5556L7.15114 5.44449L9.07558 4.33337M12.9245 4.33337L14.8489 5.44449L16.7734 6.5556" stroke="#00C08B" stroke-width="2" stroke-linecap="round" stroke-linejoin="round"/>
<path d="M11 23.2222C11.5894 23.2222 12.1546 22.9881 12.5713 22.5713C12.9881 22.1546 13.2222 21.5894 13.2222 21C13.2222 20.4106 12.9881 19.8454 12.5713 19.4287C12.1546 19.0119 11.5894 18.7778 11 18.7778C10.4106 18.7778 9.8454 19.0119 9.42865 19.4287C9.0119 19.8454 8.77778 20.4106 8.77778 21C8.77778 21.5894 9.0119 22.1546 9.42865 22.5713C9.8454 22.9881 10.4106 23.2222 11 23.2222ZM11 5.44444C11.5894 5.44444 12.1546 5.21032 12.5713 4.79357C12.9881 4.37682 13.2222 3.81159 13.2222 3.22222C13.2222 2.63285 12.9881 2.06762 12.5713 1.65087C12.1546 1.23413 11.5894 1 11 1C10.4106 1 9.8454 1.23413 9.42865 1.65087C9.0119 2.06762 8.77778 2.63285 8.77778 3.22222C8.77778 3.81159 9.0119 4.37682 9.42865 4.79357C9.8454 5.21032 10.4106 5.44444 11 5.44444ZM11 14.3333C11.5894 14.3333 12.1546 14.0992 12.5713 13.6825C12.9881 13.2657 13.2222 12.7005 13.2222 12.1111C13.2222 11.5217 12.9881 10.9565 12.5713 10.5398C12.1546 10.123 11.5894 9.88889 11 9.88889C10.4106 9.88889 9.8454 10.123 9.42865 10.5398C9.0119 10.9565 8.77778 11.5217 8.77778 12.1111C8.77778 12.7005 9.0119 13.2657 9.42865 13.6825C9.8454 14.0992 10.4106 14.3333 11 14.3333ZM18.7778 9.88889C19.3671 9.88889 19.9324 9.65476 20.3491 9.23801C20.7659 8.82127 21 8.25604 21 7.66667C21 7.0773 20.7659 6.51207 20.3491 6.09532C19.9324 5.67857 19.3671 5.44444 18.7778 5.44444C18.1884 5.44444 17.6232 5.67857 17.2064 6.09532C16.7897 6.51207 16.5556 7.0773 16.5556 7.66667C16.5556 8.25604 16.7897 8.82127 17.2064 9.23801C17.6232 9.65476 18.1884 9.88889 18.7778 9.88889ZM18.7778 18.7778C19.3671 18.7778 19.9324 18.5436 20.3491 18.1269C20.7659 17.7102 21 17.1449 21 16.5556C21 15.9662 20.7659 15.401 20.3491 14.9842C19.9324 14.5675 19.3671 14.3333 18.7778 14.3333C18.1884 14.3333 17.6232 14.5675 17.2064 14.9842C16.7897 15.401 16.5556 15.9662 16.5556 16.5556C16.5556 17.1449 16.7897 17.7102 17.2064 18.1269C17.6232 18.5436 18.1884 18.7778 18.7778 18.7778ZM3.22222 9.88889C3.81159 9.88889 4.37682 9.65476 4.79357 9.23801C5.21032 8.82127 5.44444 8.25604 5.44444 7.66667C5.44444 7.0773 5.21032 6.51207 4.79357 6.09532C4.37682 5.67857 3.81159 5.44444 3.22222 5.44444C2.63285 5.44444 2.06762 5.67857 1.65087 6.09532C1.23413 6.51207 1 7.0773 1 7.66667C1 8.25604 1.23413 8.82127 1.65087 9.23801C2.06762 9.65476 2.63285 9.88889 3.22222 9.88889ZM3.22222 18.7778C3.81159 18.7778 4.37682 18.5436 4.79357 18.1269C5.21032 17.7102 5.44444 17.1449 5.44444 16.5556C5.44444 15.9662 5.21032 15.401 4.79357 14.9842C4.37682 14.5675 3.81159 14.3333 3.22222 14.3333C2.63285 14.3333 2.06762 14.5675 1.65087 14.9842C1.23413 15.401 1 15.9662 1 16.5556C1 17.1449 1.23413 17.7102 1.65087 18.1269C2.06762 18.5436 2.63285 18.7778 3.22222 18.7778Z" stroke="#00C08B" stroke-width="2" stroke-linecap="round" stroke-linejoin="round"/>
</svg>
