<svg width="26" height="22" viewBox="0 0 26 22" fill="none" xmlns="http://www.w3.org/2000/svg">
<path d="M7.83297 0.386079C8.0889 0.633606 8.23265 0.96914 8.23265 1.31898C8.23265 1.66882 8.0889 2.00435 7.83297 2.25188L4.18864 5.77225C3.93239 6.01947 3.58504 6.15833 3.22289 6.15833C2.86073 6.15833 2.51338 6.01947 2.25714 5.77225L0.434967 4.01206C0.193566 3.76181 0.0621452 3.43081 0.068392 3.0888C0.0746388 2.7468 0.218065 2.42049 0.468455 2.17861C0.718845 1.93674 1.05665 1.79819 1.4107 1.79216C1.76475 1.78613 2.1074 1.91308 2.36647 2.14627L3.22289 2.97355L5.90147 0.386079C6.15772 0.13886 6.50507 0 6.86722 0C7.22938 0 7.57673 0.13886 7.83297 0.386079ZM9.60048 3.51921C9.60048 3.16909 9.74446 2.8333 10.0008 2.58573C10.257 2.33816 10.6047 2.19907 10.9671 2.19907H24.6334C24.9958 2.19907 25.3434 2.33816 25.5997 2.58573C25.856 2.8333 26 3.16909 26 3.51921C26 3.86933 25.856 4.20512 25.5997 4.45269C25.3434 4.70026 24.9958 4.83935 24.6334 4.83935H10.9671C10.6047 4.83935 10.257 4.70026 10.0008 4.45269C9.74446 4.20512 9.60048 3.86933 9.60048 3.51921ZM9.60048 11C9.60048 10.6499 9.74446 10.3141 10.0008 10.0665C10.257 9.81895 10.6047 9.67986 10.9671 9.67986H24.6334C24.9958 9.67986 25.3434 9.81895 25.5997 10.0665C25.856 10.3141 26 10.6499 26 11C26 11.3501 25.856 11.6859 25.5997 11.9335C25.3434 12.1811 24.9958 12.3201 24.6334 12.3201H10.9671C10.6047 12.3201 10.257 12.1811 10.0008 11.9335C9.74446 11.6859 9.60048 11.3501 9.60048 11ZM7.83297 16.2278C8.0889 16.4753 8.23265 16.8108 8.23265 17.1607C8.23265 17.5105 8.0889 17.846 7.83297 18.0935L4.18864 21.6139C3.93239 21.8611 3.58504 22 3.22289 22C2.86073 22 2.51338 21.8611 2.25714 21.6139L0.434967 19.8537C0.300697 19.7329 0.193003 19.5871 0.118309 19.4252C0.0436142 19.2633 0.00345029 19.0884 0.000212686 18.9112C-0.00302492 18.7339 0.0307301 18.5579 0.0994642 18.3935C0.168198 18.2291 0.270503 18.0798 0.400276 17.9544C0.530048 17.8291 0.68463 17.7302 0.854799 17.6638C1.02497 17.5975 1.20724 17.5648 1.39074 17.568C1.57423 17.5711 1.7552 17.6099 1.92284 17.6821C2.09048 17.7542 2.24135 17.8582 2.36647 17.9879L3.22289 18.8152L5.90147 16.2278C6.15772 15.9805 6.50507 15.8417 6.86722 15.8417C7.22938 15.8417 7.57673 15.9805 7.83297 16.2278ZM9.60048 18.4808C9.60048 18.1307 9.74446 17.7949 10.0008 17.5473C10.257 17.2997 10.6047 17.1607 10.9671 17.1607H24.6334C24.9958 17.1607 25.3434 17.2997 25.5997 17.5473C25.856 17.7949 26 18.1307 26 18.4808C26 18.8309 25.856 19.1667 25.5997 19.4143C25.3434 19.6618 24.9958 19.8009 24.6334 19.8009H10.9671C10.6047 19.8009 10.257 19.6618 10.0008 19.4143C9.74446 19.1667 9.60048 18.8309 9.60048 18.4808Z" fill="#00C08B"/>
</svg>
