<svg width="20" height="20" viewBox="0 0 20 20" fill="none" xmlns="http://www.w3.org/2000/svg">
<path d="M6.98673 3.0774C7.24206 3.1794 7.41006 3.42673 7.41006 3.70207V8.70407C7.41006 8.88265 7.33912 9.05391 7.21285 9.18019C7.08657 9.30646 6.91531 9.3774 6.73673 9.3774C6.55815 9.3774 6.38689 9.30646 6.26061 9.18019C6.13434 9.05391 6.0634 8.88265 6.0634 8.70407V5.4734C6.06327 5.4665 6.06114 5.45979 6.05725 5.4541C6.05335 5.4484 6.04788 5.44397 6.0415 5.44135C6.03512 5.43872 6.02812 5.43803 6.02134 5.43934C6.01457 5.44065 6.00833 5.44392 6.0034 5.44873C5.94309 5.51526 5.87009 5.56904 5.78868 5.60693C5.70728 5.64482 5.61912 5.66605 5.5294 5.66936C5.43967 5.67267 5.35019 5.658 5.26621 5.62622C5.18223 5.59444 5.10546 5.54618 5.04042 5.48429C4.97537 5.4224 4.92335 5.34812 4.88744 5.26583C4.85152 5.18354 4.83242 5.0949 4.83127 5.00512C4.83012 4.91533 4.84694 4.82623 4.88073 4.74305C4.91453 4.65986 4.96462 4.58427 5.02806 4.52073L6.2494 3.23807C6.34219 3.14071 6.46202 3.07337 6.59344 3.04473C6.72486 3.0161 6.86184 3.02748 6.98673 3.0774ZM13.2201 4.37607C13.1007 4.38207 12.9127 4.44073 12.7007 4.69273C12.6441 4.76125 12.5744 4.81787 12.4958 4.85933C12.4172 4.90078 12.3311 4.92626 12.2426 4.93428C12.154 4.94231 12.0648 4.93272 11.98 4.90608C11.8952 4.87944 11.8165 4.83626 11.7484 4.77905C11.6804 4.72184 11.6244 4.65172 11.5836 4.57274C11.5428 4.49376 11.518 4.40748 11.5107 4.31889C11.5034 4.23029 11.5138 4.14113 11.5411 4.05654C11.5685 3.97196 11.6123 3.89363 11.6701 3.82607C12.0847 3.33273 12.6047 3.05873 13.1527 3.0314C13.408 3.0198 13.6629 3.06187 13.901 3.15488C14.139 3.24789 14.3549 3.38979 14.5347 3.5714C15.2681 4.30273 15.3587 5.55073 14.4187 6.56007C14.1454 6.8534 13.8141 7.20007 13.4787 7.55007V7.55073L13.1541 7.8894C13.1427 7.90117 13.135 7.91603 13.132 7.93214C13.129 7.94825 13.1308 7.96488 13.1372 7.97997C13.1436 7.99505 13.1543 8.00791 13.168 8.01694C13.1816 8.02597 13.1977 8.03077 13.2141 8.03073H14.5974C14.776 8.03073 14.9472 8.10168 15.0735 8.22795C15.1998 8.35422 15.2707 8.52549 15.2707 8.70407C15.2707 8.88265 15.1998 9.05391 15.0735 9.18019C14.9472 9.30646 14.776 9.3774 14.5974 9.3774H11.8974C11.1734 9.3774 10.7401 8.5134 11.2581 7.94273C11.5861 7.5814 12.0721 7.07273 12.5361 6.5874C12.8694 6.23873 13.1907 5.90273 13.4334 5.64207C13.6901 5.36673 13.7567 5.1254 13.7574 4.95607C13.7586 4.87627 13.7439 4.79703 13.7141 4.72297C13.6843 4.64892 13.6401 4.58153 13.5841 4.52473C13.5372 4.47576 13.4806 4.43721 13.4179 4.4116C13.3552 4.38598 13.2878 4.37388 13.2201 4.37607ZM6.01273 12.3201C6.05431 12.2332 6.11621 12.1577 6.1932 12.0999C6.27018 12.0421 6.35998 12.0037 6.45496 11.988C6.54995 11.9722 6.64733 11.9797 6.73883 12.0096C6.83034 12.0395 6.91327 12.0911 6.98061 12.1599C7.04794 12.2287 7.09768 12.3128 7.12561 12.4049C7.15355 12.497 7.15885 12.5946 7.14106 12.6892C7.12328 12.7838 7.08294 12.8727 7.02346 12.9484C6.96398 13.0241 6.88712 13.0844 6.7994 13.1241C6.79157 13.1275 6.78324 13.1298 6.77473 13.1307C6.61364 13.1477 6.46405 13.2221 6.3534 13.3404C6.24275 13.4587 6.17845 13.6129 6.17229 13.7748C6.16614 13.9366 6.21853 14.0953 6.31988 14.2217C6.42122 14.348 6.56472 14.4336 6.72406 14.4627C6.82312 14.4922 6.91288 14.5468 6.98463 14.6211C7.05637 14.6955 7.10766 14.7872 7.13352 14.8873C7.15937 14.9873 7.15892 15.0924 7.13219 15.1922C7.10546 15.292 7.05337 15.3833 6.98098 15.457C6.90859 15.5308 6.81835 15.5846 6.71904 15.6132C6.61972 15.6417 6.5147 15.6442 6.41418 15.6202C6.31365 15.5962 6.22103 15.5466 6.14532 15.4763C6.0696 15.406 6.01336 15.3172 5.98206 15.2187C5.95578 15.1339 5.91296 15.055 5.85607 14.9868C5.79918 14.9185 5.72935 14.8622 5.65059 14.8211C5.57184 14.7799 5.48572 14.7548 5.39721 14.7471C5.30869 14.7394 5.21953 14.7493 5.13485 14.7762C5.05018 14.8031 4.97167 14.8466 4.90385 14.904C4.83604 14.9614 4.78025 15.0316 4.73971 15.1107C4.69917 15.1897 4.67467 15.276 4.66764 15.3646C4.66061 15.4532 4.67117 15.5423 4.69873 15.6267C4.78468 15.8968 4.92861 16.1448 5.12043 16.3534C5.31225 16.562 5.54734 16.7262 5.80925 16.8345C6.07115 16.9428 6.35356 16.9925 6.6367 16.9802C6.91983 16.968 7.19687 16.894 7.44843 16.7634C7.69998 16.6329 7.91998 16.449 8.09302 16.2245C8.26607 16.0001 8.38799 15.7406 8.45025 15.4641C8.5125 15.1876 8.5136 14.9009 8.45346 14.6239C8.39332 14.347 8.27339 14.0865 8.10206 13.8607C8.09038 13.8454 8.08406 13.8267 8.08406 13.8074C8.08406 13.7881 8.09038 13.7694 8.10206 13.7541C8.26691 13.5375 8.38448 13.2888 8.4472 13.024C8.50991 12.7592 8.51636 12.4842 8.46613 12.2167C8.41591 11.9492 8.31012 11.6953 8.15561 11.4712C8.0011 11.2472 7.80131 11.0581 7.56914 10.9161C7.33697 10.7741 7.0776 10.6825 6.80778 10.647C6.53796 10.6115 6.2637 10.633 6.00272 10.7102C5.74175 10.7873 5.49986 10.9184 5.2927 11.0949C5.08554 11.2714 4.91771 11.4893 4.80006 11.7347C4.76167 11.8144 4.73935 11.9009 4.73437 11.9891C4.72939 12.0774 4.74185 12.1659 4.77104 12.2493C4.82999 12.4179 4.9535 12.5562 5.1144 12.6337C5.27529 12.7113 5.4604 12.7217 5.629 12.6628C5.71248 12.6336 5.78939 12.5882 5.85534 12.5293C5.9213 12.4704 5.97501 12.3991 6.0134 12.3194L6.01273 12.3201ZM12.9927 11.5061C13.036 11.3328 13.0088 11.1494 12.9169 10.9963C12.825 10.8431 12.676 10.7327 12.5027 10.6894C12.3295 10.6461 12.1461 10.6734 11.9929 10.7653C11.8398 10.8572 11.7294 11.0061 11.6861 11.1794L10.9801 14.0094C10.9552 14.1087 10.9534 14.2123 10.9746 14.3124C10.9958 14.4125 11.0396 14.5065 11.1026 14.5871C11.1656 14.6678 11.2461 14.733 11.3381 14.7779C11.4301 14.8228 11.5311 14.8461 11.6334 14.8461H13.1427C13.1887 14.8461 13.2261 14.8834 13.2261 14.9294V16.2981C13.2261 16.4766 13.297 16.6479 13.4233 16.7742C13.5496 16.9005 13.7208 16.9714 13.8994 16.9714C14.078 16.9714 14.2492 16.9005 14.3755 16.7742C14.5018 16.6479 14.5727 16.4766 14.5727 16.2981V14.9001C14.5727 14.8601 14.6007 14.8267 14.6387 14.8154C14.7757 14.7726 14.8954 14.6872 14.9804 14.5716C15.0653 14.4559 15.1112 14.3162 15.1112 14.1727C15.1112 14.0293 15.0653 13.8895 14.9804 13.7739C14.8954 13.6583 14.7757 13.5729 14.6387 13.5301C14.6199 13.5249 14.6033 13.5138 14.5913 13.4984C14.5792 13.4831 14.5725 13.4642 14.5721 13.4447V13.0741C14.5666 12.8992 14.4932 12.7334 14.3676 12.6117C14.242 12.49 14.074 12.4219 13.8991 12.4219C13.7242 12.4219 13.5561 12.49 13.4305 12.6117C13.3049 12.7334 13.2316 12.8992 13.2261 13.0741V13.4161C13.2261 13.4382 13.2173 13.4594 13.2017 13.475C13.186 13.4906 13.1648 13.4994 13.1427 13.4994H12.6021C12.5894 13.4994 12.577 13.4965 12.5656 13.4909C12.5543 13.4854 12.5444 13.4773 12.5366 13.4673C12.5288 13.4574 12.5234 13.4458 12.5208 13.4335C12.5182 13.4211 12.5184 13.4083 12.5214 13.3961L12.9927 11.5061Z" fill="#00C08B"/>
<path d="M3.33333 0C2.89559 0 2.46214 0.0862192 2.05772 0.253735C1.6533 0.421251 1.28584 0.666782 0.976311 0.976311C0.351189 1.60143 0 2.44928 0 3.33333V16.6667C0 17.5507 0.351189 18.3986 0.976311 19.0237C1.28584 19.3332 1.6533 19.5788 2.05772 19.7463C2.46214 19.9138 2.89559 20 3.33333 20H16.6667C17.5507 20 18.3986 19.6488 19.0237 19.0237C19.6488 18.3986 20 17.5507 20 16.6667V3.33333C20 2.89559 19.9138 2.46214 19.7463 2.05772C19.5788 1.6533 19.3332 1.28584 19.0237 0.976311C18.7142 0.666782 18.3467 0.421251 17.9423 0.253735C17.5379 0.0862192 17.1044 0 16.6667 0H3.33333ZM1.33333 3.33333C1.33333 2.8029 1.54405 2.29419 1.91912 1.91912C2.29419 1.54405 2.8029 1.33333 3.33333 1.33333H16.6667C17.1971 1.33333 17.7058 1.54405 18.0809 1.91912C18.456 2.29419 18.6667 2.8029 18.6667 3.33333V16.6667C18.6667 17.1971 18.456 17.7058 18.0809 18.0809C17.7058 18.456 17.1971 18.6667 16.6667 18.6667H3.33333C2.8029 18.6667 2.29419 18.456 1.91912 18.0809C1.54405 17.7058 1.33333 17.1971 1.33333 16.6667V3.33333Z" fill="#00C08B"/>
</svg>
