<svg width="21" height="21" viewBox="0 0 21 21" fill="none" xmlns="http://www.w3.org/2000/svg">
<path d="M2.22479 2.067H6.86511L8.36055 5.80621L5.95771 7.40813C5.81621 7.50254 5.7002 7.63042 5.61998 7.78042C5.53975 7.93042 5.49779 8.0979 5.49781 8.26801C5.50091 8.36516 5.49781 8.26904 5.49781 8.26904V8.29074C5.49843 8.33696 5.50049 8.38315 5.50401 8.42923C5.51022 8.51398 5.52055 8.6287 5.54019 8.77029C5.58049 9.04933 5.658 9.4338 5.80889 9.88647C6.11273 10.796 6.70802 11.9731 7.86758 13.1327C9.02714 14.2923 10.2043 14.8876 11.1127 15.1914C11.5664 15.3423 11.9498 15.4188 12.2309 15.4601C12.3896 15.4823 12.5493 15.4961 12.7094 15.5015L12.7229 15.5025H12.7311C12.7311 15.5025 12.8469 15.4963 12.7322 15.5025C12.924 15.5024 13.1121 15.4489 13.2753 15.348C13.4385 15.247 13.5703 15.1026 13.6561 14.931L14.3485 13.5461L18.933 14.3109V18.7756C16.7514 19.0908 10.8585 19.4019 6.22848 14.7718C1.5985 10.1417 1.90854 4.24769 2.22479 2.067ZM7.64022 8.77029L9.50771 7.52595C9.90224 7.26279 10.1943 6.87197 10.3348 6.41904C10.4754 5.9661 10.4559 5.47861 10.2797 5.03832L8.78428 1.29911C8.63082 0.915584 8.36596 0.586837 8.02388 0.355278C7.6818 0.12372 7.27819 -2.7691e-05 6.86511 4.64788e-09H2.17104C1.23161 4.64788e-09 0.347987 0.652139 0.193999 1.67117C-0.157384 3.98828 -0.633818 10.8321 4.76714 16.2332C10.1681 21.6343 17.0118 21.1568 19.3289 20.8064C20.3479 20.6514 21 19.7688 21 18.8294V14.3109C21.0001 13.8216 20.8265 13.3481 20.5103 12.9748C20.1941 12.6014 19.7557 12.3523 19.2731 12.2718L14.6885 11.508C14.2525 11.4352 13.8046 11.5042 13.4107 11.7047C13.0167 11.9052 12.6974 12.2268 12.4996 12.6221L12.1421 13.3384C12.0156 13.3072 11.8904 13.271 11.7669 13.2298C11.1261 13.0169 10.2363 12.5787 9.32892 11.6713C8.42153 10.7639 7.98333 9.87407 7.77043 9.23226C7.7196 9.08055 7.67648 8.92636 7.64125 8.77029H7.64022Z" fill="#00C08B"/>
</svg>
