<svg width="32" height="26" viewBox="0 0 32 26" fill="none" xmlns="http://www.w3.org/2000/svg">
<path d="M1 17C0.447715 17 0 17.4477 0 18C0 18.5523 0.447715 19 1 19V17ZM31.7071 18.7071C32.0976 18.3166 32.0976 17.6834 31.7071 17.2929L25.3431 10.9289C24.9526 10.5384 24.3195 10.5384 23.9289 10.9289C23.5384 11.3195 23.5384 11.9526 23.9289 12.3431L29.5858 18L23.9289 23.6569C23.5384 24.0474 23.5384 24.6805 23.9289 25.0711C24.3195 25.4616 24.9526 25.4616 25.3431 25.0711L31.7071 18.7071ZM1 19H31V17H1V19Z" fill="#00C08B"/>
<path d="M2 4L31 4" stroke="#00C08B" stroke-linecap="round"/>
<circle cx="4" cy="4" r="4" fill="#00C08B"/>
<circle cx="16" cy="4" r="4" fill="#00C08B"/>
<circle cx="28" cy="4" r="4" fill="#00C08B"/>
</svg>
