<svg width="23" height="21" viewBox="0 0 23 21" fill="none" xmlns="http://www.w3.org/2000/svg">
<path d="M2.15855 3.0356C2.15855 2.46387 2.38567 1.91555 2.78995 1.51128C3.19423 1.107 3.74254 0.879883 4.31427 0.879883H18.6857C19.2575 0.879883 19.8058 1.107 20.2101 1.51128C20.6143 1.91555 20.8414 2.46387 20.8414 3.0356V8.15615C21.4591 8.31495 22.0064 8.67464 22.3971 9.17861C22.7879 9.68257 23 10.3022 23 10.9399C23 11.5776 22.7879 12.1972 22.3971 12.7012C22.0064 13.2052 21.4591 13.5649 20.8414 13.7237V18.8442C20.8414 19.4159 20.6143 19.9643 20.2101 20.3685C19.8058 20.7728 19.2575 20.9999 18.6857 20.9999H4.31427C3.74254 20.9999 3.19423 20.7728 2.78995 20.3685C2.38567 19.9643 2.15855 19.4159 2.15855 18.8442V13.7237C1.54092 13.5649 0.99364 13.2052 0.602861 12.7012C0.212083 12.1972 0 11.5776 0 10.9399C0 10.3022 0.212083 9.68257 0.602861 9.17861C0.99364 8.67464 1.54092 8.31495 2.15855 8.15615V3.0356ZM3.5957 8.15615C4.21333 8.31495 4.76061 8.67464 5.15139 9.17861C5.54217 9.68257 5.75425 10.3022 5.75425 10.9399C5.75425 11.5776 5.54217 12.1972 5.15139 12.7012C4.76061 13.2052 4.21333 13.5649 3.5957 13.7237V18.8442C3.5957 19.0348 3.67141 19.2176 3.80616 19.3523C3.94092 19.4871 4.12369 19.5628 4.31427 19.5628H18.6857C18.8763 19.5628 19.0591 19.4871 19.1938 19.3523C19.3286 19.2176 19.4043 19.0348 19.4043 18.8442V13.7237C18.7867 13.5649 18.2394 13.2052 17.8486 12.7012C17.4578 12.1972 17.2457 11.5776 17.2457 10.9399C17.2457 10.3022 17.4578 9.68257 17.8486 9.17861C18.2394 8.67464 18.7867 8.31495 19.4043 8.15615V3.0356C19.4043 2.84502 19.3286 2.66225 19.1938 2.52749C19.0591 2.39274 18.8763 2.31703 18.6857 2.31703H4.31427C4.12369 2.31703 3.94092 2.39274 3.80616 2.52749C3.67141 2.66225 3.5957 2.84502 3.5957 3.0356V8.15615ZM2.87713 9.50276C2.49597 9.50276 2.13043 9.65417 1.86091 9.92369C1.59139 10.1932 1.43998 10.5587 1.43998 10.9399C1.43998 11.3211 1.59139 11.6866 1.86091 11.9561C2.13043 12.2256 2.49597 12.377 2.87713 12.377C3.25828 12.377 3.62383 12.2256 3.89334 11.9561C4.16286 11.6866 4.31427 11.3211 4.31427 10.9399C4.31427 10.5587 4.16286 10.1932 3.89334 9.92369C3.62383 9.65417 3.25828 9.50276 2.87713 9.50276ZM20.1229 9.50276C19.7417 9.50276 19.3762 9.65417 19.1067 9.92369C18.8371 10.1932 18.6857 10.5587 18.6857 10.9399C18.6857 11.3211 18.8371 11.6866 19.1067 11.9561C19.3762 12.2256 19.7417 12.377 20.1229 12.377C20.504 12.377 20.8696 12.2256 21.1391 11.9561C21.4086 11.6866 21.56 11.3211 21.56 10.9399C21.56 10.5587 21.4086 10.1932 21.1391 9.92369C20.8696 9.65417 20.504 9.50276 20.1229 9.50276Z" fill="#00C08B"/>
<path d="M16.4323 5.19135H6.56201L6.46716 8.05701H7.0219C7.3237 6.25771 7.90143 5.9789 10.1448 5.90848L10.6378 5.89267V15.0085C10.6378 15.7802 10.4711 15.9642 9.13019 16.0835V16.6885H13.8642V16.0835C12.5161 15.9642 12.3494 15.7817 12.3494 15.0085V5.89267L12.8495 5.90704C15.0915 5.9789 15.6706 6.25771 15.9724 8.05701H16.5272L16.4323 5.19135Z" fill="#00C08B"/>
</svg>
