<svg width="18" height="20" viewBox="0 0 18 20" fill="none" xmlns="http://www.w3.org/2000/svg">
<path fill-rule="evenodd" clip-rule="evenodd" d="M4.934 0H13.066C13.952 0 14.716 1.49012e-08 15.328 0.082C15.983 0.17 16.612 0.369 17.121 0.879C17.631 1.389 17.83 2.017 17.918 2.672C18 3.284 18 4.048 18 4.934V5.95C18 6.21522 17.8946 6.46957 17.7071 6.65711C17.5196 6.84464 17.2652 6.95 17 6.95C16.7348 6.95 16.4804 6.84464 16.2929 6.65711C16.1054 6.46957 16 6.21522 16 5.95V5C16 4.029 15.998 3.401 15.936 2.939C15.877 2.505 15.783 2.369 15.707 2.293C15.631 2.217 15.495 2.123 15.061 2.064C14.6 2.002 13.971 2 13 2H10V19C10 19.2652 9.89464 19.5196 9.70711 19.7071C9.51957 19.8946 9.26522 20 9 20C8.73478 20 8.48043 19.8946 8.29289 19.7071C8.10536 19.5196 8 19.2652 8 19V2H5C4.029 2 3.401 2.002 2.939 2.064C2.505 2.123 2.369 2.217 2.293 2.293C2.217 2.369 2.123 2.505 2.064 2.939C2.002 3.4 2 4.029 2 5V5.95C2 6.21522 1.89464 6.46957 1.70711 6.65711C1.51957 6.84464 1.26522 6.95 1 6.95C0.734784 6.95 0.48043 6.84464 0.292893 6.65711C0.105357 6.46957 0 6.21522 0 5.95V4.934C0 4.048 1.49012e-08 3.284 0.082 2.672C0.17 2.017 0.369 1.388 0.879 0.879C1.389 0.369 2.017 0.17 2.672 0.082C3.284 1.49012e-08 4.048 0 4.934 0Z" fill="#00C08B"/>
<path d="M4 19H14H4Z" fill="#00C08B"/>
<path d="M4 19H14" stroke="#00C08B" stroke-width="2" stroke-linecap="round" stroke-linejoin="round"/>
</svg>
