<svg width="17" height="23" viewBox="0 0 17 23" fill="none" xmlns="http://www.w3.org/2000/svg">
<path d="M12.2335 0L17 4.73351V22.2244C16.9991 22.4301 16.9163 22.6272 16.7697 22.7725C16.6231 22.9178 16.4245 22.9996 16.2174 23H0.782613C0.575185 22.9996 0.376377 22.9175 0.229703 22.7719C0.0830287 22.6262 0.000435317 22.4288 0 22.2228V0.777193C0.000435317 0.571201 0.0830287 0.37377 0.229703 0.228112C0.376377 0.0824539 0.575185 0.000432303 0.782613 0H12.2335ZM1.8272 1.8129V21.1855H15.1761V5.9852H11.8908C11.6402 5.98434 11.4002 5.88511 11.223 5.70917C11.0458 5.53323 10.9459 5.29485 10.945 5.04603V1.8129H1.8272ZM7.71409 7.50359C7.98498 7.81065 8.1348 8.2047 8.13588 8.61293C8.1351 8.90246 8.05766 9.1867 7.91134 9.43713C7.76501 9.68755 7.55493 9.89536 7.30219 10.0397C7.05537 10.1954 6.78422 10.3093 6.49981 10.3768V10.7187C6.49981 10.8906 6.43107 11.0554 6.30871 11.1769C6.18635 11.2984 6.02039 11.3666 5.84735 11.3666C5.67431 11.3666 5.50836 11.2984 5.386 11.1769C5.26364 11.0554 5.1949 10.8906 5.1949 10.7187V10.3849C5.0201 10.3463 4.84916 10.292 4.68414 10.2229C4.40324 10.108 4.15451 9.92722 3.9592 9.69609C3.89842 9.6326 3.85125 9.55751 3.82052 9.4754C3.78979 9.39328 3.77616 9.30582 3.78043 9.21832C3.78471 9.13082 3.80681 9.04508 3.84539 8.9663C3.88398 8.88752 3.93825 8.81733 4.00493 8.75997C4.07161 8.70261 4.14931 8.65928 4.23333 8.63259C4.31735 8.6059 4.40595 8.59641 4.49378 8.60468C4.5816 8.61296 4.66682 8.63884 4.74428 8.68076C4.82175 8.72267 4.88985 8.77975 4.94447 8.84854C5.00468 8.92235 5.0814 8.98118 5.16854 9.02035C5.26928 9.06429 5.37413 9.09827 5.48159 9.12179C5.59475 9.14315 5.70925 9.15682 5.82429 9.16269C6.09446 9.16223 6.35957 9.08992 6.59207 8.95326C6.83097 8.79946 6.83097 8.67347 6.83097 8.61293C6.82984 8.51835 6.79479 8.42727 6.73212 8.35605C6.66022 8.27523 6.57497 8.20717 6.48003 8.1548C6.38101 8.10396 6.27579 8.06601 6.16699 8.0419C6.06403 8.02063 5.9591 8.01021 5.85394 8.01081C5.67238 8.0116 5.49107 7.99737 5.31188 7.96827C5.06803 7.92849 4.83149 7.85294 4.61 7.74411C4.35134 7.6149 4.12332 7.43251 3.94107 7.20908C3.68741 6.90517 3.54664 6.5239 3.54235 6.12919C3.54829 5.82992 3.63176 5.53722 3.78471 5.27929C3.93766 5.02137 4.15493 4.80692 4.41558 4.65661C4.65611 4.50843 4.91933 4.40011 5.1949 4.33592V4.01031C5.1949 3.83847 5.26364 3.67367 5.386 3.55216C5.50836 3.43065 5.67431 3.36238 5.84735 3.36238C6.02039 3.36238 6.18635 3.43065 6.30871 3.55216C6.43107 3.67367 6.49981 3.83847 6.49981 4.01031V4.35392C6.67856 4.39928 6.85282 4.46061 7.02045 4.53717C7.2568 4.64285 7.47219 4.7897 7.65642 4.97076C7.71712 5.03092 7.76528 5.10237 7.79817 5.18102C7.83105 5.25967 7.84802 5.34398 7.8481 5.42914C7.84817 5.5143 7.83136 5.59864 7.79861 5.67734C7.76587 5.75605 7.71783 5.82758 7.65725 5.88785C7.59667 5.94812 7.52472 5.99595 7.44553 6.02861C7.36633 6.06127 7.28143 6.07812 7.19568 6.07819C7.10992 6.07827 7.025 6.06157 6.94574 6.02905C6.86649 5.99653 6.79446 5.94883 6.73377 5.88867C6.66194 5.81815 6.57831 5.76058 6.48662 5.7185C6.38253 5.67013 6.27379 5.6323 6.16205 5.60561L6.12745 5.59906C6.04095 5.57682 5.95279 5.5615 5.86383 5.55325C5.59942 5.55201 5.33948 5.62092 5.11087 5.75286C5.03737 5.78775 4.97435 5.84116 4.9281 5.90776C4.88185 5.97436 4.85397 6.05183 4.84726 6.13246C4.85291 6.22877 4.88991 6.32064 4.9527 6.39425C5.01847 6.47455 5.1004 6.54031 5.19325 6.58732C5.29853 6.63799 5.41063 6.67326 5.52607 6.69204C5.63498 6.70991 5.74521 6.71866 5.85559 6.71822C6.05326 6.71767 6.25043 6.73796 6.44379 6.77876C6.6678 6.82722 6.8844 6.90479 7.088 7.00946C7.32474 7.1364 7.53677 7.30265 7.71409 7.50359ZM13.3011 13.1256H3.70711V14.9385H13.2995L13.3011 13.1256ZM13.3011 17.2144H3.70711V19.0273H13.2995L13.3011 17.2144ZM13.3011 9.03834H9.32545V10.8496H13.2995L13.3011 9.03834Z" fill="#00C08B"/>
</svg>
