<svg width="22" height="26" viewBox="0 0 22 26" fill="none" xmlns="http://www.w3.org/2000/svg">
<path d="M12.0985 2.004L10.4004 2.00002C6.52898 1.99093 3.16753 5.13648 3.14085 8.94847V15.6509C3.14085 16.5653 3.02438 17.4591 2.52547 18.2199L2.1932 18.7265C1.68861 19.4959 2.23119 20.5265 3.14085 20.5265H19.3854C20.2951 20.5265 20.8377 19.4959 20.3331 18.7265L20.0009 18.2199C19.5019 17.4591 19.3854 16.5653 19.3854 15.6509V8.94847C19.3404 5.13631 15.9699 2.01308 12.0985 2.004Z" stroke="#1F393F" stroke-width="2.25" stroke-linecap="round" stroke-linejoin="round"/>
<path d="M14.7369 20.5263C14.7369 22.4449 13.1817 24 11.2632 24C9.34466 24 7.78949 22.4449 7.78949 20.5263" stroke="#1F393F" stroke-width="2.25" stroke-linecap="round" stroke-linejoin="round"/>
</svg>
