<svg width="17" height="22" viewBox="0 0 17 22" fill="none" xmlns="http://www.w3.org/2000/svg">
<path d="M14.3624 0H1.7953C1.31959 0.00142073 0.863776 0.191024 0.5274 0.5274C0.191024 0.863776 0.00142073 1.31959 0 1.7953L0 21.5436H16.1577V1.7953C16.1563 1.31959 15.9667 0.863776 15.6303 0.5274C15.2939 0.191024 14.8381 0.00142073 14.3624 0ZM7.18119 19.7483V16.1577H8.97649V19.7483H7.18119ZM14.3624 19.7483H10.7718V15.26C10.779 15.1403 10.7607 15.0204 10.7181 14.9082C10.6756 14.796 10.6097 14.6941 10.5249 14.6093C10.44 14.5245 10.3382 14.4586 10.226 14.416C10.1138 14.3735 9.9939 14.3552 9.87414 14.3624H6.28354C6.16379 14.3552 6.04386 14.3735 5.93169 14.416C5.81952 14.4586 5.71766 14.5245 5.63282 14.6093C5.54799 14.6941 5.48211 14.796 5.43955 14.9082C5.39698 15.0204 5.3787 15.1403 5.38589 15.26V19.7483H1.7953V1.7953H14.3624V19.7483ZM5.38589 5.38589H3.5906V3.5906H5.38589V5.38589ZM8.97649 5.38589H7.18119V3.5906H8.97649V5.38589ZM12.5671 5.38589H10.7718V3.5906H12.5671V5.38589ZM5.38589 8.97649H3.5906V7.18119H5.38589V8.97649ZM8.97649 8.97649H7.18119V7.18119H8.97649V8.97649ZM12.5671 8.97649H10.7718V7.18119H12.5671V8.97649ZM5.38589 12.5671H3.5906V10.7718H5.38589V12.5671ZM8.97649 12.5671H7.18119V10.7718H8.97649V12.5671ZM12.5671 12.5671H10.7718V10.7718H12.5671V12.5671Z" fill="#00C08B"/>
</svg>
