<svg width="21" height="21" viewBox="0 0 21 21" fill="none" xmlns="http://www.w3.org/2000/svg">
<path d="M19.525 20H1.475C1.19 20 1 19.81 1 19.525C1 19.24 1.19 19.05 1.475 19.05H19.525C19.81 19.05 20 19.24 20 19.525C20 19.81 19.81 20 19.525 20Z" fill="#9D9D9D" stroke="#9D9D9D" stroke-width="0.25"/>
<path d="M4.61025 20H2.23525C1.95025 20 1.76025 19.81 1.76025 19.525V15.63C1.76025 15.345 1.95025 15.155 2.23525 15.155H4.61025C4.89525 15.155 5.08525 15.345 5.08525 15.63V19.525C5.08525 19.81 4.89525 20 4.61025 20ZM2.71025 19.05H4.13525V16.105H2.71025V19.05Z" fill="#9D9D9D" stroke="#9D9D9D" stroke-width="0.25"/>
<path d="M9.36025 20H6.98525C6.70025 20 6.51025 19.81 6.51025 19.525V11.64C6.51025 11.355 6.70025 11.165 6.98525 11.165H9.36025C9.64525 11.165 9.83525 11.355 9.83525 11.64V19.525C9.83525 19.81 9.55025 20 9.36025 20ZM7.46025 19.05H8.88525V12.115H7.46025V19.05Z" fill="#9D9D9D" stroke="#9D9D9D" stroke-width="0.25"/>
<path d="M14.015 20H11.64C11.355 20 11.165 19.81 11.165 19.525V13.255C11.165 12.97 11.355 12.78 11.64 12.78H14.015C14.3 12.78 14.49 12.97 14.49 13.255V19.525C14.49 19.81 14.3 20 14.015 20ZM12.115 19.05H13.54V13.73H12.115V19.05Z" fill="#9D9D9D" stroke="#9D9D9D" stroke-width="0.25"/>
<path d="M18.765 19.9999H16.39C16.105 19.9999 15.915 19.8099 15.915 19.5249V7.74493C15.915 7.45993 16.105 7.26993 16.39 7.26993H18.765C19.05 7.26993 19.24 7.45993 19.24 7.74493V19.5249C19.24 19.8099 19.05 19.9999 18.765 19.9999ZM16.865 19.0499H18.29V8.21993H16.865V19.0499Z" fill="#9D9D9D" stroke="#9D9D9D" stroke-width="0.25"/>
<path d="M3.47035 11.3549C2.80535 11.3549 2.23535 10.7849 2.23535 10.1199C2.23535 9.45495 2.80535 8.88495 3.47035 8.88495C4.13535 8.88495 4.70535 9.45495 4.70535 10.1199C4.70535 10.7849 4.13535 11.3549 3.47035 11.3549ZM3.47035 9.83495C3.28035 9.83495 3.18535 9.92995 3.18535 10.1199C3.18535 10.3099 3.28035 10.4049 3.47035 10.4049C3.66035 10.4049 3.75535 10.3099 3.75535 10.1199C3.75535 9.92995 3.56535 9.83495 3.47035 9.83495Z" fill="#9D9D9D" stroke="#9D9D9D" stroke-width="0.25"/>
<path d="M8.12465 7.46002C7.45965 7.46002 6.88965 6.89002 6.88965 6.22502C6.88965 5.56002 7.45965 4.99002 8.12465 4.99002C8.78965 4.99002 9.35965 5.56002 9.35965 6.22502C9.35965 6.89002 8.88465 7.46002 8.12465 7.46002ZM8.12465 5.84502C7.93465 5.84502 7.83965 5.94002 7.83965 6.13002C7.83965 6.32002 7.93465 6.41502 8.12465 6.41502C8.31465 6.41502 8.40965 6.32002 8.40965 6.13002C8.40965 5.94002 8.31465 5.84502 8.12465 5.84502Z" fill="#9D9D9D" stroke="#9D9D9D" stroke-width="0.25"/>
<path d="M12.8746 8.97995C12.2096 8.97995 11.6396 8.40995 11.6396 7.74495C11.6396 7.07995 12.2096 6.50995 12.8746 6.50995C13.5396 6.50995 14.1096 7.07995 14.1096 7.74495C14.1096 8.40995 13.5396 8.97995 12.8746 8.97995ZM12.8746 7.45995C12.6846 7.45995 12.5896 7.55495 12.5896 7.74495C12.5896 7.93495 12.6846 8.02995 12.8746 8.02995C13.0646 8.02995 13.1596 7.93495 13.1596 7.74495C13.1596 7.55495 13.0646 7.45995 12.8746 7.45995Z" fill="#9D9D9D" stroke="#9D9D9D" stroke-width="0.25"/>
<path d="M17.5304 3.56498C16.8654 3.56498 16.2954 2.99498 16.2954 2.32998C16.2954 1.66498 16.8654 0.999985 17.5304 0.999985C18.1954 0.999985 18.7654 1.56998 18.7654 2.23498C18.7654 2.89998 18.2904 3.56498 17.5304 3.56498ZM17.5304 1.94998C17.3404 1.94998 17.2454 2.04498 17.2454 2.23498C17.2454 2.42498 17.3404 2.51998 17.5304 2.51998C17.7204 2.51998 17.8154 2.42498 17.8154 2.23498C17.8154 2.04498 17.7204 1.94998 17.5304 1.94998Z" fill="#9D9D9D" stroke="#9D9D9D" stroke-width="0.25"/>
<path d="M4.04025 10.12C3.94525 10.12 3.75525 10.025 3.66025 9.92998C3.47025 9.73998 3.47025 9.45498 3.75525 9.26498L7.17525 6.31998C7.36525 6.12998 7.65025 6.12998 7.84025 6.41498C8.03025 6.60498 8.03025 6.88998 7.74525 7.07998L4.32525 10.025C4.32525 10.12 4.13525 10.12 4.04025 10.12Z" fill="#9D9D9D" stroke="#9D9D9D" stroke-width="0.25"/>
<path d="M12.1153 8.02992C12.0203 8.02992 12.0203 8.02992 11.9253 8.02992L8.60032 6.88992C8.41032 6.79492 8.31532 6.50992 8.41032 6.22492C8.50532 5.93992 8.79032 5.84492 8.98032 5.93992L12.3053 7.07992C12.5903 7.17492 12.6853 7.45992 12.5903 7.64992C12.4953 7.83992 12.3053 8.02992 12.1153 8.02992Z" fill="#9D9D9D" stroke="#9D9D9D" stroke-width="0.25"/>
<path d="M13.4448 7.55492C13.3498 7.55492 13.2548 7.55492 13.1598 7.45992C12.9698 7.26992 12.9698 6.98492 13.0648 6.79492L16.6748 2.51992C16.8648 2.32992 17.1498 2.32992 17.3398 2.42492C17.5298 2.61492 17.5298 2.89992 17.4348 3.08992L13.8248 7.36492C13.6348 7.55492 13.5398 7.55492 13.4448 7.55492Z" fill="#9D9D9D" stroke="#9D9D9D" stroke-width="0.25"/>
</svg>
