<svg width="24" height="23" viewBox="0 0 24 23" fill="none" xmlns="http://www.w3.org/2000/svg">
<path fill-rule="evenodd" clip-rule="evenodd" d="M16.1296 6.12008L17.998 3.38877C16.2705 3.49166 14.1812 3.89738 12.1767 4.47729C10.8145 4.87136 9.29758 4.81191 7.88727 4.5517C7.44309 4.46975 7.00551 4.36712 6.58184 4.25041L7.85091 6.11871C10.4422 7.07527 13.5378 7.07571 16.1296 6.12008ZM7.20483 7.04903C10.1862 8.23263 13.8013 8.23225 16.7823 7.04793C17.9943 8.30534 19.2463 9.87009 20.2109 11.5068C21.2194 13.2179 21.8559 14.9102 21.8978 16.3637C21.9374 17.7393 21.4541 18.9244 20.0928 19.8343C18.6501 20.7986 16.1361 21.5074 12.0132 21.5473C7.88914 21.5871 5.37135 20.9264 3.92453 19.991C2.56296 19.1107 2.0703 17.9384 2.10135 16.5551C2.13417 15.0927 2.7634 13.3761 3.76972 11.6289C4.73038 9.96084 5.98267 8.35462 7.20483 7.04903ZM6.3141 3.02468C6.87912 3.20253 7.47768 3.35755 8.08686 3.46994C9.4056 3.71327 10.7343 3.74945 11.871 3.42062C13.3155 3.00271 14.8321 2.66407 16.2532 2.46346C15.0405 2.06424 13.5744 1.74896 12.0238 1.74896C9.78587 1.74896 7.70824 2.40562 6.3141 3.02468ZM5.2608 2.30573C6.74849 1.56056 9.2637 0.648956 12.0238 0.648956C14.7328 0.648956 17.1869 1.5271 18.6681 2.26416C18.6931 2.27654 18.7176 2.28888 18.742 2.30117C19.1411 2.50289 19.4655 2.69259 19.7 2.84896L17.4426 6.14896C22.6466 11.4689 28.8576 22.4845 12.0238 22.6472C-4.80996 22.8099 1.29246 11.6724 6.54169 6.14896L4.3 2.84896C4.45686 2.74586 4.6531 2.62829 4.88421 2.50232C5.00103 2.43867 5.12671 2.37287 5.2608 2.30573Z" fill="#00C08B" stroke="#00C08B" stroke-width="0.5"/>
<path d="M11.0588 9.99896H12.9412V10.879H14.8237V12.639H11.0588L10.9741 12.646C10.8656 12.6644 10.7674 12.7178 10.6967 12.7969C10.6261 12.876 10.5873 12.9759 10.5873 13.079C10.5873 13.182 10.6261 13.2819 10.6967 13.361C10.7674 13.4401 10.8656 13.4936 10.9741 13.5119L11.0588 13.519H12.9412L13.0956 13.5234C13.7061 13.5595 14.2775 13.8165 14.6888 14.2398C15.1 14.6631 15.3188 15.2196 15.2988 15.7912C15.2787 16.3628 15.0213 16.9046 14.5813 17.3018C14.1411 17.699 13.5529 17.9204 12.9412 17.919V18.799H11.0588V17.919H9.17637V16.159H12.9412L13.0259 16.1519C13.1344 16.1336 13.2326 16.0801 13.3033 16.001C13.374 15.9219 13.4127 15.822 13.4127 15.719C13.4127 15.6159 13.374 15.516 13.3033 15.4369C13.2326 15.3578 13.1344 15.3044 13.0259 15.286L12.9412 15.279H11.0588L10.9045 15.2746C10.294 15.2384 9.72252 14.9815 9.31123 14.5581C8.9 14.1348 8.68121 13.5784 8.70128 13.0067C8.72136 12.4351 8.9787 11.8933 9.41876 11.4962C9.85892 11.0989 10.4471 10.8775 11.0588 10.879V9.99896Z" fill="#00C08B"/>
</svg>
