<svg width="23" height="21" viewBox="0 0 23 21" fill="none" xmlns="http://www.w3.org/2000/svg">
<path d="M2.15855 2.15572C2.15855 1.58399 2.38567 1.03567 2.78995 0.631395C3.19423 0.22712 3.74254 0 4.31427 0H18.6857C19.2575 0 19.8058 0.22712 20.2101 0.631395C20.6143 1.03567 20.8414 1.58399 20.8414 2.15572V7.27627C21.4591 7.43507 22.0064 7.79476 22.3971 8.29873C22.7879 8.80269 23 9.4223 23 10.06C23 10.6977 22.7879 11.3173 22.3971 11.8213C22.0064 12.3253 21.4591 12.685 20.8414 12.8438V17.9643C20.8414 18.5361 20.6143 19.0844 20.2101 19.4886C19.8058 19.8929 19.2575 20.12 18.6857 20.12H4.31427C3.74254 20.12 3.19423 19.8929 2.78995 19.4886C2.38567 19.0844 2.15855 18.5361 2.15855 17.9643V12.8438C1.54092 12.685 0.99364 12.3253 0.602861 11.8213C0.212083 11.3173 0 10.6977 0 10.06C0 9.4223 0.212083 8.80269 0.602861 8.29873C0.99364 7.79476 1.54092 7.43507 2.15855 7.27627V2.15572ZM3.5957 7.27627C4.21333 7.43507 4.76061 7.79476 5.15139 8.29873C5.54217 8.80269 5.75425 9.4223 5.75425 10.06C5.75425 10.6977 5.54217 11.3173 5.15139 11.8213C4.76061 12.3253 4.21333 12.685 3.5957 12.8438V17.9643C3.5957 18.1549 3.67141 18.3377 3.80616 18.4724C3.94092 18.6072 4.12369 18.6829 4.31427 18.6829H18.6857C18.8763 18.6829 19.0591 18.6072 19.1938 18.4724C19.3286 18.3377 19.4043 18.1549 19.4043 17.9643V12.8438C18.7867 12.685 18.2394 12.3253 17.8486 11.8213C17.4578 11.3173 17.2457 10.6977 17.2457 10.06C17.2457 9.4223 17.4578 8.80269 17.8486 8.29873C18.2394 7.79476 18.7867 7.43507 19.4043 7.27627V2.15572C19.4043 1.96514 19.3286 1.78237 19.1938 1.64761C19.0591 1.51285 18.8763 1.43715 18.6857 1.43715H4.31427C4.12369 1.43715 3.94092 1.51285 3.80616 1.64761C3.67141 1.78237 3.5957 1.96514 3.5957 2.15572V7.27627ZM2.87713 8.62287C2.49597 8.62287 2.13043 8.77429 1.86091 9.0438C1.59139 9.31332 1.43998 9.67886 1.43998 10.06C1.43998 10.4412 1.59139 10.8067 1.86091 11.0762C2.13043 11.3458 2.49597 11.4972 2.87713 11.4972C3.25828 11.4972 3.62383 11.3458 3.89334 11.0762C4.16286 10.8067 4.31427 10.4412 4.31427 10.06C4.31427 9.67886 4.16286 9.31332 3.89334 9.0438C3.62383 8.77429 3.25828 8.62287 2.87713 8.62287ZM20.1229 8.62287C19.7417 8.62287 19.3762 8.77429 19.1067 9.0438C18.8371 9.31332 18.6857 9.67886 18.6857 10.06C18.6857 10.4412 18.8371 10.8067 19.1067 11.0762C19.3762 11.3458 19.7417 11.4972 20.1229 11.4972C20.504 11.4972 20.8696 11.3458 21.1391 11.0762C21.4086 10.8067 21.56 10.4412 21.56 10.06C21.56 9.67886 21.4086 9.31332 21.1391 9.0438C20.8696 8.77429 20.504 8.62287 20.1229 8.62287Z" fill="#00C08B"/>
<path d="M16.4322 4.31146H6.56189L6.46704 7.17713H7.02178C7.32358 5.37782 7.90131 5.09902 10.1447 5.0286L10.6376 5.01279V14.1286C10.6376 14.9004 10.4709 15.0843 9.13007 15.2036V15.8086H13.864V15.2036C12.516 15.0843 12.3493 14.9018 12.3493 14.1286V5.01279L12.8494 5.02716C15.0914 5.09902 15.6705 5.37782 15.9723 7.17713H16.5271L16.4322 4.31146Z" fill="#00C08B"/>
</svg>
