<svg width="26" height="24" viewBox="0 0 26 24" fill="none" xmlns="http://www.w3.org/2000/svg">
<path d="M6.7579 6.7579C9.93789 6.7579 12.5158 5.46895 12.5158 3.87895C12.5158 2.28895 9.93789 1 6.7579 1C3.5779 1 1 2.28895 1 3.87895C1 5.46895 3.5779 6.7579 6.7579 6.7579Z" stroke="#1F393F" stroke-width="2" stroke-linecap="round" stroke-linejoin="round"/>
<path d="M1 3.87897V7.90949C1 9.49948 3.5779 10.7884 6.7579 10.7884C9.93787 10.7884 12.5158 9.49948 12.5158 7.90949C12.5158 6.96773 12.5158 3.87897 12.5158 3.87897" stroke="#1F393F" stroke-width="2" stroke-linecap="round" stroke-linejoin="round"/>
<path d="M1 7.90948V11.94C1 13.53 3.5779 14.819 6.7579 14.819C9.93787 14.819 12.5158 13.53 12.5158 11.94C12.5158 10.9983 12.5158 7.90948 12.5158 7.90948" stroke="#1F393F" stroke-width="2" stroke-linecap="round" stroke-linejoin="round"/>
<path d="M1 11.94V15.9705C1 17.5605 3.5779 18.8495 6.7579 18.8495C9.93787 18.8495 12.5158 17.5605 12.5158 15.9705C12.5158 15.0288 12.5158 11.94 12.5158 11.94" stroke="#1F393F" stroke-width="2" stroke-linecap="round" stroke-linejoin="round"/>
<path d="M1 15.9705V20.001C1 21.591 3.5779 22.88 6.7579 22.88C9.93787 22.88 12.5158 21.591 12.5158 20.001C12.5158 19.0593 12.5158 15.9705 12.5158 15.9705" stroke="#1F393F" stroke-width="2" stroke-linecap="round" stroke-linejoin="round"/>
<path d="M18.2735 14.819C21.4535 14.819 24.0314 13.53 24.0314 11.94C24.0314 10.35 21.4535 9.0611 18.2735 9.0611C15.0935 9.0611 12.5156 10.35 12.5156 11.94C12.5156 13.53 15.0935 14.819 18.2735 14.819Z" stroke="#1F393F" stroke-width="2" stroke-linecap="round" stroke-linejoin="round"/>
<path d="M12.5156 11.94V15.9705C12.5156 17.5605 15.0936 18.8495 18.2735 18.8495C21.4535 18.8495 24.0314 17.5605 24.0314 15.9705C24.0314 15.0288 24.0314 11.94 24.0314 11.94" stroke="#1F393F" stroke-width="2" stroke-linecap="round" stroke-linejoin="round"/>
<path d="M12.5156 15.9705V20.001C12.5156 21.591 15.0936 22.88 18.2735 22.88C21.4535 22.88 24.0314 21.591 24.0314 20.001C24.0314 19.0593 24.0314 15.9705 24.0314 15.9705" stroke="#1F393F" stroke-width="2" stroke-linecap="round" stroke-linejoin="round"/>
</svg>
