<svg width="26" height="26" viewBox="0 0 26 26" fill="none" xmlns="http://www.w3.org/2000/svg">
<path d="M0 0H26V26H0V0Z" fill="white" fill-opacity="0.01"/>
<path d="M7.58329 8.12501C10.5748 8.12501 13 6.91245 13 5.41668C13 3.92091 10.5748 2.70834 7.58329 2.70834C4.59175 2.70834 2.16663 3.92091 2.16663 5.41668C2.16663 6.91245 4.59175 8.12501 7.58329 8.12501Z" stroke="#00C08B" stroke-width="1.5" stroke-linecap="round" stroke-linejoin="round"/>
<path d="M2.1666 5.41669V9.20835C2.1666 10.7041 4.59172 11.9167 7.58326 11.9167C10.5748 11.9167 12.9999 10.7041 12.9999 9.20835C12.9999 8.3224 12.9999 5.41669 12.9999 5.41669" stroke="#00C08B" stroke-width="1.5" stroke-linecap="round" stroke-linejoin="round"/>
<path d="M2.1666 9.20834V13C2.1666 14.4958 4.59172 15.7083 7.58326 15.7083C10.5748 15.7083 12.9999 14.4958 12.9999 13C12.9999 12.1141 12.9999 9.20834 12.9999 9.20834" stroke="#00C08B" stroke-width="1.5" stroke-linecap="round" stroke-linejoin="round"/>
<path d="M2.1666 13V16.7917C2.1666 18.2874 4.59172 19.5 7.58326 19.5C10.5748 19.5 12.9999 18.2874 12.9999 16.7917C12.9999 15.9057 12.9999 13 12.9999 13" stroke="#00C08B" stroke-width="1.5" stroke-linecap="round" stroke-linejoin="round"/>
<path d="M2.1666 16.7917V20.5834C2.1666 22.0791 4.59172 23.2917 7.58326 23.2917C10.5748 23.2917 12.9999 22.0791 12.9999 20.5834C12.9999 19.6974 12.9999 16.7917 12.9999 16.7917" stroke="#00C08B" stroke-width="1.5" stroke-linecap="round" stroke-linejoin="round"/>
<path d="M18.4166 15.7084C21.4082 15.7084 23.8333 14.4958 23.8333 13C23.8333 11.5042 21.4082 10.2917 18.4166 10.2917C15.4251 10.2917 13 11.5042 13 13C13 14.4958 15.4251 15.7084 18.4166 15.7084Z" stroke="#00C08B" stroke-width="1.5" stroke-linecap="round" stroke-linejoin="round"/>
<path d="M13 13V16.7917C13 18.2874 15.4251 19.5 18.4166 19.5C21.4082 19.5 23.8333 18.2874 23.8333 16.7917C23.8333 15.9057 23.8333 13 23.8333 13" stroke="#00C08B" stroke-width="1.5" stroke-linecap="round" stroke-linejoin="round"/>
<path d="M13 16.7917V20.5834C13 22.0791 15.4251 23.2917 18.4166 23.2917C21.4082 23.2917 23.8333 22.0791 23.8333 20.5834C23.8333 19.6974 23.8333 16.7917 23.8333 16.7917" stroke="#00C08B" stroke-width="1.5" stroke-linecap="round" stroke-linejoin="round"/>
</svg>
