<svg width="32" height="32" viewBox="0 0 32 32" fill="none" xmlns="http://www.w3.org/2000/svg">
<path d="M20 24C22.2091 24 24 22.2091 24 20C24 17.7909 22.2091 16 20 16C17.7909 16 16 17.7909 16 20C16 22.2091 17.7909 24 20 24Z" stroke="#1F393F" stroke-width="2" stroke-linecap="round" stroke-linejoin="round"/>
<path d="M17.333 23.3333V29.3333L19.9997 27.3333L22.6663 29.3333V23.3333" stroke="#1F393F" stroke-width="2" stroke-linecap="round" stroke-linejoin="round"/>
<path d="M13.3333 25.3334H6.66667C5.95942 25.3334 5.28115 25.0524 4.78105 24.5523C4.28095 24.0522 4 23.3739 4 22.6667V9.33335C4 7.86669 5.2 6.66669 6.66667 6.66669H25.3333C26.0406 6.66669 26.7189 6.94764 27.219 7.44774C27.7191 7.94783 28 8.62611 28 9.33335V22.6667C27.9995 23.1343 27.8761 23.5936 27.6421 23.9985C27.408 24.4033 27.0717 24.7395 26.6667 24.9734" stroke="#1F393F" stroke-width="2" stroke-linecap="round" stroke-linejoin="round"/>
<path d="M8 12H24" stroke="#1F393F" stroke-width="2" stroke-linecap="round" stroke-linejoin="round"/>
<path d="M8 16H12" stroke="#1F393F" stroke-width="2" stroke-linecap="round" stroke-linejoin="round"/>
<path d="M8 20H10.6667" stroke="#1F393F" stroke-width="2" stroke-linecap="round" stroke-linejoin="round"/>
</svg>
