<svg width="543" height="471" viewBox="0 0 543 471" fill="none" xmlns="http://www.w3.org/2000/svg">
<g clip-path="url(#clip0_366_663)">
<path d="M77.8672 431.129C181.69 484.298 350.01 484.298 453.833 431.129C557.656 377.96 557.656 291.762 453.833 238.593C350.01 185.424 181.69 185.424 77.8672 238.593C-25.9557 291.762 -25.9557 377.96 77.8672 431.129Z" fill="#F5F5F5"/>
<path d="M417.409 346.185C423.094 349.477 434.276 348.341 442.382 343.654L489.1 316.484C497.206 311.797 499.148 305.33 493.451 302.026C487.755 298.734 476.561 299.858 468.455 304.545L421.783 331.727C413.677 336.414 411.724 342.893 417.42 346.173L417.409 346.185Z" fill="#EBEBEB"/>
<path d="M136.189 371.246L88.6636 343.771L136.177 316.285L136.189 371.246Z" fill="#EBEBEB"/>
<path d="M270.471 387.685L193.89 343.373L270.494 299.144L270.471 387.685Z" fill="#EBEBEB"/>
<path d="M71.9133 306.994C72.042 295.863 64.2868 272.711 52.929 258.113C41.5712 243.514 23.5695 232.735 10.6325 236.988C-1.41542 240.948 -0.304204 256.73 14.1299 267.357C28.5641 277.972 50.2738 291.364 56.4615 309.501L69.6207 331.821L71.9133 306.994Z" fill="#27DEBF"/>
<path d="M71.9133 306.994C72.042 295.863 64.2868 272.711 52.929 258.113C41.5712 243.514 23.5695 232.735 10.6325 236.988C-1.41542 240.948 -0.304204 256.73 14.1299 267.357C28.5641 277.972 50.2738 291.364 56.4615 309.501L69.6207 331.821L71.9133 306.994Z" fill="#00C08B"/>
<path d="M72.5449 322.237C72.194 322.202 71.8899 321.944 71.8197 321.569C64.8366 283.479 34.5178 252.219 16.2237 245.178C15.8026 245.014 15.592 244.545 15.7558 244.123C15.9195 243.701 16.3757 243.491 16.8085 243.655C35.4419 250.837 66.3221 282.6 73.4105 321.276C73.4924 321.721 73.1999 322.143 72.7555 322.225C72.6853 322.237 72.6034 322.237 72.5332 322.225L72.5449 322.237Z" fill="white"/>
<path d="M66.5911 346.501C64.8833 340.221 57.3738 329.805 45.1387 321.124C31.6053 311.528 14.3755 306.982 10.4804 299.589C5.80159 290.708 13.3228 282.459 27.3241 284.369C41.3255 286.279 65.7489 305.74 69.3516 334.644L66.5911 346.501Z" fill="#00C08B"/>
<path d="M69.3867 339.964C69.0826 339.94 68.8018 339.729 68.6966 339.413C57.4557 306.724 32.7983 294.996 21.3235 293.367C20.8791 293.309 20.5749 292.887 20.6334 292.454C20.6919 292.008 21.0896 291.704 21.5458 291.762C34.2254 293.567 58.7424 305.517 70.2289 338.897C70.3692 339.319 70.147 339.788 69.7259 339.928C69.6089 339.964 69.5037 339.975 69.3867 339.975V339.964Z" fill="white"/>
<path d="M486.644 275.312C486.644 275.312 488.199 251.844 502.014 234.422C515.816 217 514.974 209.829 505.452 206.314C495.931 202.799 473.812 223.795 478.736 251.915C483.661 280.034 486.644 275.324 486.644 275.324V275.312Z" fill="#00C08B"/>
<path opacity="0.1" d="M486.644 275.312C486.644 275.312 488.199 251.844 502.014 234.422C515.816 217 514.974 209.829 505.452 206.314C495.931 202.799 473.812 223.795 478.736 251.915C483.661 280.034 486.644 275.324 486.644 275.324V275.312Z" fill="black"/>
<path d="M482.421 261.909C482.14 261.909 481.895 261.686 481.883 261.393C480.269 235.547 498.493 214.34 505.312 209.548C505.558 209.372 505.897 209.431 506.072 209.677C506.248 209.923 506.189 210.263 505.944 210.439C499.253 215.149 481.392 235.945 482.971 261.335C482.994 261.639 482.76 261.897 482.456 261.909C482.456 261.909 482.433 261.909 482.421 261.909Z" fill="white"/>
<path d="M482.889 294.691C482.889 294.691 491.205 297.585 501.908 299.272C512.599 300.971 517.325 295.851 517.325 295.851C517.325 295.851 513.114 285.81 507.043 282.987C507.043 282.987 517.337 285.084 525.606 290.614C525.606 290.614 532.133 290.708 534.73 280.737C534.73 280.737 530.858 274.727 517.886 271.481C517.886 271.481 525.782 269.489 537.163 272.395C538.017 272.735 541.655 259.823 542.754 253.871C543.854 247.919 541.468 247.978 536.836 246.736C532.204 245.494 516.857 242.049 513.956 244.592C511.055 247.146 509.581 255.875 509.581 255.875C509.581 255.875 507.675 250.72 509.149 244.815C509.149 244.815 504.973 243.186 498.504 245.072C493.206 246.619 492.948 250.228 493.194 254.305C493.369 257.281 494.083 260.456 495.487 264.662C495.487 264.662 491.357 259.366 491.229 247.884C491.229 247.884 480.397 253.274 478.549 264.041C477.555 269.864 476.128 286.959 482.912 294.703L482.889 294.691Z" fill="#00C08B"/>
<path d="M484.936 292.606C485.158 292.606 485.369 292.477 485.474 292.266C494.106 274.305 526.18 253.45 537.678 251.212C538.005 251.153 538.216 250.837 538.157 250.509C538.099 250.181 537.771 249.97 537.456 250.028C525.77 252.301 493.171 273.508 484.41 291.751C484.269 292.055 484.386 292.407 484.69 292.559C484.772 292.606 484.866 292.618 484.948 292.618L484.936 292.606Z" fill="white"/>
<path d="M67.7258 354.797C66.404 354.797 65.6086 353.695 65.6086 351.856V154.774L306.556 15.4423V211.727C306.556 214.739 304.439 218.417 301.83 219.917L69.6441 354.199C68.9657 354.597 68.299 354.797 67.7258 354.797Z" fill="#FAFAFA"/>
<path d="M305.866 16.6256V211.727C305.866 214.469 303.866 217.949 301.491 219.331L69.3048 353.613C68.7317 353.941 68.1819 354.117 67.7257 354.117C66.4274 354.117 66.287 352.547 66.287 351.867V155.184L305.866 16.6256ZM307.234 14.2472L64.9185 154.387V351.867C64.9185 354.164 66.0648 355.488 67.7257 355.488C68.4042 355.488 69.1762 355.265 69.9833 354.797L302.17 220.515C304.965 218.898 307.234 214.961 307.234 211.727V14.2472Z" fill="#E0E0E0"/>
<path d="M64.9185 154.387V187.357L307.234 47.2289V14.2472L64.9185 154.387Z" fill="#00C08B"/>
<path d="M83.9263 156.145V160.878C83.9263 161.839 84.6164 162.237 85.4469 161.757L159.945 118.676V110.427L85.4469 153.509C84.6164 153.989 83.9263 155.184 83.9263 156.145Z" fill="#FAFAFA"/>
<path d="M167.923 105.811C168.765 105.331 169.443 105.717 169.443 106.69V111.423C169.443 112.396 168.765 113.579 167.923 114.059L159.934 118.676V110.427L167.923 105.811Z" fill="#455A64"/>
<path d="M64.9185 143.76C64.9185 140.527 67.1877 136.59 69.9833 134.973L302.17 0.691276C304.965 -0.92559 307.234 0.386649 307.234 3.62038V14.2472L64.9185 154.387V143.76Z" fill="#455A64"/>
<path d="M280.308 18.8517C278.998 19.6133 277.933 21.4528 277.933 22.9759C277.933 24.499 278.998 25.1083 280.308 24.3467C281.618 23.5851 282.682 21.7457 282.682 20.2225C282.682 18.6994 281.618 18.0901 280.308 18.8517Z" fill="#27DEBF"/>
<path d="M287.829 14.4932C286.519 15.2548 285.455 17.0943 285.455 18.6174C285.455 20.1405 286.519 20.7498 287.829 19.9882C289.139 19.2266 290.204 17.3872 290.204 15.864C290.204 14.3409 289.139 13.7316 287.829 14.4932Z" fill="#27DEBF"/>
<path d="M295.362 10.1347C294.052 10.8963 292.988 12.7357 292.988 14.2589C292.988 15.782 294.052 16.3913 295.362 15.6297C296.672 14.8681 297.737 13.0287 297.737 11.5055C297.737 9.98239 296.672 9.37314 295.362 10.1347Z" fill="#27DEBF"/>
<g opacity="0.1">
<path d="M231.215 68.6934C228.349 70.3571 226.022 74.3876 226.022 77.7033C226.022 81.019 228.349 82.3664 231.215 80.7027C234.081 79.039 236.409 75.0085 236.409 71.6928C236.409 68.377 234.081 67.0296 231.215 68.6934Z" fill="black"/>
<path d="M207.459 82.4367C204.593 84.1005 202.265 88.1309 202.265 91.4467C202.265 94.7624 204.593 96.1098 207.459 94.4461C210.324 92.7823 212.652 88.7519 212.652 85.4361C212.652 82.1204 210.324 80.773 207.459 82.4367Z" fill="black"/>
<path d="M254.972 54.9617C252.106 56.6254 249.779 60.6559 249.779 63.9716C249.779 67.2874 252.106 68.6348 254.972 66.971C257.838 65.3073 260.166 61.2769 260.166 57.9611C260.166 54.6454 257.838 53.298 254.972 54.9617Z" fill="black"/>
<path d="M278.729 41.1949C275.863 42.8587 273.535 46.8891 273.535 50.2049C273.535 53.5206 275.863 54.868 278.729 53.2043C281.594 51.5405 283.922 47.5101 283.922 44.1943C283.922 40.8786 281.594 39.5312 278.729 41.1949Z" fill="black"/>
</g>
<path d="M88.9911 189.923L145.383 157.316C148.178 155.7 150.447 157.012 150.447 160.245V214.481C150.447 217.714 148.178 221.651 145.383 223.268L88.9911 255.875C86.1955 257.492 83.9263 256.179 83.9263 252.946V198.71C83.9263 195.477 86.1955 191.54 88.9911 189.923Z" fill="#E0E0E0"/>
<path d="M169.759 143.222L287.911 74.8913C290.707 73.2745 292.976 74.5867 292.976 77.8205V132.056C292.976 135.289 290.707 139.226 287.911 140.843L169.759 209.173C166.964 210.79 164.694 209.478 164.694 206.244V152.009C164.694 148.775 166.964 144.838 169.759 143.222Z" fill="#E0E0E0"/>
<path d="M88.9911 272.36L178.637 220.515C181.433 218.898 183.702 220.046 183.702 223.081C183.702 226.115 181.433 229.888 178.637 231.505L88.9911 283.35C86.1955 284.967 83.9263 283.818 83.9263 280.784C83.9263 277.749 86.1955 273.977 88.9911 272.36Z" fill="#E0E0E0"/>
<path d="M88.9911 291.598L178.637 239.753C181.433 238.136 183.702 239.284 183.702 242.319C183.702 245.354 181.433 249.126 178.637 250.743L88.9911 302.588C86.1955 304.205 83.9263 303.057 83.9263 300.022C83.9263 296.988 86.1955 293.215 88.9911 291.598Z" fill="#E0E0E0"/>
<path d="M88.9911 310.825L178.637 258.98C181.433 257.363 183.702 258.511 183.702 261.546C183.702 264.58 181.433 268.353 178.637 269.97L88.9911 321.815C86.1955 323.432 83.9263 322.284 83.9263 319.249C83.9263 316.214 86.1955 312.442 88.9911 310.825Z" fill="#E0E0E0"/>
<path d="M131.44 245.611C131.44 243.666 132.797 241.311 134.481 240.339L289.947 150.427C291.619 149.455 294.345 149.455 296.029 150.427L299.456 152.407C301.129 153.38 302.497 155.735 302.497 157.68V277.046C302.497 278.98 301.129 281.346 299.456 282.319L143.991 372.231C142.318 373.191 139.581 373.191 137.908 372.231L134.481 370.251C132.808 369.29 131.44 366.911 131.44 364.978V245.611Z" fill="#00C08B"/>
<path opacity="0.4" d="M132.317 242.612L140.938 247.591L301.585 154.68C301.035 153.731 300.275 152.899 299.444 152.407L296.005 150.439C294.333 149.455 291.607 149.455 289.935 150.439L134.469 240.339C133.615 240.831 132.855 241.663 132.317 242.612Z" fill="white"/>
<path opacity="0.1" d="M131.428 245.611V364.978C131.428 366.923 132.797 369.278 134.481 370.251L137.908 372.242C138.165 372.383 138.435 372.512 138.739 372.617C139.125 372.746 139.546 372.852 139.99 372.91C140.786 373.016 141.616 372.98 142.388 372.828C142.587 372.781 142.786 372.723 142.973 372.664C143.102 372.617 143.219 372.582 143.336 372.524C142.774 372.723 142.283 372.699 141.885 372.5C141.312 372.195 140.949 371.504 140.949 370.497V251.13C140.949 249.876 141.581 248.927 142.528 248.54L140.949 247.615L132.329 242.635C131.779 243.584 131.44 244.662 131.44 245.635L131.428 245.611Z" fill="black"/>
<path opacity="0.2" d="M140.949 247.591L212.945 274.539C218.08 276.449 223.846 274.551 226.829 269.958L238.386 252.219L302.158 154.352L240.69 252.887L302.474 277.105C302.462 278.089 302.1 279.179 301.526 280.14L240.526 253.157L227.086 274.691C223.998 279.636 217.752 281.557 212.442 279.202L202.874 274.973L141.885 372.477C141.312 372.172 140.949 371.481 140.949 370.473V368.481L202.581 274.844L140.949 247.591Z" fill="black"/>
<path d="M269.231 110.556V384.603C269.231 387.837 271.5 389.149 274.296 387.532L397.208 316.449C400.004 314.832 402.273 310.895 402.273 307.661V33.6261C402.273 30.3924 400.004 29.0801 397.208 30.697L274.296 101.781C271.5 103.397 269.231 107.334 269.231 110.568V110.556Z" fill="#FAFAFA" stroke="#E0E0E0" stroke-width="1.17" stroke-miterlimit="10"/>
<path d="M276.354 115.664C276.354 114.903 276.939 113.954 277.676 113.532L291.677 105.436C292.403 105.014 292.999 105.295 292.999 106.045C292.999 106.795 292.414 107.756 291.677 108.178L277.676 116.274C276.951 116.696 276.354 116.414 276.354 115.664Z" fill="#455A64"/>
<path d="M276.354 121.124C276.354 120.363 276.939 119.414 277.676 118.992L291.677 110.896C292.403 110.474 292.999 110.755 292.999 111.505C292.999 112.255 292.414 113.216 291.677 113.638L277.676 121.734C276.951 122.155 276.354 121.874 276.354 121.124Z" fill="#455A64"/>
<path d="M276.354 126.584C276.354 125.823 276.939 124.874 277.676 124.452L291.677 116.356C292.403 115.934 292.999 116.215 292.999 116.965C292.999 117.715 292.414 118.676 291.677 119.097L277.676 127.193C276.951 127.615 276.354 127.334 276.354 126.584Z" fill="#455A64"/>
<path d="M392.763 56.3091V54.1181C392.763 53.9893 392.669 53.9307 392.552 53.9775L390.868 54.7391C390.751 54.7977 390.622 54.7391 390.587 54.6102C390.494 54.3056 390.365 54.0244 390.213 53.7784C390.143 53.6612 390.131 53.4854 390.19 53.3683L391.313 51.0953C391.371 50.9781 391.324 50.8258 391.207 50.7672L389.991 50.0643C389.874 49.994 389.733 50.0291 389.652 50.1463L388.248 52.2552C388.178 52.3607 388.014 52.4427 387.885 52.4427C387.593 52.4427 387.289 52.4661 386.973 52.5364C386.844 52.5598 386.739 52.4895 386.716 52.3607L386.529 50.5212C386.517 50.3923 386.412 50.3337 386.306 50.404L384.411 51.4937C384.294 51.564 384.201 51.7163 384.189 51.8451L384.002 53.9541C383.99 54.083 383.897 54.2587 383.803 54.3525C383.44 54.6922 383.078 55.0672 382.75 55.4655C382.668 55.571 382.505 55.6178 382.376 55.571L381.16 55.1492C381.031 55.1023 380.879 55.1609 380.82 55.2781L379.428 57.6916C379.358 57.8088 379.393 57.9611 379.487 58.0548L380.458 58.8984C380.551 58.9804 380.598 59.1562 380.551 59.2734C380.376 59.7654 380.224 60.2575 380.119 60.7379C380.095 60.8668 379.978 61.0308 379.873 61.1011L378.142 62.3196C378.036 62.3899 377.943 62.5657 377.943 62.6945V64.8855C377.943 65.0144 378.036 65.073 378.153 65.0261L379.838 64.2645C379.955 64.206 380.083 64.2645 380.119 64.3934C380.212 64.6981 380.341 64.9792 380.493 65.2253C380.563 65.3425 380.575 65.5182 380.516 65.6354L379.393 67.8966C379.335 68.0138 379.382 68.1661 379.499 68.2247L380.715 68.9277C380.832 68.998 380.972 68.9628 381.054 68.8457L382.458 66.7367C382.528 66.6313 382.692 66.5493 382.821 66.5493C383.113 66.5493 383.417 66.5258 383.733 66.4555C383.862 66.4321 383.967 66.5024 383.99 66.6313L384.177 68.4707C384.189 68.5996 384.294 68.6582 384.4 68.5879L386.295 67.4983C386.412 67.428 386.505 67.2757 386.517 67.1468L386.704 65.0378C386.716 64.909 386.809 64.7332 386.903 64.6395C387.265 64.2997 387.628 63.9248 387.956 63.5264C388.037 63.421 388.201 63.3741 388.33 63.421L389.546 63.8428C389.675 63.8896 389.827 63.831 389.886 63.7139L391.278 61.3003C391.348 61.1831 391.313 61.0308 391.219 60.9371L390.248 60.0935C390.155 60.0115 390.108 59.8357 390.155 59.7186C390.33 59.2265 390.482 58.7344 390.587 58.254C390.611 58.1251 390.728 57.9611 390.833 57.8908L392.564 56.6723C392.669 56.602 392.763 56.4263 392.763 56.2974V56.3091ZM385.359 63.1866C383.593 64.206 382.166 63.3741 382.166 61.3354C382.166 59.2968 383.593 56.8129 385.359 55.7936C387.125 54.7743 388.552 55.6061 388.552 57.6448C388.552 59.6834 387.125 62.1673 385.359 63.1866Z" fill="#37474F"/>
<path d="M335.752 110.322C350.116 102.015 361.754 108.752 361.754 125.354C361.754 141.956 350.116 162.167 335.752 170.462C321.388 178.769 309.749 172.032 309.749 155.418C309.749 138.804 321.388 118.605 335.752 110.31V110.322Z" fill="#455A64"/>
<path d="M335.565 123.397C340.22 120.703 343.998 122.882 343.998 128.271C343.998 133.661 340.22 140.21 335.565 142.905C330.909 145.6 327.131 143.421 327.131 138.031C327.131 132.642 330.909 126.092 335.565 123.397Z" fill="#00C08B"/>
<path d="M352.186 152.126C352.186 143.268 345.975 139.683 338.325 144.112L333.541 146.877C325.891 151.306 319.68 162.073 319.68 170.919V173.333C321.06 173.79 322.557 174.024 324.148 174.024C327.634 174.024 331.576 172.876 335.74 170.462C341.975 166.854 347.706 160.995 352.186 154.165V152.114V152.126Z" fill="#00C08B"/>
<path d="M312.276 195.184L359.216 168.037C360.62 167.228 361.754 167.803 361.754 169.326C361.754 170.849 360.62 172.723 359.216 173.544L312.276 200.691C310.872 201.499 309.738 200.925 309.738 199.402C309.738 197.879 310.872 196.004 312.276 195.184Z" fill="#00C08B"/>
<path d="M307.234 214.598L364.246 181.593C365.649 180.784 366.784 181.358 366.784 182.882C366.784 184.405 365.649 186.279 364.246 187.099L307.234 220.105C305.831 220.913 304.696 220.339 304.696 218.816C304.696 217.293 305.831 215.418 307.234 214.598Z" fill="#455A64"/>
<path d="M365.778 208.201L381.745 198.968C382.587 198.488 383.265 198.71 383.265 199.46C383.265 200.21 382.587 201.229 381.745 201.71L365.778 210.942C364.936 211.423 364.258 211.212 364.258 210.45C364.258 209.689 364.936 208.681 365.778 208.201Z" fill="#37474F"/>
<path d="M286.016 248.845L309.457 235.289C310.861 234.481 311.995 235.137 311.995 236.754V252.875C311.995 254.492 310.861 256.461 309.469 257.269L286.028 270.825C284.624 271.633 283.49 270.977 283.49 269.36V253.239C283.49 251.622 284.624 249.653 286.028 248.845H286.016Z" fill="#00C08B"/>
<path d="M289.747 251.095L305.714 241.862C306.556 241.382 307.234 241.604 307.234 242.354C307.234 243.104 306.556 244.123 305.714 244.604L289.747 253.836C288.905 254.317 288.227 254.094 288.227 253.344C288.227 252.594 288.905 251.575 289.747 251.095Z" fill="#00C08B"/>
<path d="M288.239 259.226V263.959C288.239 264.932 288.917 265.318 289.759 264.838L305.726 255.605C306.568 255.125 307.246 253.942 307.246 252.969V248.236C307.246 247.263 306.568 246.877 305.726 247.357L289.759 256.59C288.917 257.07 288.239 258.253 288.239 259.226Z" fill="#00C08B"/>
<path d="M324.02 226.865L347.461 213.309C348.864 212.501 349.999 213.157 349.999 214.774V230.895C349.999 232.512 348.864 234.481 347.461 235.289L324.02 248.845C322.616 249.653 321.481 248.997 321.481 247.38V231.259C321.481 229.642 322.616 227.673 324.02 226.865Z" fill="#00C08B"/>
<path d="M327.763 229.115L343.729 219.882C344.571 219.402 345.25 219.624 345.25 220.374C345.25 221.124 344.571 222.143 343.729 222.624L327.763 231.856C326.921 232.337 326.242 232.114 326.242 231.364C326.242 230.614 326.921 229.595 327.763 229.115Z" fill="#00C08B"/>
<path d="M326.242 237.246V241.979C326.242 242.952 326.921 243.338 327.763 242.858L343.729 233.625C344.571 233.145 345.25 231.962 345.25 230.989V226.256C345.25 225.283 344.571 224.897 343.729 225.377L327.763 234.61C326.921 235.09 326.242 236.273 326.242 237.246Z" fill="#00C08B"/>
<path d="M362.035 204.873L385.476 191.317C386.88 190.509 388.014 191.165 388.014 192.782V208.904C388.014 210.521 386.88 212.489 385.476 213.297L362.035 226.853C360.631 227.662 359.497 227.006 359.497 225.389V209.267C359.497 207.65 360.631 205.682 362.023 204.873H362.035Z" fill="#00C08B"/>
<path d="M365.778 207.135L381.745 197.902C382.587 197.422 383.265 197.633 383.265 198.394C383.265 199.156 382.587 200.163 381.745 200.644L365.778 209.876C364.936 210.357 364.258 210.146 364.258 209.384C364.258 208.623 364.936 207.615 365.778 207.135Z" fill="#00C08B"/>
<path d="M364.258 215.266V219.999C364.258 220.972 364.936 221.358 365.778 220.878L381.745 211.645C382.587 211.165 383.265 209.982 383.265 209.009V204.276C383.265 203.303 382.587 202.917 381.745 203.397L365.778 212.63C364.936 213.11 364.258 214.293 364.258 215.266Z" fill="#00C08B"/>
<path d="M288.543 285.845L382.938 231.259C385.733 229.642 388.003 230.79 388.003 233.825C388.003 236.859 385.733 240.632 382.938 242.249L288.543 296.835C285.747 298.452 283.478 297.304 283.478 294.27C283.478 291.235 285.747 287.462 288.543 285.845Z" fill="#E0E0E0"/>
<path d="M288.543 307.825L382.938 253.239C385.733 251.622 388.003 252.77 388.003 255.805C388.003 258.839 385.733 262.612 382.938 264.229L288.543 318.815C285.747 320.432 283.478 319.284 283.478 316.25C283.478 313.215 285.747 309.442 288.543 307.825Z" fill="#E0E0E0"/>
<path d="M319.271 317.538L352.221 298.487C353.625 297.679 354.76 298.335 354.76 299.952V310.579C354.76 312.196 353.625 314.164 352.221 314.972L319.271 334.023C317.867 334.832 316.732 334.176 316.732 332.559V321.932C316.732 320.315 317.867 318.347 319.259 317.538H319.271Z" fill="#00C08B"/>
<path d="M290.613 287.462C289.303 288.224 288.238 290.063 288.238 291.586C288.238 293.11 289.303 293.719 290.613 292.957C291.923 292.196 292.987 290.356 292.987 288.833C292.987 287.31 291.923 286.701 290.613 287.462Z" fill="#FAFAFA"/>
<path d="M298.134 283.104C296.824 283.865 295.76 285.705 295.76 287.228C295.76 288.751 296.824 289.36 298.134 288.599C299.444 287.837 300.509 285.998 300.509 284.475C300.509 282.951 299.444 282.342 298.134 283.104Z" fill="#FAFAFA"/>
<path d="M305.655 278.745C304.345 279.507 303.281 281.346 303.281 282.869C303.281 284.393 304.345 285.002 305.655 284.24C306.965 283.479 308.03 281.639 308.03 280.116C308.03 278.593 306.965 277.984 305.655 278.745Z" fill="#FAFAFA"/>
<path d="M313.188 274.387C311.878 275.148 310.813 276.988 310.813 278.511C310.813 280.034 311.878 280.643 313.188 279.882C314.498 279.12 315.562 277.281 315.562 275.758C315.562 274.234 314.498 273.625 313.188 274.387Z" fill="#FAFAFA"/>
<path d="M320.709 270.028C319.399 270.79 318.335 272.629 318.335 274.152C318.335 275.676 319.399 276.285 320.709 275.523C322.019 274.762 323.084 272.922 323.084 271.399C323.084 269.876 322.019 269.267 320.709 270.028Z" fill="#FAFAFA"/>
<path d="M328.242 265.67C326.932 266.431 325.868 268.271 325.868 269.794C325.868 271.317 326.932 271.926 328.242 271.165C329.552 270.403 330.617 268.564 330.617 267.041C330.617 265.517 329.552 264.908 328.242 265.67Z" fill="#FAFAFA"/>
<path d="M335.763 261.311C334.453 262.073 333.389 263.912 333.389 265.435C333.389 266.959 334.453 267.568 335.763 266.806C337.073 266.045 338.138 264.205 338.138 262.682C338.138 261.159 337.073 260.55 335.763 261.311Z" fill="#FAFAFA"/>
<path d="M290.613 309.466C289.303 310.227 288.238 312.067 288.238 313.59C288.238 315.113 289.303 315.722 290.613 314.961C291.923 314.199 292.987 312.36 292.987 310.837C292.987 309.313 291.923 308.704 290.613 309.466Z" fill="#FAFAFA"/>
<path d="M298.134 305.107C296.824 305.869 295.76 307.708 295.76 309.231C295.76 310.755 296.824 311.364 298.134 310.602C299.444 309.841 300.509 308.001 300.509 306.478C300.509 304.955 299.444 304.346 298.134 305.107Z" fill="#FAFAFA"/>
<path d="M305.655 300.749C304.345 301.51 303.281 303.35 303.281 304.873C303.281 306.396 304.345 307.005 305.655 306.244C306.965 305.482 308.03 303.643 308.03 302.12C308.03 300.596 306.965 299.987 305.655 300.749Z" fill="#FAFAFA"/>
<path d="M313.188 296.39C311.878 297.152 310.813 298.991 310.813 300.514C310.813 302.038 311.878 302.647 313.188 301.885C314.498 301.124 315.562 299.284 315.562 297.761C315.562 296.238 314.498 295.629 313.188 296.39Z" fill="#FAFAFA"/>
<path d="M320.709 292.032C319.399 292.793 318.335 294.633 318.335 296.156C318.335 297.679 319.399 298.288 320.709 297.527C322.019 296.765 323.084 294.926 323.084 293.403C323.084 291.879 322.019 291.27 320.709 292.032Z" fill="#FAFAFA"/>
<path d="M328.242 287.673C326.932 288.435 325.868 290.274 325.868 291.797C325.868 293.321 326.932 293.93 328.242 293.168C329.552 292.407 330.617 290.567 330.617 289.044C330.617 287.521 329.552 286.912 328.242 287.673Z" fill="#FAFAFA"/>
<path d="M335.763 283.315C334.453 284.076 333.389 285.916 333.389 287.439C333.389 288.962 334.453 289.571 335.763 288.81C337.073 288.048 338.138 286.209 338.138 284.686C338.138 283.162 337.073 282.553 335.763 283.315Z" fill="#FAFAFA"/>
<path d="M441.329 332.852C437.224 332.852 433.34 331.844 429.808 329.805C421.374 324.931 416.543 314.726 416.543 301.815C416.543 279.109 430.954 252.981 449.353 242.342C459.261 236.613 469.098 235.992 477.052 240.597C485.486 245.471 490.316 255.676 490.316 268.587C490.316 291.294 475.906 317.421 457.506 328.06C451.985 331.247 446.488 332.852 441.329 332.852ZM465.495 253.907C462.548 253.907 459.425 255.394 457.506 256.496C444.148 264.217 432.861 284.978 432.861 301.815C432.861 308.634 434.767 313.801 437.961 315.652C441.598 317.761 446.651 315.465 449.342 313.906C462.7 306.185 473.987 285.424 473.987 268.587C473.987 261.768 472.081 256.601 468.887 254.75C467.846 254.141 466.677 253.907 465.495 253.907Z" fill="#455A64"/>
<path d="M476.912 272.219C476.912 259.46 468.887 254.75 468.887 254.75C472.081 256.601 473.987 261.768 473.987 268.587C473.987 285.424 462.7 306.173 449.342 313.906C446.651 315.465 441.598 317.761 437.96 315.652C437.96 315.652 444.733 319.858 454.079 314.75C467.624 307.345 476.9 289.067 476.9 272.231L476.912 272.219Z" fill="#37474F"/>
<path d="M464.045 112.771C464.045 108.107 460.267 104.323 455.611 104.323C450.956 104.323 447.178 108.107 447.178 112.771C447.178 112.771 447.178 112.782 447.178 112.794V247.193C447.178 248.447 447.997 249.689 449.646 250.638C452.944 252.547 458.278 252.547 461.577 250.638C463.226 249.689 464.045 248.435 464.045 247.193V112.794C464.045 112.794 464.045 112.782 464.045 112.771Z" fill="#37474F"/>
<path d="M457.307 142.8C457.307 139.683 455.132 135.899 452.43 134.352C451.061 133.555 449.833 133.509 448.944 134.048L428.123 146.057L427.62 146.361C427.55 146.397 427.48 146.432 427.421 146.479C427.059 146.725 426.731 146.994 426.427 147.299C425.164 148.552 424.392 150.286 424.392 152.196C424.392 154.821 425.842 157.094 427.983 158.277C428.965 158.804 430.077 159.109 431.281 159.109C432.486 159.109 433.597 158.804 434.568 158.277C434.697 158.207 434.837 158.125 434.966 158.054L455.915 145.963C456.781 145.448 457.319 144.358 457.319 142.811L457.307 142.8Z" fill="#455A64"/>
<path d="M457.307 176.461C457.307 173.344 455.132 169.56 452.43 168.013C451.061 167.217 449.833 167.17 448.944 167.709L424.544 181.733L424.041 182.038C423.971 182.073 423.901 182.108 423.842 182.155C423.48 182.389 423.152 182.671 422.848 182.975C421.585 184.229 420.813 185.963 420.813 187.873C420.813 190.497 422.263 192.77 424.404 193.954C425.386 194.481 426.497 194.785 427.702 194.785C428.907 194.785 430.018 194.481 430.989 193.954C431.118 193.883 431.258 193.801 431.387 193.731L455.916 179.624C456.781 179.109 457.319 178.019 457.319 176.473L457.307 176.461Z" fill="#455A64"/>
</g>
<defs>
<clipPath id="clip0_366_663">
<rect width="543" height="471" fill="white"/>
</clipPath>
</defs>
</svg>
