<svg width="22" height="19" viewBox="0 0 22 19" fill="none" xmlns="http://www.w3.org/2000/svg">
<path d="M0.237305 3.02169C0.237305 2.45278 0.463303 1.90717 0.865582 1.50489C1.26786 1.10262 1.81347 0.876617 2.38238 0.876617H19.543C20.1119 0.876617 20.6575 1.10262 21.0598 1.50489C21.462 1.90717 21.688 2.45278 21.688 3.02169V15.8921C21.688 16.461 21.462 17.0066 21.0598 17.4089C20.6575 17.8112 20.1119 18.0372 19.543 18.0372H2.38238C1.81347 18.0372 1.26786 17.8112 0.865582 17.4089C0.463303 17.0066 0.237305 16.461 0.237305 15.8921V3.02169ZM4.01156 3.02169L10.9627 9.10404L17.9138 3.02169H4.01156ZM19.543 4.44709L11.6695 11.3371C11.4739 11.5084 11.2227 11.6029 10.9627 11.6029C10.7026 11.6029 10.4515 11.5084 10.2559 11.3371L2.38238 4.44709V15.8921H19.543V4.44709Z" fill="#00C08B"/>
</svg>
