<svg width="23" height="25" viewBox="0 0 23 25" fill="none" xmlns="http://www.w3.org/2000/svg">
<path d="M19.7001 21.8952H3.01623V8.78644H19.7001M16.125 0.444489V2.8279H6.59135V0.444489H4.20793V2.8279H3.01623C1.69343 2.8279 0.632812 3.88852 0.632812 5.21132V21.8952C0.632813 22.5273 0.883921 23.1336 1.3309 23.5805C1.77788 24.0275 2.38411 24.2786 3.01623 24.2786H19.7001C20.3322 24.2786 20.9385 24.0275 21.3855 23.5805C21.8324 23.1336 22.0835 22.5273 22.0835 21.8952V5.21132C22.0835 4.5792 21.8324 3.97297 21.3855 3.52599C20.9385 3.07901 20.3322 2.8279 19.7001 2.8279H18.5084V0.444489M17.3167 13.5533H11.3582V19.5118H17.3167V13.5533Z" fill="#00C08B"/>
</svg>
