<svg width="12" height="17" viewBox="0 0 12 17" fill="none" xmlns="http://www.w3.org/2000/svg">
<path d="M0 1.88889C0 1.38792 0.199007 0.907478 0.553243 0.553243C0.907478 0.199007 1.38792 0 1.88889 0H9.44444C9.94541 0 10.4259 0.199007 10.7801 0.553243C11.1343 0.907478 11.3333 1.38792 11.3333 1.88889V15.1111C11.3333 15.6121 11.1343 16.0925 10.7801 16.4468C10.4259 16.801 9.94541 17 9.44444 17H1.88889C1.38792 17 0.907478 16.801 0.553243 16.4468C0.199007 16.0925 0 15.6121 0 15.1111V1.88889ZM9.44444 1.88889H1.88889V15.1111H9.44444V1.88889Z" fill="#00C08B"/>
<path d="M6.61155 13.2222C6.61155 13.4727 6.51204 13.7129 6.33492 13.89C6.15781 14.0672 5.91758 14.1667 5.6671 14.1667C5.41662 14.1667 5.1764 14.0672 4.99928 13.89C4.82216 13.7129 4.72266 13.4727 4.72266 13.2222C4.72266 12.9717 4.82216 12.7315 4.99928 12.5544C5.1764 12.3773 5.41662 12.2778 5.6671 12.2778C5.91758 12.2778 6.15781 12.3773 6.33492 12.5544C6.51204 12.7315 6.61155 12.9717 6.61155 13.2222Z" fill="#00C08B"/>
</svg>
