<svg width="22" height="22" viewBox="0 0 22 22" fill="none" xmlns="http://www.w3.org/2000/svg">
<path d="M21.6249 3.96511L18.3248 0.664999C18.0927 0.432927 17.7779 0.302551 17.4497 0.302551C17.1215 0.302551 16.8067 0.432927 16.5746 0.664999L6.67427 10.5653C6.44221 10.7974 6.31183 11.1122 6.31181 11.4404V14.7405C6.31182 15.0687 6.4422 15.3835 6.67429 15.6156C6.90637 15.8477 7.22114 15.978 7.54935 15.9781H10.8495C11.012 15.9781 11.1729 15.9461 11.3231 15.8839C11.4732 15.8217 11.6096 15.7305 11.7245 15.6156L21.6249 5.71527C21.7398 5.60035 21.8309 5.46393 21.8931 5.31378C21.9553 5.16363 21.9874 5.00271 21.9874 4.84019C21.9874 4.67767 21.9553 4.51674 21.8931 4.3666C21.8309 4.21645 21.7398 4.08002 21.6249 3.96511ZM17.4497 3.29022L18.9996 4.84019L17.8622 5.97762L16.3122 4.42767L17.4497 3.29022ZM10.3368 13.503H8.78689V11.953L14.5621 6.17784L16.112 7.72778L10.3368 13.503ZM21.1623 11.499V19.6907C21.1617 20.2375 20.9442 20.7618 20.5575 21.1485C20.1708 21.5351 19.6466 21.7526 19.0997 21.7532H2.59919C2.05235 21.7526 1.52809 21.5351 1.14141 21.1485C0.754742 20.7618 0.537238 20.2375 0.536621 19.6907V3.19013C0.537234 2.6433 0.754736 2.11903 1.14141 1.73235C1.52808 1.34568 2.05235 1.12818 2.59919 1.12757H10.7908C11.1191 1.12757 11.4338 1.25795 11.6659 1.49003C11.898 1.72212 12.0284 2.03689 12.0284 2.36511C12.0284 2.69332 11.898 3.0081 11.6659 3.24018C11.4338 3.47226 11.1191 3.60265 10.7908 3.60265H3.0117V19.2782H18.6872V11.499C18.6872 11.1708 18.8176 10.856 19.0497 10.6239C19.2818 10.3919 19.5965 10.2615 19.9248 10.2615C20.253 10.2615 20.5677 10.3919 20.7998 10.6239C21.0319 10.856 21.1623 11.1708 21.1623 11.499Z" fill="#00C08B"/>
</svg>
