<svg width="21" height="21" viewBox="0 0 21 21" fill="none" xmlns="http://www.w3.org/2000/svg">
<path d="M8.125 12.1625C8.125 13.084 8.8375 13.825 9.7115 13.825H11.4975C12.2575 13.825 12.875 13.179 12.875 12.3715C12.875 11.507 12.495 11.1935 11.9345 10.994L9.075 9.99651C8.5145 9.79701 8.13451 9.49301 8.13451 8.61901C8.13451 7.821 8.752 7.1655 9.512 7.1655H11.298C12.172 7.1655 12.8845 7.9065 12.8845 8.82801" stroke="#00C08B" stroke-width="2" stroke-linecap="round" stroke-linejoin="round"/>
<path d="M10.5 6.22501V14.775" stroke="#00C08B" stroke-width="2" stroke-linecap="round" stroke-linejoin="round"/>
<path d="M10.5 1C5.256 1 1 5.256 1 10.5C1 14.243 3.16601 17.4825 6.32001 19.031" stroke="#00C08B" stroke-width="2" stroke-linecap="round" stroke-linejoin="round"/>
<path d="M20 10.5C20 15.744 15.744 20 10.5 20" stroke="#00C08B" stroke-width="2" stroke-linecap="round" stroke-linejoin="round"/>
<path d="M20 4.8V1H16.2" stroke="#00C08B" stroke-width="2" stroke-linecap="round" stroke-linejoin="round"/>
<path d="M15.25 5.75L20 1" stroke="#00C08B" stroke-width="2" stroke-linecap="round" stroke-linejoin="round"/>
</svg>
