<svg width="15" height="15" viewBox="0 0 15 15" fill="none" xmlns="http://www.w3.org/2000/svg">
<path d="M7.26746 1.21124C6.06965 1.21124 4.89874 1.56643 3.90281 2.2319C2.90687 2.89736 2.13063 3.84321 1.67225 4.94984C1.21387 6.05647 1.09393 7.27417 1.32761 8.44896C1.56129 9.62375 2.13809 10.7029 2.98507 11.5498C3.83204 12.3968 4.91116 12.9736 6.08595 13.2073C7.26074 13.441 8.47844 13.321 9.58507 12.8627C10.6917 12.4043 11.6375 11.628 12.303 10.6321C12.9685 9.63616 13.3237 8.46526 13.3237 7.26745C13.3237 6.47214 13.167 5.68461 12.8627 4.94984C12.5583 4.21507 12.1122 3.54744 11.5498 2.98507C10.9875 2.42269 10.3198 1.9766 9.58507 1.67224C8.85029 1.36789 8.06277 1.21124 7.26746 1.21124ZM9.68994 7.87307H7.26746C7.10684 7.87307 6.95279 7.80927 6.83922 7.69569C6.72564 7.58212 6.66183 7.42807 6.66183 7.26745V4.84497C6.66183 4.68435 6.72564 4.53031 6.83922 4.41673C6.95279 4.30315 7.10684 4.23935 7.26746 4.23935C7.42808 4.23935 7.58212 4.30315 7.69569 4.41673C7.80927 4.53031 7.87308 4.68435 7.87308 4.84497V6.66183H9.68994C9.85056 6.66183 10.0046 6.72564 10.1182 6.83921C10.2318 6.95279 10.2956 7.10683 10.2956 7.26745C10.2956 7.42807 10.2318 7.58212 10.1182 7.69569C10.0046 7.80927 9.85056 7.87307 9.68994 7.87307Z" fill="#9D9D9D"/>
</svg>
