<svg width="22" height="22" viewBox="0 0 22 22" fill="none" xmlns="http://www.w3.org/2000/svg">
<path d="M2.60799 2.27191H7.3479L8.87545 6.09129L6.42103 7.72756C6.2765 7.824 6.158 7.95461 6.07605 8.10783C5.9941 8.26104 5.95124 8.43212 5.95126 8.60587C5.95443 8.7051 5.95126 8.60693 5.95126 8.60693V8.6291C5.95189 8.6763 5.954 8.72348 5.9576 8.77056C5.96393 8.85712 5.97449 8.9743 5.99455 9.11892C6.03572 9.40395 6.11489 9.79666 6.26902 10.259C6.57938 11.188 7.18744 12.3904 8.3719 13.5749C9.55635 14.7593 10.7587 15.3674 11.6867 15.6777C12.1501 15.8319 12.5418 15.91 12.8289 15.9522C12.991 15.9748 13.1541 15.9889 13.3177 15.9944L13.3314 15.9955H13.3398C13.3398 15.9955 13.4581 15.9892 13.3409 15.9955C13.5369 15.9954 13.729 15.9407 13.8957 15.8376C14.0624 15.7345 14.197 15.587 14.2847 15.4117L14.9919 13.9971L19.6749 14.7783V19.3388C17.4464 19.6608 11.427 19.9785 6.69762 15.2491C1.96825 10.5198 2.28495 4.49935 2.60799 2.27191ZM8.13965 9.11892L10.0472 7.84791C10.4502 7.57911 10.7485 7.1799 10.8921 6.71726C11.0357 6.25461 11.0158 5.75666 10.8358 5.30693L9.30827 1.48755C9.15151 1.0958 8.88097 0.760003 8.53155 0.52348C8.18213 0.286956 7.76985 0.160555 7.3479 0.160584H2.55309C1.5935 0.160584 0.690905 0.826706 0.533612 1.86759C0.174687 4.23438 -0.311972 11.225 5.20491 16.7419C10.7218 22.2587 17.7124 21.771 20.0792 21.4132C21.1201 21.2548 21.7862 20.3533 21.7862 19.3937V14.7783C21.7862 14.2785 21.609 13.7949 21.286 13.4135C20.963 13.0322 20.5152 12.7777 20.0222 12.6955L15.3393 11.9154C14.8939 11.841 14.4364 11.9114 14.034 12.1163C13.6315 12.3211 13.3054 12.6495 13.1034 13.0534L12.7381 13.7849C12.6089 13.7531 12.4811 13.7162 12.3549 13.6741C11.7004 13.4566 10.7915 13.009 9.8646 12.0822C8.93773 11.1553 8.49013 10.2464 8.27266 9.5908C8.22074 9.43584 8.17669 9.27835 8.14071 9.11892H8.13965Z" fill="#00C08B"/>
</svg>
