<svg width="22" height="22" viewBox="0 0 22 22" fill="none" xmlns="http://www.w3.org/2000/svg">
<path d="M19.8451 11.7259C19.6688 11.5252 19.5715 11.2672 19.5715 11C19.5715 10.7328 19.6688 10.4748 19.8451 10.2741L21.2529 8.69031C21.408 8.51727 21.5044 8.29954 21.5281 8.06836C21.5518 7.83717 21.5017 7.60442 21.3849 7.40349L19.1852 3.59801C19.0696 3.39731 18.8936 3.23822 18.6823 3.14342C18.471 3.04863 18.2351 3.02296 18.0083 3.07008L15.9406 3.48802C15.6775 3.54239 15.4036 3.49857 15.1706 3.36484C14.9376 3.23111 14.7616 3.01672 14.6758 2.76212L14.0049 0.749394C13.9311 0.530941 13.7905 0.341201 13.603 0.206994C13.4155 0.0727869 13.1906 0.000900553 12.96 0.00149575H8.56063C8.32079 -0.0110228 8.08345 0.0553074 7.88485 0.190356C7.68624 0.325404 7.53731 0.521746 7.46078 0.749394L6.84486 2.76212C6.75908 3.01672 6.58307 3.23111 6.35006 3.36484C6.11704 3.49857 5.84314 3.54239 5.58004 3.48802L3.45733 3.07008C3.24236 3.0397 3.02321 3.07362 2.82749 3.16757C2.63177 3.26151 2.46823 3.41128 2.35748 3.59801L0.157775 7.40349C0.0380669 7.60218 -0.0157575 7.83362 0.00399636 8.06474C0.0237502 8.29587 0.116071 8.51482 0.267759 8.69031L1.66457 10.2741C1.8409 10.4748 1.93814 10.7328 1.93814 11C1.93814 11.2672 1.8409 11.5252 1.66457 11.7259L0.267759 13.3097C0.116071 13.4852 0.0237502 13.7041 0.00399636 13.9353C-0.0157575 14.1664 0.0380669 14.3978 0.157775 14.5965L2.35748 18.402C2.47307 18.6027 2.64907 18.7618 2.86038 18.8566C3.0717 18.9514 3.30755 18.977 3.53432 18.9299L5.60203 18.512C5.86514 18.4576 6.13904 18.5014 6.37205 18.6352C6.60507 18.7689 6.78108 18.9833 6.86686 19.2379L7.53777 21.2506C7.6143 21.4783 7.76324 21.6746 7.96184 21.8096C8.16044 21.9447 8.39778 22.011 8.63762 21.9985H13.037C13.2676 21.9991 13.4925 21.9272 13.68 21.793C13.8675 21.6588 14.0081 21.4691 14.0819 21.2506L14.7528 19.2379C14.8386 18.9833 15.0146 18.7689 15.2476 18.6352C15.4806 18.5014 15.7545 18.4576 16.0176 18.512L18.0853 18.9299C18.3121 18.977 18.548 18.9514 18.7593 18.8566C18.9706 18.7618 19.1466 18.6027 19.2622 18.402L21.4619 14.5965C21.5787 14.3956 21.6288 14.1628 21.6051 13.9316C21.5814 13.7005 21.485 13.4827 21.3299 13.3097L19.8451 11.7259ZM18.2063 13.1997L19.0862 14.1896L17.6784 16.6312L16.3806 16.3673C15.5884 16.2053 14.7644 16.3399 14.0649 16.7454C13.3655 17.1509 12.8392 17.7991 12.5861 18.567L12.1681 19.7988H9.35252L8.95658 18.545C8.70345 17.7771 8.1772 17.1289 7.47772 16.7234C6.77825 16.3179 5.95423 16.1834 5.16209 16.3453L3.86427 16.6092L2.43447 14.1786L3.31435 13.1887C3.85542 12.5838 4.15456 11.8006 4.15456 10.989C4.15456 10.1774 3.85542 9.39424 3.31435 8.7893L2.43447 7.79944L3.84227 5.37976L5.1401 5.64373C5.93223 5.80565 6.75625 5.67109 7.45573 5.2656C8.15521 4.8601 8.68146 4.2119 8.93458 3.44403L9.35252 2.2012H12.1681L12.5861 3.45503C12.8392 4.2229 13.3655 4.8711 14.0649 5.2766C14.7644 5.68209 15.5884 5.81665 16.3806 5.65473L17.6784 5.39076L19.0862 7.83243L18.2063 8.8223C17.6713 9.42585 17.3759 10.2045 17.3759 11.011C17.3759 11.8175 17.6713 12.5961 18.2063 13.1997ZM10.7603 6.6006C9.89021 6.6006 9.03963 6.85862 8.31616 7.34203C7.59268 7.82544 7.0288 8.51254 6.69582 9.31642C6.36283 10.1203 6.27571 11.0049 6.44546 11.8583C6.61522 12.7117 7.03422 13.4956 7.64949 14.1108C8.26475 14.7261 9.04865 15.1451 9.90205 15.3149C10.7555 15.4846 11.64 15.3975 12.4439 15.0645C13.2478 14.7315 13.9349 14.1677 14.4183 13.4442C14.9017 12.7207 15.1597 11.8701 15.1597 11C15.1597 9.83321 14.6962 8.7142 13.8712 7.88915C13.0461 7.06411 11.9271 6.6006 10.7603 6.6006ZM10.7603 13.1997C10.3253 13.1997 9.89998 13.0707 9.53824 12.829C9.17651 12.5873 8.89456 12.2437 8.72807 11.8418C8.56158 11.4398 8.51802 10.9976 8.6029 10.5709C8.68777 10.1442 8.89727 9.75221 9.20491 9.44458C9.51254 9.13694 9.90449 8.92744 10.3312 8.84257C10.7579 8.75769 11.2002 8.80125 11.6021 8.96774C12.0041 9.13423 12.3476 9.41617 12.5893 9.77791C12.831 10.1397 12.96 10.5649 12.96 11C12.96 11.5834 12.7283 12.1429 12.3158 12.5554C11.9032 12.9679 11.3437 13.1997 10.7603 13.1997Z" fill="#1F393F"/>
</svg>
