<svg width="30" height="26" viewBox="0 0 30 26" fill="none" xmlns="http://www.w3.org/2000/svg">
<path d="M25.1815 12.6326H28.5701C28.8727 12.6326 29.1481 12.7566 29.3482 12.9562C29.5494 13.1571 29.6744 13.4333 29.6744 13.7359V23.0308C29.6744 23.3334 29.5493 23.6095 29.3481 23.8104C29.148 24.0101 28.8725 24.1341 28.57 24.1341H25.1815C24.8791 24.1341 24.6035 24.0102 24.4033 23.8104C24.2021 23.6096 24.0771 23.3336 24.0771 23.0308V13.7359C24.0771 13.4331 24.2021 13.157 24.4033 12.9562C24.6034 12.7565 24.8789 12.6326 25.1815 12.6326ZM28.5274 13.7796H25.2242V22.9871H28.5274V13.7796Z" fill="#1F393F" stroke="#1F393F" stroke-width="0.48"/>
<path d="M6.28942 11.0997C5.98137 11.0292 5.67442 11.2218 5.60391 11.5298C5.53339 11.8379 5.72595 12.1448 6.03402 12.2153C6.5879 12.344 7.96177 13.6983 8.75624 14.4815C8.91749 14.6404 9.05684 14.7778 9.15884 14.8749C9.38771 15.0927 9.7498 15.0837 9.96754 14.8548C10.1853 14.6259 10.1763 14.2638 9.94739 14.0461C9.83965 13.9435 9.70919 13.8148 9.55824 13.666C8.67951 12.7998 7.16002 11.302 6.28942 11.0997Z" fill="#1F393F" stroke="#1F393F" stroke-width="0.48"/>
<path d="M4.18568 11.9949C3.92338 11.8192 3.5683 11.8894 3.39263 12.1517C3.21696 12.414 3.28719 12.7691 3.54947 12.9447C3.68119 13.0327 3.77673 13.0922 3.87405 13.1527C4.12493 13.3088 4.38844 13.4727 4.6266 13.6857C5.03241 14.049 5.44004 14.4571 5.83701 14.8546C6.28274 15.3009 6.71543 15.7341 7.15269 16.1099C7.39269 16.3153 7.75379 16.2872 7.95914 16.0472C8.16451 15.8072 8.13642 15.4461 7.89641 15.2407C7.49143 14.8927 7.07596 14.4766 6.64796 14.0481C6.24785 13.6475 5.83699 13.2361 5.38829 12.8345C5.0641 12.5445 4.76434 12.358 4.47891 12.1805C4.36562 12.11 4.2546 12.0409 4.18568 11.9949Z" fill="#1F393F" stroke="#1F393F" stroke-width="0.48"/>
<path d="M23.0127 15.3596C22.0466 14.8661 20.8085 14.663 19.6138 14.7824C18.5101 14.8927 17.4577 15.2781 16.7161 15.964V15.9663L16.6732 16.0059L16.6732 16.006C16.3677 16.2926 16.1942 16.4552 15.4523 16.459V16.4591C14.4609 16.5205 13.5831 16.4567 12.7954 16.3995C11.156 16.2803 9.96728 16.194 9.2548 17.5792L8.23776 17.055C9.29637 14.9969 10.801 15.1062 12.876 15.2569C13.6316 15.3118 14.4735 15.373 15.3851 15.3165H15.4187C15.6856 15.3169 15.7668 15.2801 15.8448 15.2131C15.8556 15.2029 15.8839 15.1767 15.941 15.1239L15.9422 15.1252C16.8781 14.26 18.1679 13.7776 19.5018 13.6443C20.9044 13.5041 22.3723 13.75 23.5324 14.3425L23.0127 15.3596ZM15.8914 15.1727C15.9276 15.1387 15.9128 15.1519 15.8899 15.1727H15.8914ZM17.2629 21.4327C16.12 21.5886 14.1047 21.812 12.2102 21.6933C10.1878 21.5665 8.28722 21.0409 7.55842 19.6338L7.5575 19.6343L7.52806 19.5777C7.40187 19.3351 7.31387 19.166 7.23039 18.8152C7.15351 18.4917 6.60206 17.9344 5.88828 17.3275C4.72902 16.3416 3.1949 15.3068 2.37566 14.7815C2.37324 14.7845 2.37041 14.7878 2.36711 14.7911C2.28744 14.8721 2.21713 14.9891 2.17724 15.1272L2.17664 15.127C2.15786 15.1929 2.14703 15.2683 2.14703 15.352C2.14703 16.6919 3.22057 17.9995 4.18332 19.1723C4.34719 19.3719 4.50813 19.5679 4.68212 19.7875C4.76912 19.8975 4.78573 19.9192 4.80202 19.9405C4.86056 20.0171 4.91602 20.0896 4.97564 20.1596L4.97548 20.1597C9.46016 25.3536 13.0816 24.1943 17.6802 22.7221C19.3395 22.1909 21.1191 21.6212 23.1013 21.2682L23.2984 22.3973C21.3758 22.7396 19.6442 23.294 18.0297 23.8109C13.027 25.4125 9.08747 26.6737 4.10864 20.9056L4.10639 20.9033C4.02128 20.8035 3.95866 20.7215 3.89249 20.635C3.83761 20.5632 3.79122 20.5021 3.78602 20.4955C3.64596 20.3187 3.47501 20.1105 3.30067 19.8981C2.21289 18.5731 1 17.0957 1 15.352C1 15.1687 1.02904 14.9863 1.07953 14.8113V14.8091C1.17434 14.4808 1.34957 14.1946 1.55163 13.9891C1.79898 13.7376 2.10462 13.5884 2.39907 13.5884C2.47734 13.5884 2.55945 13.6003 2.64481 13.625L2.7904 13.69C3.56345 14.177 5.32283 15.3442 6.62755 16.4538C7.5085 17.2029 8.20493 17.9573 8.346 18.5509C8.39667 18.7637 8.45763 18.8809 8.54508 19.049L8.57452 19.1056V19.1079C9.07259 20.0713 10.6115 20.4461 12.2819 20.5508C14.081 20.6635 16.0132 20.4489 17.1106 20.2992L17.2629 21.4327H17.2629Z" fill="#1F393F" stroke="#1F393F" stroke-width="0.48"/>
<path d="M13.8317 8.01055V5.86274C13.1613 5.67021 12.6694 5.38138 12.3561 4.99277C12.0445 4.60419 11.8869 4.13331 11.8869 3.58016C11.8869 3.02 12.0637 2.54913 12.4173 2.16755C12.7727 1.78594 13.2435 1.56713 13.8317 1.50764V1H14.5739V1.50764C15.1183 1.57414 15.5506 1.75794 15.8727 2.06427C16.1931 2.3706 16.3978 2.78021 16.4871 3.29308L15.1901 3.4629C15.1113 3.05854 14.9065 2.78546 14.5739 2.64192V4.64617C15.3948 4.86849 15.955 5.15732 16.2508 5.5109C16.5484 5.8645 16.6972 6.31788 16.6972 6.87275C16.6972 7.49068 16.5099 8.01232 16.137 8.43591C15.7624 8.86128 15.2408 9.12036 14.5739 9.21663V10.1759H13.8317V9.24115C13.24 9.16935 12.7587 8.94879 12.3893 8.57945C12.02 8.21186 11.7854 7.69022 11.6821 7.01629L13.0212 6.87275C13.0755 7.14583 13.1788 7.38215 13.3293 7.57996C13.4781 7.77774 13.6461 7.9213 13.8317 8.01055ZM13.8317 2.62617C13.6286 2.69444 13.4694 2.81169 13.3486 2.97448C13.2295 3.13906 13.17 3.32108 13.17 3.5189C13.17 3.6992 13.2243 3.86898 13.3328 4.02301C13.4431 4.17881 13.6094 4.30485 13.8317 4.40111V2.62617ZM14.5739 8.08233C14.8312 8.03508 15.0395 7.91604 15.2005 7.72699C15.3616 7.53619 15.4421 7.31389 15.4421 7.05656C15.4421 6.82724 15.3739 6.6312 15.239 6.46491C15.1043 6.29861 14.882 6.17084 14.5739 6.0833V8.08233Z" fill="#1F393F" stroke="#1F393F" stroke-width="0.48"/>
</svg>
