<svg width="15" height="15" viewBox="0 0 15 15" fill="none" xmlns="http://www.w3.org/2000/svg">
<path d="M13.689 7.14209L12.2368 5.48155L12.4392 3.28536L10.2906 2.79732L9.16569 0.892761L7.1421 1.76172L5.11851 0.892761L3.99363 2.79137L1.84505 3.27346L2.04741 5.4756L0.595184 7.14209L2.04741 8.80263L1.84505 11.0048L3.99363 11.4928L5.11851 13.3914L7.1421 12.5165L9.16569 13.3855L10.2906 11.4869L12.4392 10.9988L12.2368 8.80263L13.689 7.14209ZM5.58275 9.52874L4.16623 8.10032C3.93411 7.8682 3.93411 7.49324 4.16623 7.26113L4.20789 7.21946C4.44001 6.98735 4.82092 6.98735 5.05304 7.21946L6.01127 8.18365L9.07642 5.11255C9.30854 4.88043 9.68945 4.88043 9.92157 5.11255L9.96323 5.15421C10.1953 5.38633 10.1953 5.76129 9.96323 5.9934L6.4398 9.52874C6.19577 9.76086 5.82082 9.76086 5.58275 9.52874Z" fill="#00C08B"/>
</svg>
